<?xml version="1.0" standalone="no"?>
<!DOCTYPE svg PUBLIC "-//W3C//DTD SVG 1.1//EN" "http://www.w3.org/Graphics/SVG/1.1/DTD/svg11.dtd" >
<svg xmlns="http://www.w3.org/2000/svg" xmlns:xlink="http://www.w3.org/1999/xlink" version="1.1">
<metadata>
Created by FontForge 20150804 at Sun Dec 23 19:36:23 2018
 By cloudconvert
Copyright (c) 2018 by Khurasan. All rights reserved.
</metadata>
<defs>
<font id="Tahu!" horiz-adv-x="367" >
  <font-face 
    font-family="Tahu!"
    font-weight="400"
    font-stretch="normal"
    units-per-em="1000"
    panose-1="0 0 0 0 0 0 0 0 0 0"
    ascent="800"
    descent="-200"
    x-height="296.5"
    cap-height="730.5"
    bbox="-344.385 -524.818 1037.29 919.163"
    underline-thickness="50"
    underline-position="-100"
    unicode-range="U+000D-FB00"
  />
<missing-glyph horiz-adv-x="200" 
 />
    <glyph glyph-name="ff" unicode="ff" horiz-adv-x="472" 
d="M302 235q12 -15 35 -24t51 -12.5t58 -3.5t55 2q10 0 9 -4.5t-3 -5.5q-23 -12 -48 -20.5t-50.5 -11t-49.5 3t-45 20.5q8 -28 13.5 -64.5t8 -76t0 -78.5t-12 -71t-26 -55t-42.5 -29q-17 -1 -32.5 2t-24.5 20q-8 15 -12.5 37t-6.5 48q-3 37 -1.5 72.5t6.5 71t12.5 72
t15.5 77.5q-15 -1 -28 -3.5t-25.5 -9t-27.5 -18t-34 -30.5q5 -27 9 -64t4 -77t-4 -79.5t-13 -73t-24 -57t-37 -30.5q-17 -1 -32.5 2t-24.5 20q-23 45 -22.5 91t4.5 91q12 84 33.5 170t50.5 167.5t64.5 154.5t76.5 132q9 11 20 19.5t26 6.5q14 0 21.5 -10.5t2.5 -23.5v-16
q0 -26 -1.5 -54t-9.5 -55q-12 -44 -27 -79t-33 -65.5t-39 -60.5t-44 -63q26 18 45 27t33 12t24 2.5t18 -0.5q29 134 81 255t118 218q9 11 20 19.5t26 6.5q7 0 13.5 -4.5t11 -11.5t6 -15t-0.5 -14l-3 -4q-1 -16 -3 -32t-8 -32q-6 -17 -16.5 -43.5t-24.5 -57t-29.5 -63.5
t-31 -62.5t-29.5 -53t-25 -35.5q-7 -21 -9.5 -26.5t-3.5 -7.5t-2.5 -7t-5.5 -26zM295 -41q5 34 5.5 68t-1.5 63t-6 50t-9 28q-5 -24 -10 -45.5t-9.5 -45.5t-7.5 -51.5t-3 -61.5q0 -21 4.5 -37t11 -20.5t13.5 7t12 45.5zM95 226q25 30 48 70.5t41.5 84t31.5 86.5t19 80
q-18 -23 -39.5 -68t-41.5 -94t-36 -93t-23 -66zM24 -125q9 -3 16.5 10.5t12.5 36.5t7.5 51.5t3 55t-2 47t-7.5 27.5q-11 -57 -21.5 -112.5t-8.5 -115.5zM470 660q-17 -26 -37 -70t-40.5 -92t-38 -92.5t-27.5 -72.5q12 18 27 46t30.5 60.5t30 67t27 65.5t21.5 56t13 38z" />
    <glyph glyph-name="ee" unicode="ee" horiz-adv-x="549" 
d="M-27 89q-2 38 8 79t30 75.5t50.5 56.5t71.5 23q21 -5 32.5 -21t6.5 -39q-4 -22 -11.5 -37.5t-25.5 -32.5q-9 -8 -25 -21t-31 -27t-26 -28.5t-11 -24.5q-3 -24 7.5 -32t27 -4.5t37.5 16t40.5 29t35 35t20.5 34.5q15 38 35 72t45 58.5t56 36.5t69 7q22 -12 29.5 -35
t-4.5 -50q-16 -24 -30 -37t-29 -22t-32.5 -17t-40.5 -21q-14 -8 -22 -28t-8 -41t9 -38t30 -19q37 -5 76.5 12.5t75.5 42t65.5 49t47.5 34.5q10 1 8 -8t-13 -23q-18 -26 -51.5 -55t-74 -52.5t-83 -37t-79.5 -7.5q-45 10 -70 36.5t-21 74.5q-17 -18 -31 -34.5t-29 -29.5
t-32.5 -22t-39.5 -12q-43 -2 -65.5 17.5t-27.5 67.5zM404 288q-29 -9 -56.5 -28.5t-47.5 -49.5q25 10 43.5 21.5t30.5 22.5t19.5 20t10.5 14zM133 277q-27 -10 -42.5 -26t-22.5 -47q22 16 39.5 32.5t25.5 40.5z" />
    <glyph glyph-name="ll" unicode="ll" horiz-adv-x="533" 
d="M285 -108q5 -10 9 -6t12 9q27 24 59.5 62t64 79t59 80.5t44.5 65.5q2 4 6 8.5t7 8.5q8 8 12.5 2t1.5 -15q-15 -25 -38.5 -72t-53 -99t-63 -101t-66.5 -79q-24 -22 -52 -25q-26 1 -49 16.5t-27 41.5q-6 61 2 123q9 75 35 168t61 188q-26 -57 -57.5 -126t-61 -132t-55 -110
t-39.5 -60q-24 -22 -52 -25q-26 1 -49 16.5t-27 41.5q-6 61 2 123q9 72 32.5 158.5t56 174.5t70.5 170t75 144q17 27 34 51.5t36 45.5q7 9 17.5 13t21.5 -1q22 -10 19 -37q-7 -59 -28 -125t-50.5 -130t-64 -121.5t-69.5 -100.5q-3 -3 -4.5 -7t-3.5 -8q-15 -40 -29.5 -88
t-25 -93.5t-15 -84.5t-0.5 -60q5 -10 13.5 -10.5t16.5 4.5q17 15 42.5 55.5t54.5 95t60.5 116.5t61 120t54.5 105t42 72q17 35 33.5 66.5t32.5 58.5q17 27 34 51.5t36 45.5q7 9 17.5 13t21.5 -1q22 -10 19 -37q-7 -59 -24.5 -115t-42.5 -108t-56 -100t-66 -91q-3 -3 -4.5 -7
t-3.5 -8q-10 -27 -22 -63.5t-24 -77.5t-22.5 -82.5t-18.5 -78.5t-11.5 -65.5t-0.5 -42.5zM311 747q-21 -36 -44 -83t-44.5 -96.5t-42 -97.5t-37.5 -86q9 9 24 35t32.5 61t36 75t34 77t27 67.5t14.5 47.5zM560 684q-43 -72 -77 -148l-68 -152q9 9 22.5 30.5t28.5 49t30 59.5
t28 62t23 56.5t13 42.5z" />
    <glyph glyph-name="ss" unicode="ss" horiz-adv-x="565" 
d="M458 277q-1 -10 -5 -16t-15 1q-13 9 -19 24t-9 31l-2 7q-8 2 -20.5 -6t-22.5 -22t-14 -31.5t5 -34.5q4 -6 11.5 -14.5t15 -17.5t15 -17.5t12.5 -13.5q6 -6 8 -6.5t10 2.5q9 4 26.5 11.5t37.5 14.5t39.5 13t33.5 8q4 1 11 1t10 -5q3 -3 -1 -8t-10.5 -10t-13.5 -9t-9 -5
q-17 -10 -43 -22.5t-45 -24.5q-2 -2 -7.5 -4t-8.5 -4q24 -26 29 -63.5t-5 -78.5t-32.5 -81.5t-52.5 -73t-65 -52.5t-71 -20q-14 0 -27 3.5t-22 14.5q-23 25 -30.5 55.5t0.5 59.5q13 46 34.5 82t46 63.5t50 49t45.5 38.5q-14 18 -28 37.5t-22 39.5q-8 -4 -9 -4
q-9 -5 -24.5 -13t-33 -17t-33.5 -17.5t-25 -14.5q-2 -2 -7.5 -4t-8.5 -4q12 -27 17 -46.5t3.5 -37.5t-7.5 -36.5t-16 -42.5q-14 -23 -28.5 -44t-32.5 -38t-39 -27t-46 -10q-14 0 -27 3.5t-22 14.5q-23 25 -26 54.5t5 58.5q6 18 15 33q22 38 48.5 64.5t55.5 50.5
q-20 28 -39.5 57t-19.5 64q0 19 9.5 43t23.5 46.5t30.5 41.5t31.5 30q12 8 24.5 13t26.5 -1q6 -3 12.5 -4.5t11.5 -3.5t11 -6t6 -11q0 -28 1.5 -45.5t4.5 -30t6 -22t6 -20.5q2 -10 -1 -17t-15 -2q-22 8 -32.5 32t-15.5 44q-1 4 -5 14t-5 14q-8 2 -22 -10.5t-26.5 -31.5
t-18.5 -41t3 -39q4 -6 11.5 -14.5t15 -17.5t15 -17.5t12.5 -13.5q6 -6 8 -6.5t10 2.5q8 4 27 12t41.5 17t45.5 17.5t39 12.5q-1 5 -1 15q0 39 22.5 73.5t51.5 55.5q12 8 24.5 13t26.5 -1q6 -3 12.5 -4.5t11.5 -3.5t11 -6t6 -11v-24.5t1 -19.5h-1q1 -9 2 -16.5t1 -15.5z
M379 74q-10 -6 -26 -19.5t-34.5 -32.5t-37.5 -42.5t-34 -50.5t-23.5 -56t-6.5 -58q20 -6 43.5 7t46 37.5t42 56t31 62.5t12.5 57t-13 39zM91 71q-11 -11 -30 -31.5t-35.5 -44.5t-27 -47.5t-5.5 -40.5q20 9 41 29.5t37 45t22.5 48.5t-2.5 41z" />
    <glyph glyph-name="tt" unicode="tt" horiz-adv-x="587" 
d="M335 -146q6 -19 25 -6.5t44 43t53 72.5t53 82t43.5 71t24.5 39l9 12q8 10 19 18q4 3 9.5 6.5t9.5 3t3.5 -6.5t-7.5 -20l-21 -42t-36 -68.5t-47.5 -81t-55.5 -79.5t-58.5 -64t-57.5 -35q-12 -3 -21.5 -1t-17 8t-14.5 14l-14 16q-9 11 -11.5 34.5t-1 50.5t6.5 53t10 42
t10.5 37t11.5 45t12.5 49.5t12.5 50.5q-27 -44 -62 -97t-72.5 -100t-74 -81.5t-66.5 -41.5q-25 -6 -46 -6.5t-37 15.5q-15 15 -17 43t2.5 59.5t12.5 61t13 45.5q16 52 30.5 102.5t28.5 101.5q15 45 27.5 92.5t25.5 85.5q-20 1 -40.5 0.5t-41.5 -1t-41 0.5t-38 6
q-16 4 -23.5 13t-7 18t10 15.5t27.5 6.5q11 0 36 -1t52 -1t50 1.5t30 4.5q3 1 3 3q6 18 17 49t22 64t21.5 61t15.5 40q4 9 16.5 7.5t26 -8.5t23.5 -17.5t9 -19.5q-2 -13 -9.5 -37t-16.5 -50.5t-18 -51.5t-13 -41q62 2 112.5 2h106.5q2 0 2 2q6 18 13 38t14 39t13.5 36
t11.5 29q4 9 16.5 7.5t26 -8.5t23.5 -17.5t9 -19.5q-3 -26 -14 -51t-19 -57q63 1 108.5 1.5t88.5 0.5q14 0 28 -0.5t21.5 -2.5t3.5 -5.5t-26 -9.5q-63 -20 -122 -30.5t-116 -15.5q-5 -1 -4.5 -2t-2.5 -6q0 -1 -1 -2t-1 -2q-16 -44 -35.5 -104.5t-39 -126t-37.5 -130.5
t-30.5 -118t-18.5 -89t-1 -43zM26 -76q5 -14 20 -8t36.5 26.5t48 51.5t53.5 66.5t53 71.5t47.5 67t36 53t19.5 28l9 12l7 8q15 45 27.5 92t25.5 85q-18 1 -46.5 1h-60t-62 -1t-52.5 -1q-17 -43 -36.5 -98.5t-39 -114.5t-37 -116.5t-30 -105t-18 -79t-1.5 -38.5z" />
    <glyph glyph-name=".notdef" horiz-adv-x="200" 
 />
    <glyph glyph-name="NULL" horiz-adv-x="0" 
 />
    <glyph glyph-name="NULL" horiz-adv-x="0" 
 />
    <glyph glyph-name="nonmarkingreturn" unicode="&#xd;" horiz-adv-x="200" 
 />
    <glyph glyph-name="space" unicode=" " horiz-adv-x="200" 
 />
    <glyph glyph-name="l" unicode="l" horiz-adv-x="261" 
d="M42 -24q5 -10 13.5 -10.5t16.5 4.5q30 26 57 56t51.5 60t48 58.5t45.5 51.5q8 8 12.5 3.5t1.5 -13.5q-14 -23 -28 -44.5t-29 -43.5q-31 -44 -63.5 -94t-71.5 -85q-24 -22 -52 -25q-26 1 -49 16.5t-27 41.5q-6 61 2 123q9 72 29 149t48.5 153t62.5 148t71 134
q17 27 34 51.5t36 45.5q7 9 17.5 13t21.5 -1q22 -10 19 -37q-7 -59 -24.5 -115t-42.5 -108t-56 -100t-66 -91q-3 -3 -4.5 -7t-3.5 -8q-15 -40 -29.5 -88t-25 -93.5t-15 -84.5t-0.5 -60zM288 684q-43 -72 -77 -148l-68 -152q9 9 22.5 30.5t28.5 49t30 59.5t28 62t23 56.5
t13 42.5z" />
    <glyph glyph-name="n" unicode="n" horiz-adv-x="342" 
d="M7 32q-4 -8 -6 -10q-16 -11 -22 6q-2 8 -3 15t-1 15q-1 22 0 44q3 25 12 54.5t21.5 58.5t26 54.5t25.5 41.5q6 9 16.5 10t20.5 -5t16 -17t3 -25q-1 -1 -4 -6t-6 -11t-6 -11.5t-4 -6.5q11 8 22 18t22.5 19t23.5 15.5t26 6.5q17 0 30 -9.5t21.5 -23t10.5 -29t-2 -29.5
q-9 -27 -25 -52.5t-32.5 -50.5t-30.5 -50.5t-20 -52.5q-6 -21 -0.5 -26t14.5 -2t18.5 10t13.5 10q41 32 77 70.5t71 73.5q30 30 37.5 32.5t2 -10t-18 -33.5t-22.5 -37q-12 -20 -33 -48.5t-46.5 -55t-52.5 -45t-50 -18.5q-17 0 -30 7.5t-22 18.5t-13.5 25t-4.5 28
q0 50 20.5 98t43.5 88q11 21 6 29t-29 -3q-20 -9 -37 -32.5t-31.5 -51t-26.5 -54.5t-22 -43z" />
    <glyph glyph-name="o" unicode="o" horiz-adv-x="297" 
d="M210 197q12 1 26 6t26 8q14 4 29.5 9.5t29.5 8.5q10 0 8 -5.5t-9.5 -13t-17 -14.5t-14.5 -10q-24 -11 -47.5 -17t-44.5 -17q-9 -16 -25 -42.5t-35.5 -51.5t-41 -43t-41.5 -18q-28 0 -48 16q-15 10 -22.5 31t-9 45.5t1.5 48t7 38.5q1 7 3 9.5t4 3.5t4.5 2t4.5 4q3 11 6 23
t9 22q17 30 43.5 55.5t61.5 29.5q22 4 40.5 -2t32.5 -23q12 -13 17 -28.5t6 -30t-1 -26.5zM153 187q2 0 4 2t2 4q8 19 7.5 42t-14.5 37q-7 8 -18 9t-21 -4q-20 -12 -32 -28t-23 -33q0 -5 2 -7q10 -9 9 -20q0 -5 11.5 -6t26 -0.5t28 2.5t18.5 2zM64 33q10 2 22.5 14.5
t24 28.5t20 32.5t11.5 27.5q-20 -2 -43 -2t-43 4q-3 -9 -4 -23.5t0 -30t4 -29.5t8 -22z" />
    <glyph glyph-name="s" unicode="s" horiz-adv-x="274" 
d="M57 116q-20 28 -39.5 57t-19.5 64q0 39 22.5 73.5t51.5 55.5q12 8 24.5 13t26.5 -1q6 -3 12.5 -4.5t11.5 -3.5t11 -6t6 -11q0 -28 1.5 -45.5t4.5 -30t6 -22t6 -20.5q2 -10 -1 -17t-15 -2q-22 8 -32.5 32t-15.5 44q-1 4 -5 14t-5 14q-8 2 -19 -5.5t-19.5 -20.5t-11 -30
t6.5 -34q4 -6 11.5 -14.5t15 -17.5t15 -17.5t12.5 -13.5q6 -6 8 -6.5t10 2.5q10 5 30.5 13t43 16t43 13.5t31.5 5.5q7 0 10 -5q3 -3 -1 -8t-10.5 -10t-13.5 -9t-9 -5q-17 -10 -43 -22.5t-45 -24.5q-2 -2 -7.5 -4t-8.5 -4q12 -27 17 -46.5t3.5 -37.5t-7.5 -36.5t-16 -42.5
q-14 -23 -28.5 -44t-32.5 -38t-39 -27t-46 -10q-14 0 -27 3.5t-22 14.5q-23 25 -26 54.5t5 58.5q6 18 15 33q22 38 48.5 64.5t55.5 50.5zM91 71q-11 -11 -30 -31.5t-35.5 -44.5t-27 -47.5t-5.5 -40.5q20 9 41 29.5t37 45t22.5 48.5t-2.5 41z" />
    <glyph glyph-name="u" unicode="u" horiz-adv-x="398" 
d="M438 196h1v-8q-10 -36 -31 -65q-8 -10 -19.5 -28.5t-20.5 -29.5q-21 -23 -39.5 -40.5t-44.5 -31.5q-12 -6 -26.5 -10.5t-29 -4.5t-27.5 5t-22 18q-16 20 -17.5 47.5t9.5 56.5l-6 -6l-9 -9l-9.5 -9.5t-6.5 -5.5q-15 -15 -30 -26t-31 -19q-13 -6 -22.5 -7t-17.5 3.5
t-15.5 13.5t-16.5 21q-13 18 -19.5 35.5t-2.5 37.5q2 7 3.5 14t4.5 13q6 17 14.5 39t17.5 44t17.5 41.5t14.5 31.5q7 18 21 18t25.5 -11t17.5 -29t-3 -35q-5 -12 -15 -34t-20.5 -45.5t-18.5 -44.5t-9 -31q0 -22 8.5 -23t23 11t32 33.5t35.5 45.5t33.5 46.5t26.5 36.5
q14 25 23.5 44.5t28.5 38.5q10 4 24 -1.5t25 -16.5t15.5 -24.5t-2.5 -23.5q-18 -23 -32.5 -39t-27.5 -41q-7 -16 -16 -35.5t-16.5 -40t-12 -40t-2.5 -34.5q0 -17 17 -14q24 4 53 25.5t57 49t52 54t38 39.5z" />
    <glyph glyph-name="v" unicode="v" 
d="M68 83q9 -7 18 3.5t18.5 32t18.5 51t19.5 59t22 57t25.5 45.5q5 9 16.5 15t20.5 2q8 -2 13 -10t3 -17v-12.5t2 -14.5q6 -23 23 -35t38.5 -17t44 -3.5t40.5 6.5q3 0 7.5 1t8 0.5t4.5 -2.5t-4 -7q-19 -20 -42.5 -28.5t-47.5 -7t-47 12.5t-41 29q-9 -19 -24 -52.5
t-33.5 -68.5t-39.5 -63.5t-43 -36.5q-27 -9 -45 1.5t-29 30.5t-15.5 45t-4.5 43v46q0 15 1 28.5t3 28.5q0 11 1 22t3 23q0 5 2.5 7.5t6.5 0.5q29 -5 43 -26t14 -47q0 -15 -2 -34t-3.5 -39t-1.5 -37.5t4 -29.5q0 -2 1 -2h1z" />
    <glyph glyph-name="i" unicode="i" horiz-adv-x="215" 
d="M226 211l12 12h1v-2q2 -23 -4 -34.5t-6 -12.5q-10 -15 -27 -38.5t-35.5 -48t-35.5 -45t-27 -29.5q-12 -14 -26 -26q-5 -4 -13.5 -7t-17.5 -4.5t-17.5 -0.5t-13.5 5q-17 11 -26.5 26.5t-9.5 33.5q-3 55 9.5 112.5t29.5 104.5q5 14 14 29q9 9 21 5t21.5 -16.5t14 -30.5
t-1.5 -36q-5 -17 -9 -32.5t-9 -32.5q-2 -8 -6.5 -23t-9.5 -31.5t-9 -31.5t-5 -23q-2 -15 8 -8t27 24q41 42 78 81.5t73 79.5zM86 331q-7 -7 -10 0q-13 20 -17 42t4 44q4 13 17.5 21.5t24.5 5.5q6 -2 13 -6.5t9 -10.5q7 -27 -7.5 -52t-33.5 -44z" />
    <glyph glyph-name="A" unicode="A" horiz-adv-x="707" 
d="M608 340q23 -3 45 -10t28 -31q4 -16 -12 -27q-18 -9 -36.5 -12t-38.5 -6q-1 0 -3 -2t-2 -4q-23 -76 -37 -158.5t-31 -160.5q-2 -5 -5 -10t-8 -5q-7 0 -10 4t-5 9q-19 88 -19 176q2 36 6 71t12 69v3q-5 2 -26 2.5t-46 0t-47.5 -1t-31.5 -0.5q-6 0 -23 -10
q-41 -28 -76.5 -61.5t-71.5 -64.5t-76 -55.5t-89 -34.5q-14 -2 -26 10q-5 5 0.5 12.5t13.5 13.5q60 43 116 91.5t110 97.5q2 2 4 3.5t7 5.5q-44 6 -84.5 16.5t-82.5 18.5q-14 5 -28 9t-27 11q-7 8 0.5 9.5t12.5 1.5q15 2 28.5 3.5t28.5 3.5q64 1 117.5 4t106.5 3q5 0 8.5 2
t7.5 4q45 42 83.5 86t74 90t68.5 93.5t67 95.5q16 23 44 16q8 -3 15 -12.5t7 -20.5q-8 -90 -29.5 -173.5t-38.5 -167.5q0 -2 -0.5 -4.5t-0.5 -3.5zM541 467q-12 -14 -29 -31l-35 -35t-34.5 -35.5t-27.5 -30.5h1q17 0 45 1.5t45 1.5q1 0 2 1l2 2q11 32 17 63.5t14 62.5z" />
    <glyph glyph-name="B" unicode="B" horiz-adv-x="715" 
d="M372 412q6 0 11 1.5t11 1.5q30 0 67.5 16t69 40t51 53t14.5 56q-14 31 -42.5 47t-66.5 20.5t-80.5 -1t-84 -17t-78 -28t-60.5 -34.5q-11 -4 -12.5 5.5t2 23t10 27t11.5 19.5q13 26 33 41t44 24q39 14 98 18t118 -5.5t106.5 -33.5t64.5 -66q10 -33 5.5 -64.5t-19 -58.5
t-37.5 -50t-50 -40q-2 -2 -4 -3l-6 -3q17 -7 32 -13.5t29 -17.5q17 -13 29 -31.5t16 -37.5q10 -33 4 -65.5t-17 -59.5q-15 -30 -35.5 -58.5t-44.5 -48.5q-62 -69 -140.5 -106.5t-166.5 -48.5q-30 -1 -56 1t-48 11t-40 26t-32 46q-20 30 -34.5 61.5t-19 62.5t4.5 58t36 48
q19 17 39.5 30.5t46.5 18.5q5 2 8.5 3.5t8.5 1.5h3q-5 -5 -8 -10t-6 -8q-17 -21 -33 -47t-24.5 -54t-7.5 -56t17 -51q14 -20 33.5 -30.5t42 -14t45.5 -2t44 4.5q68 13 123.5 46t102.5 80q12 14 25.5 31.5t25 36t20 38t11.5 37.5q-5 28 -18.5 42.5t-36.5 19.5t-55.5 3.5
t-74.5 -5.5q-14 -2 -29 -2.5t-30 -2.5q-1 0 -3 -2q-1 -1 -2 -1q-32 -60 -61 -122t-71 -115q-2 -3 -9.5 -13.5t-16 -19t-16.5 -10t-10 13.5q-5 10 -4 26.5t5 34.5t9.5 34.5l8.5 25.5q5 18 10 35.5t12 34.5q22 44 41.5 87t42.5 85q12 26 24.5 51t25.5 49q9 14 23 14.5t26.5 -8
t21 -23t6.5 -31.5q-5 -20 -13 -37.5t-16 -34.5z" />
    <glyph glyph-name="C" unicode="C" horiz-adv-x="611" 
d="M490 659q-2 0 -7 -3t-11 -6.5t-11 -6.5t-6 -3q-14 -8 -27.5 -15t-25.5 -15q-58 -37 -108.5 -79t-92.5 -91q-28 -32 -52 -68.5t-41.5 -76t-27 -80.5t-8.5 -82q1 -30 7 -56.5t20 -40.5q22 -21 52.5 -19.5t66 18t74.5 45.5t76.5 63.5t72 72t62.5 71.5q7 6 13.5 17t14.5 18
q8 5 13.5 -3t5.5 -16q-2 -43 -18.5 -78.5t-39.5 -65.5q-28 -36 -66 -71.5t-81 -64.5t-89 -47t-89 -18q-38 0 -65.5 13t-47 34.5t-32 49.5t-19.5 59q-2 9 -3.5 20.5t-1.5 22.5q0 52 10.5 96.5t25.5 86.5q6 19 16 37q29 61 74.5 117.5t101 103t117.5 81.5t125 53q17 6 33 0
q5 -2 10 -2t11 5q15 9 31.5 1t18.5 -28q3 -28 -7 -55q-7 -24 -14.5 -45t-15.5 -42.5t-15 -46.5t-12 -57q-1 -5 -3.5 -11.5t-5.5 -8.5q-5 -9 -13.5 -10.5t-15.5 6.5q-2 3 -4.5 6t-4.5 7q-10 23 -12.5 52t1 58.5t14 55t26.5 42.5z" />
    <glyph glyph-name="D" unicode="D" horiz-adv-x="691" 
d="M203 92q-3 0 -3 2q-15 15 -18.5 37t0 47t12.5 51t18 49q36 88 70 180t61 171q-45 -11 -85 -29t-69 -50q-7 -7 -17.5 -20t-19.5 -27.5t-14.5 -29t-3.5 -23.5q-2 -9 -9.5 -4t-15.5 17t-13.5 27.5t-2.5 28.5q11 47 38.5 80.5t64.5 56.5t79 36t82 19q32 6 71.5 8t79 -2
t75 -15.5t60.5 -32.5q55 -35 76 -87.5t16 -110.5q-15 -65 -53.5 -127.5t-89.5 -116.5t-110 -97.5t-114 -71.5q-7 -5 -14.5 -8.5t-16.5 -8.5q-44 -21 -83 -32.5t-77.5 -15t-78.5 1.5t-85 19q-11 6 -11 10t10 11q10 5 20 8t20 4q39 11 77.5 18.5t73.5 23.5v3zM225 99
q15 1 35 9t41 19t40 22.5t31 19.5q85 60 158.5 131.5t117.5 164.5q6 13 11 26.5t7 27.5q5 31 -5 52.5t-29 36t-45 22.5t-53 11.5t-52.5 3t-43.5 -2.5q-3 0 -3 -7v-12q-42 -137 -91.5 -268.5t-118.5 -255.5z" />
    <glyph glyph-name="b" unicode="b" horiz-adv-x="381" 
d="M96 118q20 -14 42 -12t41 14t32 32t15 42q-34 -15 -67.5 -35.5t-62.5 -40.5zM48 126q12 0 18 5.5t13 10.5q23 24 51.5 42.5t59.5 33.5q15 6 25 13h-8q-3 -2 -6 -2.5t-8 -2.5q-76 -27 -136 -86q-3 -2 -4 -6t-5 -8zM74 204q19 14 37.5 24t36.5 20q16 9 37 15.5t40.5 7
t35.5 -7.5t24 -29q0 -6 2 -7t6 -1q34 0 68.5 -5.5t55.5 -20.5q7 -5 6 -7t-5.5 -3t-10.5 -1h-7q-23 2 -43.5 5.5t-41.5 3.5h-22q-5 -31 -18 -65t-34 -62.5t-50 -46.5t-65 -16q-24 -1 -39.5 7t-25 20.5t-15 27.5t-8.5 28q0 -2 -2 -3.5t-2 -3.5l-14 -40t-15.5 -42.5t-19 -48
t-23.5 -56.5q-2 -5 -4 -6t-5 -3q-5 -4 -10.5 -3t-7.5 6q-3 48 4.5 97.5t20 98.5t28 96t28.5 91q35 101 74 187.5t83 171.5q18 33 35.5 65t40.5 58q7 9 17.5 13t21.5 -1q22 -10 19 -37q-5 -38 -13.5 -76.5t-23.5 -75.5q-30 -72 -67 -137.5t-85 -124.5q-6 -6 -12 -21
t-11.5 -32t-10.5 -33.5t-10 -26.5zM286 684q-43 -72 -77 -148l-68 -152q9 9 22.5 30.5t28.5 49t30 59.5t28 62t22.5 56.5t13.5 42.5z" />
    <glyph glyph-name="d" unicode="d" horiz-adv-x="458" 
d="M204 277q0 2 1 3q0 1 1 1q31 66 61.5 127.5t62 118.5t66 110t73.5 103q22 25 35.5 22t20 -20.5t7.5 -41.5t-1 -39q-15 -62 -40.5 -124t-57.5 -123.5t-69 -122.5t-75 -122q-5 -6 -7.5 -12.5t-4.5 -14.5q-2 -9 -4.5 -25.5t-3 -34.5t2.5 -33t11 -19q12 -6 35 2.5t49 25.5
t52.5 39t45.5 42q2 2 6 -0.5t6.5 -7.5t2 -11.5t-7.5 -12.5q-23 -20 -56.5 -50.5t-70 -56.5t-71.5 -39.5t-60 -0.5q-23 12 -32.5 38.5t-10.5 58t2.5 62t6.5 48.5q-2 -2 -3.5 -5.5t-3.5 -6.5q-14 -16 -32 -38.5t-39.5 -41.5t-45.5 -29t-49 -1q-14 8 -24.5 19.5t-10.5 30.5
q0 37 14.5 75t39.5 67.5t59 47t73 14.5q11 -2 22.5 -5.5t19.5 -12.5zM496 625q-63 -97 -112 -199t-86 -211q23 42 54.5 96t61.5 110.5t53 110t29 93.5zM47 126l2 -3q34 27 68.5 53.5t71.5 52.5q-21 10 -45.5 2.5t-46 -25t-36 -40t-14.5 -40.5z" />
    <glyph glyph-name="e" unicode="e" horiz-adv-x="266" 
d="M-27 89q-2 38 8 79t30 75.5t50.5 56.5t71.5 23q21 -5 32.5 -21t6.5 -39q-4 -22 -11.5 -37.5t-25.5 -32.5q-9 -8 -25 -21t-31 -27t-26 -28.5t-11 -24.5q-3 -26 8 -33.5t28.5 -6t35.5 9.5t29 14q13 9 29 22.5t32 28.5t31 29t25 23q8 8 14.5 15t15.5 12q8 2 12.5 1t-1.5 -15
q-8 -17 -19.5 -32t-24.5 -30q-18 -20 -38.5 -42t-43 -40.5t-47 -32t-50.5 -17.5q-46 -3 -75.5 19t-29.5 72zM133 277q-27 -10 -42.5 -26t-22.5 -47q22 16 39.5 32.5t25.5 40.5z" />
    <glyph glyph-name="f" unicode="f" horiz-adv-x="253" 
d="M85 164q50 -13 98 -11.5t99 5.5q10 0 9 -4.5t-3 -5.5q-46 -25 -91.5 -32t-95.5 4q5 -27 8.5 -62t3 -72.5t-4.5 -74t-13.5 -67t-25 -52.5t-37.5 -29q-17 -1 -32.5 2t-24.5 20q-23 45 -22.5 91t4.5 91q12 84 33.5 170t50.5 167.5t64.5 154.5t76.5 132q9 11 20 19.5t26 6.5
q14 0 21.5 -10.5t2.5 -23.5v-16q0 -26 -1.5 -54t-9.5 -55q-24 -87 -65 -155.5t-90 -133.5q0 -2 -1 -5zM95 226q25 30 48 70.5t41.5 84t31.5 86.5t19 80q-18 -23 -39.5 -68t-41.5 -94t-36 -93t-23 -66zM24 -125q9 -3 16.5 10.5t12.5 36.5t7.5 51.5t3 55t-2 47t-7.5 27.5
q-11 -57 -21.5 -112.5t-8.5 -115.5z" />
    <glyph glyph-name="E" unicode="E" horiz-adv-x="624" 
d="M93 -4q-14 5 -26 12.5t-21 18.5q-14 12 -21 26.5t-14 28.5q-6 17 -7 34t1 35q3 20 10 38t16 35q24 40 59.5 71.5t74.5 53.5q2 2 3 2.5t3 2.5q-6 5 -10.5 9t-9.5 9q0 2 -1.5 3.5l-3.5 3.5q-11 18 -11.5 37.5t6.5 39.5q12 35 36.5 69t57 65.5t70 58.5t75 47.5t73 33.5
t63.5 15q32 3 54 -11q14 -7 26 -16.5t10 -26.5q-8 -51 -11 -99.5t-3 -98.5q-2 -6 -2 -11t-7 -7q-15 -5 -29 9q-20 19 -29 40.5t-11 44t2 45.5t11 46q-2 5 -20 2q-23 -4 -51.5 -17t-60 -31.5t-62 -41t-57 -46t-46 -47t-27.5 -42.5q-6 -14 -1.5 -24t26.5 -10q21 0 42 4.5
t46.5 13.5t58 23t76.5 34q15 4 16.5 -6t-2.5 -23.5t-11 -26t-10 -15.5q-16 -13 -37 -23.5t-43.5 -20.5t-44 -20.5t-38.5 -22.5t-41 -29t-49.5 -37t-49 -43t-39.5 -46.5t-20.5 -47t7.5 -45.5q7 -13 24.5 -17t40.5 -1.5t50.5 10t55.5 18.5q75 29 139.5 62.5t121.5 74.5
q10 7 18 15q2 3 5 -2t5 -13.5t3.5 -19t1.5 -20.5q-3 -34 -28 -60t-61 -46q-42 -24 -88 -43.5t-93.5 -31.5t-96 -13.5t-94.5 11.5z" />
    <glyph glyph-name="F" unicode="F" horiz-adv-x="506" 
d="M16 324q-9 3 -10.5 11t4.5 13q17 17 43.5 30t49.5 13l6 6q22 48 40.5 94.5t45.5 88.5q-24 6 -49 13.5t-49.5 16.5t-47 20.5t-41.5 27.5q-1 0 -6.5 4.5t-9.5 9.5t-4 8.5t11 2.5q14 -2 27.5 -6t26.5 -7q56 -13 118.5 -16.5t123.5 4t117 27.5t100 56q13 10 19 26q5 16 16 14
t20.5 -14.5t14 -32.5t-2.5 -40q-12 -32 -35.5 -52.5t-52.5 -33t-60.5 -19t-61.5 -9.5q-27 -3 -42.5 -4.5t-24 -2.5t-12 -1h-5.5q-5 0 -7 -4l-16 -36t-16 -34q-11 -26 -21.5 -51t-22.5 -50h10q69 0 114 2.5t74.5 5t47 3t30.5 -2.5q9 -3 8 -17t-8.5 -29.5t-19 -28t-21.5 -12.5
q-67 -3 -131.5 -3h-127.5q-7 0 -7 -8q-11 -27 -21 -59q-5 -16 -10.5 -34t-12.5 -49t-15 -80.5t-18 -128.5q0 -6 -2 -9q-6 -10 -17 -5q-12 5 -20.5 20t-13.5 34.5t-7.5 42t-2.5 43.5q-3 60 12.5 118t31.5 111q-10 1 -27 3t-32 10z" />
    <glyph glyph-name="G" unicode="G" horiz-adv-x="614" 
d="M279 166q46 34 83.5 64t76.5 69l3 3q-26 -4 -52.5 -9t-52.5 -9q-8 -1 -18.5 1.5t-20.5 9.5t-17 18t-8 28q0 11 5 14t16 3q40 -2 79.5 3.5t77.5 13.5q11 2 28 6.5t34.5 8.5t33 6.5t24.5 1.5q15 -2 15 -16.5t-2 -31.5q0 -7 -2.5 -13t-5.5 -11q-36 -37 -60.5 -70t-44 -71
t-37.5 -85t-41 -111q-2 -5 -3.5 -11.5t-4.5 -11.5t-7.5 -6.5t-9 -1t-8.5 3.5t-5 7q-12 36 -12.5 69t2.5 68q-73 -47 -134 -60t-118 13q-42 22 -68 66q-22 35 -27.5 74.5t-2.5 78.5q6 65 38 119t68 101q56 60 115.5 109.5t128.5 86.5q35 18 73 28q6 2 12 7.5t13 10.5
q14 12 30 7q17 -5 26.5 -18.5t-0.5 -31.5q-19 -39 -39.5 -80.5t-40.5 -80.5q-5 -12 -11.5 -25.5t-12.5 -22.5q-11 -11 -20 -2t-13 21q-5 10 -7 24t-2 28.5t2.5 28t7.5 23.5q-65 -46 -123.5 -97.5t-99 -109.5t-56.5 -122t4 -135q10 -27 34.5 -32t53 2t56.5 21.5t47 27.5z" />
    <glyph glyph-name="H" unicode="H" horiz-adv-x="612" 
d="M423 359q-60 -10 -110.5 -20.5t-101.5 -21.5q-3 0 -5.5 -1.5t-1.5 -4.5q-17 -33 -34 -74.5t-33 -85t-30.5 -85.5t-27.5 -76q-4 -9 -9 -24.5t-10 -30.5t-10 -25t-8 -7q-9 -1 -16 7t-12 21q-14 37 -8.5 82t20.5 92.5t34.5 94.5t33.5 86l-28 -4q-12 -5 -26.5 3.5t-24.5 21.5
t-13 26.5t8 19.5q-2 -2 11 1.5t32.5 8.5t41.5 11t38 11q8 2 11 8t8 14q8 13 22 39.5t30 58.5t31.5 65t28 60.5t19.5 45t6 17.5l-8 -1q-11 -4 -29.5 -13t-40.5 -22t-45 -28.5t-42.5 -30.5t-34 -29t-19.5 -24q-21 7 -20.5 25t10 37.5t22.5 36t19 21.5q17 14 41.5 30.5t51 29.5
t53 21t48.5 5h2q21 0 39 -17.5t22 -36.5q5 -20 1 -39t-11 -39q-20 -42 -34 -73t-24.5 -54t-19 -41.5t-17.5 -34.5h2q33 7 58 11.5t48.5 7.5t48.5 5.5t58 5.5q11 0 13 9q20 53 41.5 101t44.5 96l12 28q7 15 19 14.5t23 -9t18.5 -21t6.5 -22.5q-3 -14 -7.5 -19.5t-7.5 -18.5
q-17 -45 -33 -85t-35 -78q2 0 4 -0.5t4 -0.5q6 -1 24 -5t33 -9q9 -4 12.5 -11.5t2 -14.5t-7 -12.5t-14.5 -5.5q-17 -1 -26.5 -2t-17 -2t-15.5 -2.5t-23 -3.5q-8 -4 -8 -7q-19 -46 -39 -99t-39.5 -107.5t-37.5 -107t-34 -98.5q-5 -12 -15 -9t-18 14q-10 12 -9 42.5t7 65
t14 65.5t12 45q15 57 34.5 104.5t33.5 80.5q-4 0 -8 -0.5t-9 -1.5z" />
    <glyph glyph-name="g" unicode="g" horiz-adv-x="407" 
d="M58 99q6 -6 22.5 3.5t36 24.5t40.5 31.5t36 25.5q6 4 19.5 10t28 9t26.5 1t14 -14q2 -18 2.5 -36t2.5 -38v-10q20 15 41.5 28.5t41.5 25.5q23 13 44.5 25.5t44.5 20.5l2 -1v-1q-2 -2 -2.5 -3t-2.5 -3q-18 -20 -35.5 -36.5t-35.5 -33.5q-21 -21 -39.5 -36.5t-40.5 -35.5
q-16 -16 -22.5 -32t-11.5 -37q-20 -65 -41.5 -139t-51.5 -143.5t-72.5 -127.5t-102.5 -90q-15 -2 -29.5 0.5t-27.5 13.5q-21 18 -28 43t-5.5 52.5t9.5 54.5t17 47q25 57 57.5 107.5t70 95.5t79.5 85.5t86 78.5q4 4 7.5 17.5t5 26t-0.5 20t-10 -0.5q-20 -16 -42.5 -32
t-46.5 -28t-49 -19t-50 -4q-23 4 -36 16.5t-18.5 29t-5.5 36t5 37.5q9 37 31 66t59 40q57 18 110 -4q11 -5 19.5 -10t11.5 -15q10 -22 -16 -19q-11 2 -22.5 3t-21.5 1q-31 0 -52.5 -15.5t-34 -36.5t-16.5 -42t0 -33zM187 -32q-31 -34 -62.5 -68.5t-59 -70.5t-50.5 -75.5
t-38 -83.5q-9 -29 -12.5 -55.5t3.5 -54.5q20 10 40 35t37.5 55t31.5 58.5t23 46.5q7 14 21.5 44.5t29 64t25.5 63t11 41.5z" />
    <glyph glyph-name="h" unicode="h" horiz-adv-x="450" 
d="M222 207q-38 -29 -73.5 -56.5t-64.5 -62.5q-17 -21 -31.5 -43.5t-23.5 -45.5q-8 -10 -19 -4q-24 18 -33 46t-8.5 59.5t7 62t13.5 53.5q16 58 36.5 119.5t44 121.5t49 116t49.5 104q13 25 28 44t31 31q9 7 18.5 7.5t17.5 -3.5t13.5 -11.5t6.5 -15.5q6 -43 -9 -99
t-41 -112.5t-57.5 -106t-59.5 -78.5q-4 -4 -4 -6q-16 -42 -28 -82t-26 -80q-2 -11 -4.5 -23t-2.5 -24q11 15 26 29q31 30 65 57t73 47q16 8 31.5 12.5t31.5 -0.5q13 -3 26 -10q14 -10 14.5 -21t-3.5 -25q-10 -37 -25.5 -81t-29.5 -83.5t-24 -68t-8 -34.5q5 -10 19.5 -1
t35 29t45 48t49 56.5t47.5 54t39 40.5q13 13 22 11t3 -21q-8 -14 -26 -40.5t-42.5 -58.5t-52.5 -65t-55.5 -60t-52.5 -44.5t-43 -17.5t-33.5 7t-26.5 19.5t-16.5 29t-3.5 36.5q1 8 3 16.5t5 20.5q11 29 20.5 58t20.5 58q16 42 42 87v2q0 2 -5 2zM120 368q9 7 25.5 30t34 55
t35 68.5t30 70.5t18 61t-1.5 40q-11 -24 -30.5 -68.5t-40.5 -93.5t-40.5 -94t-29.5 -69z" />
    <glyph glyph-name="j" unicode="j" horiz-adv-x="181" 
d="M215 224q-32 -41 -70 -73.5t-74 -68.5q-4 -5 -7.5 -10t-3.5 -12q-12 -117 -42 -228.5t-85 -213.5q-17 -33 -39 -62t-51 -50q-25 -17 -51 -25t-55 -5q-20 3 -38 16t-28 29q-20 38 -14 85t28 96t55 97.5t67.5 91t65.5 75.5t48 51q17 17 33.5 34.5t31.5 34.5q6 8 8.5 32.5
t3.5 53t0.5 54.5t-0.5 38q5 14 18 15.5t27 -6t25.5 -21t13.5 -28.5q1 -11 0.5 -17.5t-2.5 -12.5t-3.5 -12.5t-1.5 -16.5q8 5 13.5 9.5t11.5 8.5q22 14 45 30t45 29q8 4 17.5 7t15 2t5 -7t-12.5 -20zM-60 -32q0 -2 -2 -2q-31 -42 -63.5 -81.5t-62.5 -80.5t-55 -85t-40 -94
q-8 -24 -6 -40t11 -22.5t24 -2t33 22.5q41 37 67 84t43 98.5t28 103.5t23 99zM52 312q-4 -4 -8.5 -3.5t-6.5 5.5q-9 16 -15.5 30t-6.5 27q2 14 10.5 25t21.5 18q16 7 31 -1t17 -23t-2 -26.5t-10.5 -21.5t-15 -17t-15.5 -13z" />
    <glyph glyph-name="k" unicode="k" horiz-adv-x="356" 
d="M76 182q5 8 18.5 24t32.5 35t41 38.5t43 35t39 25.5t29 9q9 0 15.5 -4.5t10 -10t2.5 -10t-8 -5.5q-11 -2 -33 -18t-45 -37t-42 -41t-23 -28q16 -7 22.5 -29.5t8 -53t0 -63.5t-0.5 -61t6.5 -46t19.5 -17q6 0 18.5 12.5t28 32t32.5 43.5t32.5 47.5t27.5 43.5t19 32
q7 13 12 11t3 -11q-4 -19 -11 -36t-16 -32q-7 -13 -19.5 -34.5t-29 -45t-35 -46.5t-39 -39t-41 -22t-39.5 5q-19 5 -28.5 23.5t-13 44t-3 54.5t2.5 57t3.5 52t-0.5 37q-19 -10 -35.5 -38t-29 -60.5t-20.5 -62t-10 -41.5q-1 -5 -1 -9t-2 -9q-3 -11 -8 -13.5t-10 0t-9 9
t-7 12.5q-6 16 -8.5 38.5t-2.5 45.5t1 43.5t3 31.5q5 38 17 92t30.5 115t41.5 125t50.5 123.5t57.5 110.5t62 85q10 10 23.5 7.5t24.5 -12t16.5 -23.5t-0.5 -26q-10 -21 -22.5 -61.5t-34.5 -97.5t-56.5 -128.5t-87.5 -152.5q-10 -20 -15 -37.5t-8 -38.5zM107 295
q15 23 32 57t35 72.5t35 78t31 75t23.5 63.5t13.5 43q-20 -36 -42 -80.5t-44.5 -94t-44 -104t-39.5 -110.5z" />
    <glyph glyph-name="m" unicode="m" horiz-adv-x="555" 
d="M163 214q-42 -47 -78.5 -95t-71.5 -96q-8 -7 -14 -6t-10.5 6t-7 12.5t-3.5 13.5q-2 18 0 39.5t4 27.5q4 17 10.5 39t13.5 44.5t13.5 44t12.5 38.5q4 12 14 14.5t19.5 -3t15 -18.5t1.5 -33t-9 -40t-9 -39q29 32 57.5 66.5t55.5 68.5q13 9 27 4t21 -22q8 -18 7 -37t-5 -36
q29 30 68 59t76 44q18 7 33 2t26 -18.5t16.5 -33t4.5 -40.5q-12 -25 -23 -48.5t-20 -46.5t-14.5 -46t-4.5 -47q7 -5 23.5 6t37.5 29t43.5 38t39.5 34q49 39 54 33t-28 -45q-32 -38 -67.5 -75t-75.5 -64q-13 -9 -30 -9.5t-33.5 6t-28.5 20t-14 33.5q-3 26 3.5 55t17.5 57.5
t25 55.5t26 50q-3 8 -22.5 -5.5t-47.5 -37.5t-59 -54t-57 -55q-11 -10 -16.5 -12.5t-9.5 -2.5q-10 0 -13 16.5t-2.5 38t3.5 42t5 28.5z" />
    <glyph glyph-name="K" unicode="K" horiz-adv-x="576" 
d="M306 306q15 -47 38.5 -101t55.5 -102t73 -83t91 -43q15 -2 29 -1.5t22 6.5q3 2 5.5 1t2 -4t-5 -8.5t-16.5 -13.5q-50 -34 -91.5 -34t-77 22t-65 60.5t-53.5 83t-43.5 89.5t-35.5 78q-18 -15 -48.5 -49t-60.5 -76.5t-52.5 -88.5t-25.5 -84q-2 -16 -12.5 -7t-21 32
t-15 55.5t5.5 63.5q22 67 51.5 130.5t62.5 124t67 119.5t65 119q7 14 16 30t8 28q0 5 -13.5 2t-33.5 -12.5t-45 -23.5t-49 -31.5t-43.5 -37.5t-29.5 -41q-27 4 -37 20t-7.5 36.5t16 41t33.5 34.5q28 19 54.5 32t64.5 29q31 12 63 19.5t52 -1.5q20 -8 31.5 -26.5t23.5 -44.5
q6 -12 5 -25.5t-5 -27t-10.5 -27t-12.5 -25.5l-132 -225q26 25 60 56.5t72.5 63.5t80 61.5t84 50.5t84 31t80.5 3q7 -1 17.5 -7t18.5 -13t9.5 -13t-9.5 -7q-4 0 -14 -2q-46 -9 -100 -34.5t-106 -59t-97 -71.5t-74 -72z" />
    <glyph glyph-name="L" unicode="L" horiz-adv-x="751" 
d="M311 609q-6 -3 -20 -7t-30 -7t-31 -4t-23 2t-5.5 11t20.5 23q41 28 79.5 52t80.5 38q18 6 34 -1t27.5 -21.5t17.5 -34t3 -37.5q-1 -4 -3.5 -6.5t-4.5 -6.5q-32 -56 -69 -123t-73 -139.5t-68.5 -146.5t-54.5 -144l-3 -16q58 11 126 23t136.5 15t132 -8.5t112.5 -47.5
q4 -3 8 -8.5t6 -12t0.5 -11.5t-8.5 -6q-80 16 -161.5 17.5t-162.5 -7t-159.5 -26.5t-150.5 -41q-9 -3 -20.5 -4t-22.5 1.5t-20 8.5t-12 16q-5 14 2 27.5t21 18.5q22 8 44 15t43 13q11 3 12 13q14 84 44.5 170t67 165.5t73.5 147.5t66 115q-14 -6 -27 -13t-27 -13z" />
    <glyph glyph-name="M" unicode="M" horiz-adv-x="861" 
d="M345 291q10 37 25.5 76.5t33 78.5t35.5 76t34 70q-47 -29 -94.5 -70t-92.5 -91t-85 -108t-71.5 -120.5t-51.5 -128.5t-25 -133q-5 -11 -12 -11.5t-16 1.5q-23 6 -30 33.5t-4 64t12.5 75.5t18.5 69q25 80 54.5 149t61.5 135t64.5 132t63.5 141q6 6 20.5 1.5t29.5 -14.5
t27 -23.5t12 -25.5q0 -13 -12 -38.5t-28.5 -56t-34 -63t-28.5 -59.5q61 66 123 126t134 105q17 9 32.5 4t25.5 -18.5t14 -32t-2 -35.5q-8 -19 -20 -48.5t-25 -61.5t-25 -62t-19 -48q31 40 77 85t94 86.5t92 76t73 54.5q14 10 30.5 -2t28.5 -31.5t15.5 -39.5t-6.5 -26
q-48 -82 -84.5 -152t-62 -140t-38 -144t-12.5 -163q0 -5 -5 -6.5t-8 -1.5q-17 1 -28.5 5t-20.5 11q-30 24 -34.5 72t8 107t36.5 124t51.5 123.5t53.5 104.5t41 68q-45 -27 -95.5 -72.5t-100 -97.5t-94 -106t-75.5 -97q-10 -4 -24.5 -0.5t-28 13.5t-22 25t-6.5 35z" />
    <glyph glyph-name="N" unicode="N" horiz-adv-x="643" 
d="M624 591q-84 -48 -161 -111t-146 -133t-129 -144t-110 -144q-10 -14 -15.5 -27.5t-12.5 -25.5q-6 -11 -14.5 -7t-16.5 16.5t-13.5 29.5t-5.5 32q4 92 17.5 169.5t33.5 150t45 144t51 152.5q5 16 15 19t21.5 -2t23.5 -16.5t21 -25.5t13.5 -28t2.5 -24q-10 -39 -27 -79
t-39 -92.5t-47 -124t-52 -172.5q51 58 113 132t135.5 147t158.5 138t182 106q15 7 28 -1.5t24 -19.5q16 -14 14.5 -33.5t-8.5 -33.5q-41 -68 -76.5 -148t-64 -164t-49.5 -167t-32 -156q-2 -16 -3 -28.5t-1 -31.5q0 -13 -9 -13q-6 0 -12 7.5t-10 17.5q-17 45 -18.5 101.5
t7 117.5t26.5 125t40.5 126t48.5 118.5t51 102.5z" />
    <glyph glyph-name="P" unicode="P" horiz-adv-x="850" 
d="M-4 420q1 55 25 99t63.5 77.5t90 57t104.5 38t107 21.5t97 7q46 0 96 -7t96 -21.5t85.5 -38t64.5 -57t32.5 -78t-9.5 -101.5q-17 -54 -58 -98t-95 -76.5t-115.5 -53.5t-120 -28t-108.5 -0.5t-80 28.5q-12 -26 -25 -53t-25.5 -58.5t-25 -68.5t-23.5 -82q-2 -6 -4 -12.5
t-5 -10.5t-7 -3.5t-8 9.5q-14 26 -16 67t4.5 86t19.5 88t29 75q4 6 6 12t-4 11q-37 -3 -70 10t-59 37t-42.5 56.5t-19.5 67.5zM682 365q54 47 75 87.5t16.5 73.5t-30.5 58.5t-64.5 42.5t-87 24.5t-97.5 5.5q-63 -3 -127.5 -17.5t-118 -40t-91 -63t-46.5 -86.5
q-8 -42 13.5 -85t80.5 -76q25 58 41 92.5t25 54t13.5 28.5t8.5 16q9 13 25.5 9t31 -17.5t22.5 -33t0 -37.5q-11 -24 -21 -43.5t-19 -38t-19 -38t-21 -43.5q40 1 92.5 9t106.5 23.5t104 39t87 55.5z" />
    <glyph glyph-name="p" unicode="p" horiz-adv-x="417" 
d="M66 134q-29 -65 -52.5 -125.5t-44.5 -119t-41.5 -117t-44.5 -120.5q-1 -3 -2.5 -8t-5.5 -10q-6 -8 -9.5 -8t-5.5 3q-12 16 -15.5 43t1.5 53q9 48 24.5 101t34 107.5t39.5 110t42 108.5q25 60 47 111t44 100q8 12 21 9.5t24 -13.5t17 -27t2 -30q-12 -32 -26.5 -59
t-25.5 -56q35 34 70 65t80 42q20 3 32.5 -2t20 -15t11 -24t5.5 -28q1 2 3.5 1.5t4.5 1.5q32 9 65 13t65 4q16 2 23 -5t-9 -12q-18 -5 -38 -9.5t-40 -10t-38.5 -11.5t-32.5 -15q-13 -8 -23 -30q-12 -29 -35 -56.5t-51.5 -48.5t-60 -32t-61.5 -6q-18 5 -24 21.5t-8 33.5
q0 18 15 18q5 3 8 4.5t6 6.5q10 18 26 33q32 27 67.5 46t70.5 32q14 4 16 7t4 17q-2 20 -17.5 27t-47.5 -10q-15 -9 -32.5 -23t-35 -29.5t-33.5 -31t-29 -27.5zM96 85q10 -5 29 0t39 16t37.5 26t26.5 30q-35 -14 -67.5 -31.5t-64.5 -40.5z" />
    <glyph glyph-name="q" unicode="q" horiz-adv-x="360" 
d="M136 -47q-4 -69 -16 -146.5t-31.5 -143.5t-46 -110.5t-59.5 -47.5q-27 -2 -44 12t-19 40q-3 48 11 105.5t37 115t50 110t49 91.5l9.5 19t14 27.5t14 28t10.5 19.5q-14 -3 -29.5 -6t-30 -2t-27.5 7t-22 20q-17 30 -10.5 69.5t29.5 75t59.5 59t78.5 22.5q25 -1 43.5 -10.5
t27 -20t7 -18.5t-16.5 -5q-38 7 -72 -8.5t-58 -41t-36 -53.5t-6 -45q3 -5 9.5 -4t13.5 3q18 7 34.5 20t31 28.5t27 32t22.5 30.5q4 7 13 15.5t19 13t18.5 2t11.5 -17.5q2 -22 -2 -44t-17 -45q-10 -15 -21.5 -34t-23 -39.5t-21 -40.5t-14.5 -36q50 21 111.5 73.5t119.5 119.5
q7 9 9 3t0.5 -16.5t-5.5 -21.5t-7 -13q-47 -70 -111 -120t-134 -72zM-6 -454q17 4 33 31.5t30 66.5t25 84t19 84.5t11.5 68t2.5 34.5q0 4 -2 2q-8 -15 -20 -47.5t-25.5 -73t-27 -83.5t-24.5 -79.5t-17 -60.5t-5 -27z" />
    <glyph glyph-name="r" unicode="r" horiz-adv-x="351" 
d="M241 287q-38 -17 -70 -50.5t-60.5 -74.5t-55.5 -85t-54 -82q-8 -9 -19 -5t-14 15.5t2 24.5q7 24 13.5 54t12.5 63t12.5 66t13.5 63q2 8 9.5 12.5t16.5 5t16 -3.5t9 -12q4 -20 -2.5 -48t-14.5 -55q18 22 39.5 51.5t47 55t54 42t59.5 13.5q16 -5 25.5 -16.5t14.5 -26
t5.5 -28.5t-2.5 -24q-7 -14 -16.5 -30.5t-15 -33.5t-4.5 -33.5t16 -29.5q6 -8 -1 -12t-19 -4.5t-24 2.5t-17 9q-16 22 -19.5 44.5t1.5 45.5t16 45t25 42z" />
    <glyph glyph-name="t" unicode="t" horiz-adv-x="272" 
d="M26 -76q6 -19 24.5 -12t43 30t51.5 56t51.5 65t42.5 58t24 34q5 8 11.5 15t16.5 15q4 3 9.5 6.5t9.5 3t3.5 -6.5t-7.5 -20q-6 -12 -19 -36.5t-32 -55t-42 -63t-49.5 -60.5t-54 -49t-55.5 -27q-25 -6 -46 -6.5t-37 15.5q-15 15 -17 43t2.5 59.5t12.5 61t13 45.5
q16 52 30.5 102.5t28.5 101.5q15 45 27.5 92.5t25.5 85.5q-20 1 -41 1.5l-42 1t-41.5 2.5t-38.5 7q-16 4 -23.5 13t-7 18t10 15.5t27.5 6.5q11 0 36 -2t52.5 -3t51 -0.5t30.5 3.5q3 1 3 3q6 18 13 38t14 39t13.5 36t11.5 29q4 9 16.5 7.5t26 -8.5t23.5 -17.5t9 -19.5
q-3 -26 -14 -51t-19 -57q63 1 108.5 1.5t88.5 0.5q14 0 28 -0.5t21.5 -2.5t3.5 -5.5t-26 -9.5q-63 -20 -122 -30.5t-116 -15.5q-5 -1 -4.5 -2t-2.5 -6q0 -1 -1 -2t-1 -2q-16 -44 -35 -99t-38 -113t-36 -114t-29 -101.5t-17.5 -76t-0.5 -37.5z" />
    <glyph glyph-name="w" unicode="w" horiz-adv-x="476" 
d="M497 213q-18 -12 -38 -16.5t-40 -2t-39 10.5t-34 21q-9 -29 -20.5 -63t-26.5 -64t-35 -53t-46 -30q-6 -3 -15 -1t-18.5 7.5t-17.5 12.5t-13 14q-8 11 -10.5 25.5t-2.5 30t2 30t2 25.5q-6 -9 -19 -32.5t-28.5 -48t-31.5 -43t-26 -17.5q-17 2 -30.5 11.5t-19.5 23.5
q-6 15 -3 47t10.5 67t15.5 66t12 46q0 9 10.5 8t22.5 -8.5t20.5 -21t5.5 -30.5q-5 -24 -9.5 -44t-10 -38.5t-12 -38.5t-14.5 -44q3 -6 16 11.5t28 43t29 52.5t21 39q7 9 8 19t6 20q6 9 15 8t18 -6.5t15.5 -12t7.5 -8.5q6 -12 3 -34.5t-7 -48t-6.5 -50t5.5 -38.5q3 -2 8 -2.5
t10 7.5q13 23 27.5 60t26.5 77.5t20 79t8 64.5q0 13 9.5 16t20.5 -2.5t20.5 -16.5t9.5 -26q0 -29 13.5 -48t34.5 -29.5t45.5 -13t46.5 1.5q6 1 7 -0.5t-0.5 -4.5t-4 -5.5z" />
    <glyph glyph-name="x" unicode="x" horiz-adv-x="299" 
d="M182 1q-47 -11 -75 4.5t-49 54.5q-26 -23 -47 -51t-44 -56q-6 -8 -10 -8.5t-5.5 2.5t-1 9t2.5 12q14 40 34 69.5t46 63.5q-17 41 -28 67t-16 54q-3 28 10 57q4 8 10.5 18.5t13 18.5t11.5 12t6 -1q6 -24 13 -49.5t14 -47t12.5 -38.5t8.5 -25q12 14 21.5 25.5t18.5 21
t19 17t23 15.5q8 4 15 2t11 -7t5.5 -10.5t-1.5 -7.5q-8 -7 -19.5 -17.5t-24 -23.5t-25.5 -27t-23 -27q4 -11 10.5 -25.5t15 -28t18.5 -24t21 -12.5q18 -4 37 10t37.5 35.5t35 46t29.5 42.5q8 8 12 6.5t5.5 -8t0.5 -14.5t-3 -13q-14 -25 -31 -48.5t-36 -42.5t-39 -32.5
t-39 -18.5z" />
    <glyph glyph-name="y" unicode="y" horiz-adv-x="359" 
d="M69 27q-26 -5 -48.5 8t-27.5 39q-4 22 -4 50t3 56.5t8.5 55.5t11.5 48q5 9 15.5 9t22 -4.5t20 -11.5t10.5 -14q3 -13 -5.5 -41.5t-18.5 -59.5t-16 -57.5t2 -33.5q7 -7 18.5 3.5t24.5 31t27 48t27.5 54.5t24.5 50t18 35q2 4 9.5 3.5t15.5 -4.5t15 -10.5t9 -14.5
q9 -35 6 -75.5t-11 -76.5q37 29 72.5 52t76.5 41q4 3 15.5 4.5t19.5 0.5t8.5 -6.5t-18.5 -17.5q-46 -29 -93 -66t-88 -70q-7 -5 -9 -16q-8 -56 -28 -124t-48.5 -137t-64 -131.5t-74.5 -107.5q-25 -29 -53 -40.5t-51.5 -5.5t-39 29.5t-16.5 64.5q13 62 42 120.5t69.5 115
t89.5 113t103 114.5q7 5 13 23.5t10 39.5t5.5 39.5t-0.5 22.5q-10 -18 -22 -42.5t-25 -47t-26 -39t-25 -17.5zM-118 -456q11 -4 32 21.5t47 68t53 95t49.5 102t37.5 89.5t16 57q-26 -28 -57 -67.5t-61 -83t-56.5 -88.5t-44 -84t-23 -68.5t6.5 -41.5z" />
    <glyph glyph-name="z" unicode="z" horiz-adv-x="362" 
d="M170 63q-20 14 -42 14.5t-45 -4.5q-3 -1 -10 -1q-9 0 -15 5.5t-8.5 13t-0.5 15.5t9 13q13 17 28.5 38t31.5 42.5t29.5 43t22.5 40.5q-23 7 -46 -8t-43 -39.5t-34.5 -52t-21.5 -45.5q-6 -16 -16 -12t-15 13q-8 13 -6 31t8.5 36t16 34t17.5 27q23 31 53.5 45.5t67.5 19.5
q15 2 26.5 -3t19.5 -15.5t12.5 -25t5.5 -30.5q-2 -32 -16.5 -63.5t-40.5 -60.5q17 -1 34.5 -6.5t31.5 -20.5q30 23 68 46t70 36q6 3 17.5 2t20.5 -4t12 -7.5t-8 -8.5q-13 -5 -34 -15.5t-43 -24t-42.5 -28t-31.5 -28.5q19 -33 27.5 -62.5t4.5 -65.5q-6 -58 -32.5 -125
t-67 -128.5t-90.5 -111t-101 -71.5q-10 -4 -21.5 -3.5t-22.5 5t-20 12t-15 17.5q-11 24 -10.5 40.5t8.5 42.5q14 49 40.5 111t61 124t74.5 116t81 87zM192 33q-38 -44 -73.5 -97t-67 -109t-57.5 -111.5t-44 -104.5q-3 -8 2.5 -11t17.5 1q19 6 45 31.5t54 63.5t54.5 83.5
t44.5 91.5t26 88.5t-2 73.5z" />
    <glyph glyph-name="O" unicode="O" horiz-adv-x="560" 
d="M445 284q32 -3 52.5 -2t50.5 4q22 3 22 -3.5t-9.5 -15.5t-22.5 -17.5t-17 -9.5q-17 -8 -30 -13.5t-26 -9t-26 -4.5t-29 -1q-18 -32 -45 -72.5t-60.5 -76t-73 -59.5t-81.5 -24q-48 1 -77.5 22t-45.5 52t-21 66t-5 64q0 42 4 82t12 80q5 26 11 52t12 53q7 27 25 32t35 -2.5
t28 -23.5t4 -31q-11 -26 -22 -69.5t-18.5 -92.5t-10.5 -96.5t3 -80.5q4 -23 14.5 -41.5t25.5 -16.5q18 -2 46.5 19.5t57.5 52.5t54 66t36 60q-39 15 -70 45t-53 69t-33.5 83.5t-10 89t16.5 85t46 71.5q41 40 86.5 50t90.5 -7q38 -14 59 -43t29.5 -67t7.5 -81.5t-8 -87
t-16.5 -82.5t-17.5 -68zM336 677q-38 -14 -60.5 -43t-32 -65.5t-7 -77.5t16.5 -78.5t38 -68.5t57 -48q16 30 29 67.5t20 77.5t8 79t-5.5 71.5t-22 55t-41.5 30.5z" />
    <glyph glyph-name="Q" unicode="Q" horiz-adv-x="561" 
d="M443 286q32 -3 53.5 -3t51.5 3q22 3 22 -3.5t-9.5 -15.5t-22.5 -17.5t-17 -9.5q-33 -17 -57 -22t-56 -4q-12 -22 -28 -49t-35.5 -54.5t-43 -52.5t-50.5 -43q51 2 89.5 1t46.5 -2l42 -8t41 -12q12 -3 14 -6t-1 -5.5t-10 -4.5t-13 -3q-103 -11 -199 -22.5t-192 -33.5
q-1 -1 -2.5 -1t-3.5 -1q-16 0 -22 13q-12 23 2.5 38t44.5 25q-28 13 -45 35.5t-26.5 49t-12.5 54.5t-3 52q0 42 4 82t12 80l23 105q7 27 25 32t35 -2.5t28 -23.5t4 -31q-11 -26 -22 -69.5t-18.5 -92.5t-10.5 -96.5t3 -80.5q4 -23 13.5 -36.5t24.5 -11.5q18 -2 47 18t58 49
t54.5 62.5t36.5 58.5q-39 15 -70 45t-53 69t-33.5 83.5t-10 89t16.5 85t46 71.5q52 51 111.5 54t115.5 -39q22 -16 32 -46.5t12.5 -68t-1.5 -79t-11 -80.5t-15.5 -72t-14.5 -53zM325 687q-40 -13 -63 -42.5t-31.5 -67.5t-3.5 -80.5t21 -81.5t41.5 -70.5t58.5 -48.5
q16 30 28.5 69.5t19 82.5t6.5 84.5t-8 75t-25 55t-44 24.5z" />
    <glyph glyph-name="I" unicode="I" horiz-adv-x="467" 
d="M301 625q-48 -16 -87 -29.5t-80 -33.5q-17 -9 -26 3q-8 20 -0.5 40t24.5 34q37 28 97 49t124.5 32t126 10.5t101.5 -15.5q15 -5 20.5 -20t0.5 -30q-2 -8 -9.5 -15t-16.5 -11t-19 -4t-18 6q-5 4 -13 5t-15 2q-24 1 -57.5 0t-62.5 -6q-14 -38 -27.5 -74.5t-27.5 -72.5
q-22 -56 -41.5 -112t-34 -112.5t-23 -113.5t-8.5 -116q29 1 57 1t54 -6q48 -12 89 -45q6 -6 10 -16t-7 -13q-5 -1 -11 -1h-11q-89 6 -172.5 5t-168.5 -23q-8 -2 -14.5 -4.5t-14.5 -5.5q-19 -8 -29 3.5t-7 28.5q2 16 12 23.5t21 12.5q32 14 63 19.5t62 13.5q-16 62 -11 125.5
t22.5 126t41.5 123.5t46 118q12 29 22 52t18 46z" />
    <glyph glyph-name="J" unicode="J" horiz-adv-x="654" 
d="M531 613q-11 0 -20.5 0.5t-18.5 2.5q-66 2 -130 3t-128 3q-14 0 -32 5q-14 6 -15 24q-1 8 3 14.5t10 11.5q13 9 26.5 12t27.5 4q60 7 118.5 9t116.5 0.5t115.5 -4t115.5 -3.5q17 -2 27.5 -15.5t8.5 -30.5q-2 -20 -16 -32.5t-32 -11.5q-2 0 -3.5 -0.5t-3.5 0.5
q-12 1 -28.5 -2t-31.5 -9.5t-25.5 -16t-10.5 -20.5q13 -68 12 -120.5t-16 -106.5q-24 -78 -77.5 -150.5t-121.5 -128.5t-144 -89.5t-145 -32.5q-45 8 -72 43t-38 85q-5 24 -2 49.5t11 50.5t19.5 48.5t24.5 42.5q54 77 122 127t143 82q43 17 87.5 19.5t84.5 -11.5q7 -2 17 -9
q12 -14 -5 -25q-4 -4 -8 -5t-9 -3q-52 -18 -104 -36.5t-100 -44t-90 -61t-75 -87.5q-11 -15 -21.5 -34t-18.5 -39.5t-12 -41t-2 -37.5q1 -20 19 -25t41 -2.5t45.5 9t33.5 9.5q66 25 131 71.5t114 107t75 133.5t15 151q-1 11 -6 19.5t-10 15.5q-14 17 -12.5 37.5t17.5 40.5z
" />
    <glyph glyph-name="S" unicode="S" horiz-adv-x="503" 
d="M194 270q-37 -26 -69 -63.5t-52 -75t-23.5 -68.5t17.5 -44q17 -11 48 -1.5t67 32t73.5 54t68.5 64.5t51 63.5t22 51.5q3 22 -9 37.5t-33.5 27t-48.5 20t-54.5 16t-52.5 15.5t-42 19q-19 12 -30 28.5t-16 34.5t-4.5 37t5.5 36q8 33 36.5 64t65.5 54.5t77 36t72 8.5
q30 -5 50 -17t30 -41q7 -24 0 -51t-21.5 -51.5t-33.5 -45t-36 -31.5q-8 -6 -17 -9t-17 -4t-12.5 1t-2.5 6q12 21 25.5 47t25.5 51.5t20 47.5t10 35q2 11 -5.5 12t-18.5 -2q-19 -6 -45.5 -19t-52 -29.5t-45 -35t-23.5 -34.5q-5 -10 -2.5 -19t8 -16.5t13 -13t13.5 -9.5
q27 -17 54 -29.5t52.5 -26t49.5 -29t45 -37.5q32 -34 40.5 -75t-5.5 -81q-16 -50 -53.5 -98.5t-86.5 -85.5t-102.5 -57t-100.5 -14q-48 7 -78 32t-40 70q-8 40 1 76t30 66t50 54t61 39q19 10 39 15.5t40 8.5q19 4 19 -1.5t-9 -14.5t-21.5 -18.5t-16.5 -12.5z" />
    <glyph glyph-name="T" unicode="T" horiz-adv-x="413" 
d="M413 622q-2 -5 2 -11t8 -13t5.5 -14.5t-3.5 -14.5q-58 -108 -105 -235.5t-95 -290.5q-3 -11 -5.5 -20t-5.5 -18t-6.5 -20t-7.5 -26q-6 -13 -16 -8q-14 6 -19 29.5t-6 51.5t1 53.5t4 35.5q9 57 26 122.5t41 130.5t53.5 125.5t64.5 109.5q5 5 6 7q-7 3 -34 1.5t-59.5 -5
t-64 -9t-47.5 -10.5q4 -5 17 -16t24.5 -22t14 -19.5t-14.5 -8.5q-23 0 -44.5 5.5t-40.5 15.5q-10 5 -22.5 11.5t-23.5 14t-19 16.5t-8 20q0 28 27 42q58 28 143 43t180.5 18.5t193 -3.5t179.5 -22q5 -1 15.5 -5t22.5 -10t23 -12.5t16.5 -13t3 -11.5t-16.5 -7t-28 -2h-28
h-176.5t-174.5 -5z" />
    <glyph glyph-name="U" unicode="U" horiz-adv-x="558" 
d="M67 483q-6 -3 -16 2t-19.5 15t-15.5 22.5t-4 23.5q7 40 32.5 70.5t58 51.5t66 33.5t55.5 15.5q21 4 37 -1t26 -16.5t13 -27t-1 -31.5q-3 -24 -23.5 -70.5t-50 -105t-61.5 -122.5t-57.5 -121.5t-39.5 -102.5t-5 -66q4 -9 11 -5t16 8q40 17 84.5 64.5t89.5 111t89 136
t82.5 140t70 122.5t51.5 84q13 15 28 13t26 -14.5t15 -31t-5 -36.5q-21 -38 -41 -75.5t-35 -76.5q-22 -58 -41.5 -121.5t-33.5 -129t-20.5 -131t-1.5 -126.5q2 -35 -6.5 -43t-31.5 15q-21 21 -31.5 46.5t-13.5 54t0 59.5t9 64q11 61 26.5 120t31.5 120q-10 -18 -28 -55.5
t-42.5 -83.5t-54.5 -96t-64 -92t-70.5 -71.5t-74.5 -35.5q-22 -6 -41 8.5t-32.5 36.5t-20 47t-3.5 40q13 63 34 131t47.5 134.5t56.5 130t61 117.5q-24 -15 -42.5 -29.5t-34 -31t-29 -38t-26.5 -50.5z" />
    <glyph glyph-name="V" unicode="V" horiz-adv-x="413" 
d="M58 3q-17 23 -30 51t-21 57q-17 128 -1 248.5t52 237.5q6 13 26 13t40 -9t33 -24t6 -31q-11 -24 -22 -64.5t-21 -89.5t-17.5 -102.5t-11 -102.5t-1.5 -88.5t12 -62.5q47 63 86 130.5t73.5 137t65.5 140.5t61 140q15 35 29.5 74t38.5 67q10 9 15.5 6t7.5 -11.5t2 -18
v-14.5q-7 -46 -12 -91t-21 -87q-26 -66 -53.5 -131t-59 -128t-68 -122.5t-79.5 -113.5q-34 -43 -67.5 -45.5t-62.5 34.5z" />
    <glyph glyph-name="W" unicode="W" horiz-adv-x="662" 
d="M291 305q-11 -15 -24 -47t-27.5 -72t-31.5 -83t-35 -80t-37.5 -63t-40.5 -31q-9 -2 -19 -0.5t-19.5 6t-18 10.5t-13.5 12q-24 30 -32.5 78.5t-6.5 105.5t12.5 119.5t23 121t25.5 108.5t21 84q5 19 21.5 21t33 -6.5t28.5 -24.5t8 -34q-5 -21 -15 -60t-22.5 -87
t-25.5 -101.5t-23 -103.5t-14.5 -92t-0.5 -67q1 -6 5 -16t9.5 -17.5t12.5 -9.5t15 9q12 17 29.5 60t38 97t42 111t41.5 101q18 40 39 74t49 60q4 4 9.5 5.5t10.5 -1.5q14 -8 27.5 -21t11.5 -36q-3 -25 -7.5 -59t-9 -73t-8 -80t-5 -78.5t0.5 -69.5t9 -52q3 -12 8.5 -14
t12.5 2q11 8 21 22.5t19 31.5q28 58 55.5 131.5t51.5 149t44 146.5t32 124q2 9 5.5 24t8.5 29.5t11.5 25t15.5 10.5q12 -4 18.5 -18t10 -31t3.5 -34t-1 -27q-11 -66 -30 -141.5t-47 -153.5q-12 -32 -28 -75t-36 -86t-43.5 -79.5t-50.5 -55.5q-19 -14 -40 -20t-40.5 -4
t-36.5 13.5t-27 33.5q-14 29 -20 68t-7.5 78.5t0 74.5t3.5 57z" />
    <glyph glyph-name="X" unicode="X" horiz-adv-x="567" 
d="M322 337q4 -26 16 -62.5t29.5 -76.5t39 -80.5t45.5 -75t49.5 -58.5t49.5 -31q11 -3 6 -11.5t-13 -8.5q-44 0 -82 20t-70 51.5t-58 70t-45.5 76t-33 70t-19.5 51.5q-29 -24 -54.5 -52t-51 -60.5t-52 -69.5t-57.5 -79q-14 -19 -23 -13t0 24q21 42 49.5 85t59 83.5
t61.5 76.5t58 65q-28 85 -45.5 173t-15.5 177q3 24 20 29.5t37 -0.5t35.5 -19.5t15.5 -26.5q0 -24 1.5 -55t4.5 -65t8 -67.5t11 -63.5q16 21 43 50.5t59.5 62.5t68 66t69 61t61.5 48t46 27q13 5 26.5 -1.5t22 -17t9 -22.5t-11.5 -18q-23 -12 -55 -35.5t-67.5 -53.5t-72 -64
t-69.5 -67t-60.5 -62.5t-44.5 -50.5z" />
    <glyph glyph-name="Y" unicode="Y" horiz-adv-x="519" 
d="M154 171q-21 -20 -35.5 -57t-18.5 -72.5t4 -60t34 -20.5q17 1 43.5 27t57 68.5t62.5 97t60 113t48.5 117.5t28.5 109q-20 -33 -44 -72t-54 -73t-66 -56.5t-79 -23.5q-31 1 -53 13.5t-38 32.5q-18 23 -12.5 66t23 91t40 94.5t38.5 77.5q-25 -9 -46 -26.5t-39 -37.5
t-32.5 -39t-24.5 -31q-5 -8 -10.5 -7.5t-10 6.5t-7 16.5t-0.5 24.5q7 43 34.5 78.5t65.5 58.5t81.5 32t82.5 -1q3 0 6 -1.5t5 -3.5q9 -7 9.5 -12.5t-6.5 -13.5q-5 -6 -6 -12q-9 -19 -25 -52t-32.5 -72t-32 -80.5t-23.5 -77.5t-6.5 -61.5t18.5 -32.5q12 -2 34 19.5t49 55.5
t55.5 77.5t54 86.5t44.5 81t27 62q4 10 9 18.5t13 8.5q9 0 22.5 -7t25.5 -17t20 -19.5t7 -15.5q-2 -44 -9.5 -85.5t-18.5 -84t-24.5 -87t-28.5 -92.5q-18 -47 -42.5 -104.5t-57.5 -112t-74.5 -99t-92.5 -65.5q-20 -9 -41 -8.5t-41.5 6.5t-38 17t-29.5 23q-28 30 -32 71.5
t9.5 79.5t41 66t61.5 32q18 0 24 -3.5t5.5 -8.5t-5 -11.5t-7.5 -10.5z" />
    <glyph glyph-name="Z" unicode="Z" horiz-adv-x="642" 
d="M493 678q-66 -7 -132 -25.5t-120 -51.5q-13 -11 -21.5 -6.5t-10.5 17t2 29.5t15 32q18 23 50.5 36t69.5 18.5t73 5t62 -3.5q19 -3 40 -12.5t36 -23.5t22 -32t-2 -38q-10 -24 -31 -45t-46 -39t-51 -32.5t-47 -25.5q37 -2 72 -11t62 -26.5t43.5 -44t18.5 -62.5v-20t-1 -20
q-2 -9 -4 -18.5t-6 -17.5q-13 -33 -37.5 -68t-58 -69t-73 -65.5t-82 -55.5t-86 -39.5t-83.5 -18.5q-23 -2 -49.5 2.5t-50.5 19.5t-42.5 41.5t-24.5 70.5q-6 43 18.5 81.5t64 68t86 48t84.5 21.5q47 4 94 -5q16 -3 16 -6.5t-8 -7.5t-19 -7t-17 -4q-36 -12 -71.5 -30.5
t-69.5 -41.5t-64 -49.5t-54 -54.5q-24 -34 8 -54q14 -11 45.5 -7t72.5 20t87 41.5t89.5 56t80.5 64.5t59.5 66.5t27 62.5t-16.5 52q-20 20 -58 27.5t-80 7.5t-79 -4t-54 -6q-11 -5 -25 -4t-19 11q-3 8 1 13.5t9 10.5q8 10 30 26t51 34.5t61 38.5t61.5 39t53.5 35.5t35 27.5
t11 18.5t-18 8.5z" />
    <glyph glyph-name="at" unicode="@" horiz-adv-x="562" 
d="M282 118q-23 -12 -45.5 -25t-48.5 -7q-24 5 -36.5 23t-9.5 40q3 20 16 43t31.5 40t41 23.5t43.5 -5.5q6 6 12 9q13 9 27 3t16 -20q1 -8 0.5 -15.5t-0.5 -15.5q0 -10 -0.5 -22t1.5 -21t8.5 -14t20.5 -2q52 20 75 69q14 31 9.5 55t-20.5 41t-41 25.5t-53 8t-56.5 -10
t-50.5 -29.5q-12 -11 -29.5 -31t-35 -44.5t-32 -51.5t-21.5 -52t-3 -46.5t24 -34.5q19 -11 44 -16t51 -6t52 1.5t47 6.5q20 3 40 7t40 6q9 2 11 0.5t0.5 -4.5t-5.5 -7t-8 -7q-43 -28 -89 -46t-96 -23q-28 -1 -54.5 6t-48.5 21t-37.5 34.5t-21.5 47.5q-8 46 4.5 94.5t38 92
t60 79t70.5 56.5q34 17 68 21.5t70 -8.5q37 -12 69.5 -35t52 -53.5t22 -66.5t-19.5 -73q-41 -65 -113 -90q-24 -6 -45.5 -0.5t-38.5 24.5q-2 1 -3 2.5t-3 2.5zM207 151q12 1 23 5.5t19.5 11.5t13 16.5t1.5 21.5q-20 -9 -34.5 -21.5t-22.5 -33.5z" />
    <glyph glyph-name="exclam" unicode="!" horiz-adv-x="278" 
d="M168 619q7 7 17.5 7t19 -4t13.5 -12t2 -18q-4 -15 -13 -43.5t-21.5 -64.5t-27 -76.5t-29.5 -80t-29.5 -75t-25.5 -60.5q-4 -9 -11 -7t-10 10q-6 34 -5 65t6 62q5 28 16.5 72t27 89t34 83t36.5 53zM40 33q-15 -2 -25.5 10.5t-13 29t3.5 33t24 23.5q22 7 34.5 -6
t14.5 -32.5t-7.5 -37.5t-30.5 -20z" />
    <glyph glyph-name="question" unicode="?" horiz-adv-x="437" 
d="M317 586q-31 5 -64 2.5t-64 -12t-58 -26t-45 -40.5q-9 -17 -15.5 -17t-9 10.5t0 28.5t12 38t27 39t43.5 31q61 23 117 21t98 -39q12 -11 20 -27t10.5 -34.5t-2.5 -37.5t-18 -35q-17 -20 -40 -37.5t-48.5 -33.5t-52 -32.5t-50.5 -35.5q-49 -38 -83 -83t-43 -86
q-2 -9 -9.5 -7t-10.5 11q-7 19 -10 45q-5 29 4.5 56.5t28.5 52t44.5 47t52 42t52 35t44.5 27.5q8 5 24.5 14.5t33 20.5t29 21.5t12.5 16.5q1 10 -10 16t-20 8zM82 80q-6 -21 -18.5 -32.5t-25.5 -12.5t-24 9.5t-14 33.5q-3 29 11 41t31.5 10.5t30.5 -15t9 -34.5z" />
    <glyph glyph-name="exclamdown" unicode="&#xa1;" horiz-adv-x="329" 
d="M193.01 -43.9619q-6.99902 -7 -17.498 -7q-10.5 0 -18.999 4q-8.5 4 -13.499 11.999q-5 8 -2 17.999q4 14.999 12.999 43.4971t21.499 64.4961q12.499 35.998 26.998 76.4951q14.499 40.498 29.498 79.9951q14.999 39.498 29.498 74.9961t25.499 60.4961
q3.99902 8.99902 10.999 7q7 -2 9.99902 -10q6 -33.998 5 -64.9961t-6 -61.9961q-4.99902 -27.998 -16.499 -71.9951q-11.499 -43.998 -26.998 -88.9951t-33.998 -82.9951q-18.499 -37.9971 -36.498 -52.9961zM321.002 542.002q15 2 25.499 -10.499t12.999 -28.998
t-3.5 -32.998q-5.99902 -16.499 -23.998 -23.499q-21.999 -7 -34.498 6q-12.499 12.999 -14.499 32.498q-2 19.498 7.49902 37.4971q9.5 17.999 30.498 19.999z" />
    <glyph glyph-name="questiondown" unicode="&#xbf;" horiz-adv-x="478" 
d="M203.02 -4.96387q30.998 -5 63.9961 -2.5t63.9961 11.999t57.9961 25.998t44.9971 40.498q9 16.999 15.499 16.999q6.5 0 9 -10.5q2.5 -10.499 0 -28.498t-11.999 -37.9971q-9.5 -19.999 -26.999 -38.998t-43.4971 -30.998q-60.9961 -22.999 -116.993 -20.999
q-55.9961 2 -97.9941 38.998q-11.999 10.999 -19.998 26.998q-8 15.999 -10.5 34.498t2.5 37.498t17.999 34.9971q16.999 19.999 39.998 37.498q22.998 17.499 48.4971 33.498q25.498 15.999 51.9961 32.498q26.499 16.499 50.4971 35.498q48.9971 37.9971 82.9951 82.9951
q33.998 44.9971 42.9971 85.9941q2 9 9.5 7q7.49902 -2 10.499 -10.999q7 -18.999 9.99902 -44.998q5 -28.998 -4.49902 -56.4961q-9.5 -27.498 -28.499 -51.9971q-18.998 -24.498 -44.4971 -46.9971q-25.498 -22.499 -51.9971 -41.9971q-26.498 -19.499 -51.9961 -34.998
q-25.499 -15.499 -44.4971 -27.498q-8 -5 -24.499 -14.5q-16.499 -9.49902 -32.998 -20.498q-16.499 -11 -28.998 -21.499t-12.499 -16.499q-1 -9.99902 9.99902 -15.999t19.999 -7.99902zM438.005 501.005q6 20.999 18.499 32.498t25.498 12.499q13 1 23.999 -9.49902
q10.999 -10.5 13.999 -33.498q3 -28.998 -10.999 -40.998q-13.999 -11.999 -31.498 -10.499t-30.498 14.999q-13 13.499 -9 34.498z" />
    <glyph glyph-name="quotesingle" unicode="'" horiz-adv-x="195" 
d="M69 569q8 20 13.5 32t19.5 24q8 8 18.5 1t9.5 -16q-2 -18 -12 -30.5t-21 -23.5q-17 -18 -39 -34q-5 -5 -4.5 0.5t3.5 15t7 19t5 12.5z" />
    <glyph glyph-name="comma" unicode="," horiz-adv-x="271" 
d="M104 -36q3 11 6.5 22t6.5 22t-4 16q-14 11 -16 27t4.5 29.5t19.5 21.5t30 3q14 -5 23.5 -19.5t1.5 -45.5q-5 -25 -18.5 -44t-30.5 -36q-14 -14 -20.5 -12t-2.5 16z" />
    <glyph glyph-name="period" unicode="." horiz-adv-x="184" 
d="M87 6q-43 3 -43 34q1 19 14.5 33t32.5 14q15 0 25 -11t9 -25q-2 -20 -11 -33t-27 -12z" />
    <glyph glyph-name="numbersign" unicode="#" horiz-adv-x="450" 
d="M320 111q-6 -2 -12.5 -2.5t-12.5 -1.5q-7 -1 -13 -9l-45 -78q-2 -4 -6 -7.5t-8 -5.5q-9 -5 -13 5q-6 14 -3.5 30t4.5 30l3 15q-2 0 -3 0.5t-3 0.5q-17 -2 -34.5 -4.5t-35.5 -4.5q-9 -2 -12 -10q-8 -18 -17 -36.5t-18 -37.5q-7 -11 -10 -14t-4.5 -0.5t-1 8.5t1.5 13
q3 18 8.5 35.5t8.5 34.5h-21q-11 0 -14 8q-2 5 0.5 9t6.5 6q11 5 23.5 8.5t17.5 16.5q2 7 5 14.5t6 16.5q-11 -5 -21 -8.5t-20 -6.5q-11 -4 -17 4t-7 20.5t4.5 25t16.5 18.5q16 8 33.5 11t34.5 8q5 2 8 9q6 15 12 30.5t11 30.5q3 5 6 12t7 13t9 9t10 0q5 -2 6.5 -12t1.5 -15
q-5 -17 -8.5 -33.5t-10.5 -30.5q16 2 31.5 4t31.5 2q17 0 24 16q8 17 15 34t18 28q5 7 12.5 9.5t13.5 0.5t10 -8t4 -14q-2 -20 -7 -37t-10 -35q16 -4 30.5 -5.5t26.5 -9.5q10 -7 2 -15t-17 -8q-14 -3 -28 -3t-26 -5q-2 -1 -4 -2.5t-3 -3.5q-5 -12 -9 -24.5t-9 -24.5
q11 0 23 -2t18 -6t2.5 -8t-23.5 -8zM152 124q18 2 35 4.5t34 5.5q5 0 7 6q4 8 7 16.5t7 18.5q-18 -3 -35 -5.5t-34 -5.5q-2 0 -3.5 -1.5l-2.5 -2.5q-8 -17 -15 -36z" />
    <glyph glyph-name="slash" unicode="/" horiz-adv-x="338" 
d="M-4 -63q5 21 10.5 41t12.5 40q30 82 71 173.5t88 181.5t98 174t101 151q7 9 15 17.5t19 14.5t17.5 5t9.5 -5.5t3.5 -10.5t-0.5 -12l-3.5 -10.5t-3.5 -9.5q-40 -80 -86 -171.5t-94.5 -185.5t-97 -184t-93.5 -165q-10 -15 -20 -28.5t-21 -27.5q-14 -18 -24 -14t-2 26z" />
    <glyph glyph-name="backslash" unicode="\" horiz-adv-x="380" 
d="M369 -63q8 -22 -2 -26t-24 14q-11 14 -21 27.5t-20 28.5q-45 75 -93.5 165t-97 184t-94.5 185.5t-86 171.5q-2 5 -3.5 9.5l-3.5 10.5q-1 6 -0.5 12t3.5 10.5t9.5 5.5t17.5 -5t19 -14.5t15 -17.5q50 -67 101 -151t98 -174t88 -181.5t71 -173.5q7 -20 12.5 -40t10.5 -41z
" />
    <glyph glyph-name="bar" unicode="|" horiz-adv-x="316" 
d="M103 -116q-7 -23 -17 -20.5t-12 25.5q0 17 -0.5 34.5t-0.5 34.5q7 88 20.5 189t29 205.5t31.5 206t30 190.5q2 5 3 9.5t3 10.5q3 5 7 10t9 6.5t10.5 -1.5t11.5 -14q5 -11 6.5 -23t2.5 -23q2 -83 -5.5 -181t-22 -199t-34.5 -199t-43 -182q-6 -20 -13.5 -39.5t-15.5 -39.5z
" />
    <glyph glyph-name="quotedbl" unicode="&#x22;" horiz-adv-x="261" 
d="M69 569q8 20 13.5 32t19.5 24q8 8 18.5 1t9.5 -16q-2 -18 -12 -30.5t-21 -23.5q-17 -18 -39 -34q-5 -5 -4.5 0.5t3.5 15t7 19t5 12.5zM149 569q8 20 13.5 32t19.5 24q8 8 18.5 1t9.5 -16q-2 -18 -12 -30.5t-21 -23.5q-17 -18 -39 -34q-5 -5 -4.5 0.5t3.5 15t7 19t5 12.5z
" />
    <glyph glyph-name="quotedblright" unicode="&#x201d;" horiz-adv-x="261" 
d="M69 569q8 20 13.5 32t19.5 24q8 8 18.5 1t9.5 -16q-2 -18 -12 -30.5t-21 -23.5q-17 -18 -39 -34q-5 -5 -4.5 0.5t3.5 15t7 19t5 12.5zM149 569q8 20 13.5 32t19.5 24q8 8 18.5 1t9.5 -16q-2 -18 -12 -30.5t-21 -23.5q-17 -18 -39 -34q-5 -5 -4.5 0.5t3.5 15t7 19t5 12.5z
" />
    <glyph glyph-name="quotedblleft" unicode="&#x201c;" horiz-adv-x="261" 
d="M187 575q-8 -20 -13.5 -32t-19.5 -24q-4 -4 -9 -4t-9.5 3t-7.5 7t-2 9q2 18 12 30.5t21 23.5q17 18 39 34q5 5 4.5 -0.5t-3.5 -15t-7 -19t-5 -12.5zM107 575q-8 -20 -13.5 -32t-19.5 -24q-4 -4 -9 -4t-9.5 3t-7.5 7t-2 9q2 18 12 30.5t21 23.5q17 18 39 34q5 5 4.5 -0.5
t-3.5 -15t-7 -19t-5 -12.5z" />
    <glyph glyph-name="quoteright" unicode="&#x2019;" horiz-adv-x="195" 
d="M69 569q8 20 13.5 32t19.5 24q8 8 18.5 1t9.5 -16q-2 -18 -12 -30.5t-21 -23.5q-17 -18 -39 -34q-5 -5 -4.5 0.5t3.5 15t7 19t5 12.5z" />
    <glyph glyph-name="quoteleft" unicode="&#x2018;" horiz-adv-x="195" 
d="M107 575q-8 -20 -13.5 -32t-19.5 -24q-4 -4 -9 -4t-9.5 3t-7.5 7t-2 9q2 18 12 30.5t21 23.5q17 18 39 34q5 5 4.5 -0.5t-3.5 -15t-7 -19t-5 -12.5z" />
    <glyph glyph-name="R" unicode="R" horiz-adv-x="562" 
d="M2 327q5 8 13.5 10t17.5 4q13 2 26 3.5t27 3.5q10 0 13 10q9 14 24 39t34 53.5t41.5 56.5t46.5 48t49 28t49 -3q20 -10 30 -24.5t-3 -22.5q-14 -8 -30.5 -14.5t-27.5 -17.5q-26 -26 -45 -60t-41 -61q28 4 68.5 22.5t84 45t84 58t67 60t35 52t-12.5 33.5
q-20 10 -44.5 14.5t-51 4.5t-53 -3.5t-50.5 -9.5q-23 -5 -56.5 -18t-66.5 -30t-61 -37t-40 -39q-14 27 -7.5 51t25.5 44.5t46.5 37.5t57 29.5t56.5 21t45 12.5q62 14 114 12t101 -27q22 -10 37.5 -27t23.5 -37.5t8.5 -42.5t-8.5 -41q-23 -50 -58.5 -91t-79.5 -73t-93.5 -56
t-98.5 -39q-3 -2 -6.5 -2.5t-6.5 -2.5q-2 0 -2 -2v-4q0 -33 10.5 -72.5t28 -78.5t39.5 -73t45 -57q34 -33 77 -55.5t90 -33t94.5 -8t89.5 19.5q1 0 1 -2q2 -4 1 -8q-6 -25 -28.5 -42.5t-52 -27.5t-63 -13.5t-61.5 0.5q-75 10 -139 52t-111.5 103t-76.5 134.5t-34 147.5h-23
q-8 0 -8 -4q-17 -27 -28 -56.5t-20.5 -59t-19.5 -59t-24 -57.5q-10 -19 -21 0q-11 16 -14 41q-6 60 1 109t30 98q-9 3 -17.5 6t-17.5 5q-9 3 -16.5 8t-12.5 14z" />
    <glyph glyph-name="dollar" unicode="$" horiz-adv-x="434" 
d="M137 -80q1 23 2 45t1 44q-28 2 -52.5 14.5t-43 32t-29 44.5t-10.5 52q0 35 15 65q13 27 37.5 50t49.5 32q17 9 20 6.5t-1 -9t-11 -15.5t-10 -14q-11 -22 -19.5 -50.5t-7.5 -55t15.5 -45t49.5 -21.5q14 69 27 132.5t27 132.5q-14 6 -25 9.5t-22 6t-24 6t-30 9.5
q-24 9 -29.5 28.5t0 41t18.5 40.5t26 28q34 20 65 27.5t67 3.5q5 0 8 -1q5 16 8.5 30t9.5 27q7 12 12 14t5 -15q-3 -22 -5.5 -36t-4.5 -27q28 -15 48.5 -30t30.5 -47q2 -10 -8 -15q-7 -3 -16 4q-17 10 -31.5 17t-32.5 11q-5 -19 -9 -37.5t-8 -36.5q25 -11 47.5 -21t40.5 -24
t31 -34t20 -49q12 -51 -1.5 -103.5t-45.5 -93.5t-77 -64.5t-96 -17.5q-5 -21 -7 -44t-9 -46q-5 -19 -10.5 -21t-5.5 20zM236 350q-14 -66 -25.5 -130.5t-24.5 -128.5q28 4 51 18.5t40.5 35t29 45t16.5 49.5q6 46 -21 73t-66 38zM109 444q22 -8 53.5 -10t53.5 -8q9 35 19 66
q-12 2 -31 1t-38 -6t-35 -15.5t-22 -27.5z" />
    <glyph glyph-name="percent" unicode="%" horiz-adv-x="362" 
d="M63 -1q-2 41 4 80.5t18 78.5q20 68 49.5 127t56.5 119q2 2 2.5 5t2.5 6q-11 -1 -21 -2t-21 -2q-11 -31 -29 -58t-52 -34q-17 -4 -31 1.5t-23.5 16t-15 24.5t-6.5 28q-2 30 8 56.5t27 49.5q10 13 24.5 15t28.5 -7q4 -2 7 -2.5t6 -1.5q33 -5 48 -33q5 -11 8 -12.5t14 0.5
q13 2 25 3.5t24 3.5l39 39q9 9 17.5 6t13.5 -13t4.5 -22.5t-7.5 -21.5q-36 -45 -57 -99t-41 -106q-12 -30 -24.5 -62t-26 -64.5t-26 -64.5t-24.5 -60q-9 -17 -15.5 -15.5t-6.5 21.5zM62 373q17 11 25.5 25.5t13.5 31.5q-5 22 -13 24.5t-13 3.5q-5 -10 -9.5 -20t-7 -20.5
t-2 -21.5t5.5 -23zM256 130h4q16 5 29 1t21 -13.5t11.5 -22.5t1.5 -26q-5 -29 -29 -48.5t-49 -27.5q-17 -6 -34 0t-28 20q-13 16 -15.5 32.5t2 32.5t14 30.5t20.5 27.5q2 3 5 5q29 23 47 -11zM227 51q19 4 30.5 15t-1.5 27q-2 2 -5 4t-6 5q-6 -14 -13 -25t-5 -26z" />
    <glyph glyph-name="ampersand" unicode="&#x26;" horiz-adv-x="606" 
d="M376 278q-44 -11 -87 -26.5t-80.5 -37t-66 -49.5t-43.5 -65q-20 -48 -6.5 -70.5t42.5 -26.5q30 -5 68.5 7.5t76 32t69 42t46.5 39.5q-2 26 -2 52.5t9 49.5q3 10 13 14t21.5 2.5t20.5 -9t9 -19.5q1 -18 0.5 -27t-0.5 -26q7 3 18.5 12t24 17.5t23.5 13.5t16 1q5 -5 6 -16.5
t-1 -16.5q-16 -31 -34 -55l-36 -48q7 -22 15 -38t17 -29t19.5 -25t22.5 -25q18 -16 10.5 -19.5t-25 -0.5t-36.5 9.5t-25 9.5q-20 12 -35 28.5t-26 36.5q-66 -39 -124.5 -63t-123.5 -24q-54 0 -95 30t-64 75q-10 24 -11.5 48t3.5 47q7 37 26 65.5t43 50t50 36.5t48 25
q-20 21 -26 46t-2.5 50t14.5 49t25 44q26 33 66.5 56t83.5 29.5t82.5 -7.5t63.5 -55q9 -17 11.5 -30.5t2.5 -30.5q-3 -12 -13 -4q-8 7 -15 15q-22 30 -59.5 36t-76.5 -4.5t-71.5 -34t-44.5 -52.5q-9 -23 7 -41.5t43.5 -31.5t60.5 -18.5t57 -1.5q15 4 18.5 -1t0.5 -13
t-10 -16.5t-14 -11.5z" />
    <glyph glyph-name="parenleft" unicode="(" horiz-adv-x="242" 
d="M134 -106q-45 33 -72.5 71t-41 81t-16.5 89.5t2 97.5q5 65 22 131t43 126.5t59.5 112.5t72.5 91q13 12 26.5 24.5t27.5 22.5q12 9 23.5 4.5t18 -15.5t7.5 -25.5t-8 -24.5q-38 -42 -72.5 -95t-62.5 -112t-47.5 -121.5t-27 -125t-1.5 -122.5t29 -113q10 -23 21.5 -44
t23.5 -44q8 -17 9.5 -23.5t-2 -6t-12.5 6.5t-22 14z" />
    <glyph glyph-name="parenright" unicode=")" horiz-adv-x="329" 
d="M145 729q45 -33 72.5 -71t41 -81t16 -89.5t-1.5 -97.5q-5 -65 -22 -131t-43 -126.5t-59.5 -112.5t-72.5 -91q-13 -12 -26.5 -24.5t-27.5 -22.5q-12 -9 -23.5 -4.5t-18 15.5t-7.5 25t8 25q37 41 71 93.5t62 112t47.5 123t27.5 126.5t2.5 122.5t-28.5 111.5
q-10 23 -21.5 44t-23.5 44q-8 17 -9.5 23.5t2 6t12.5 -6.5t22 -14z" />
    <glyph glyph-name="asterisk" unicode="*" horiz-adv-x="325" 
d="M176 635q-8 -13 -14.5 -24t-13.5 -22q-4 -6 -8 -11t-12 -3q-6 1 -8 11t-2.5 21.5t0.5 22t1 13.5q-8 -5 -13.5 -8.5t-10.5 -6.5q-12 -9 -21 -3q-10 8 -5 21q8 14 17.5 23.5t22.5 17.5q-7 6 -13.5 11t-11.5 12q-4 5 -3.5 11.5t5.5 9.5q9 12 23 4q9 -5 17.5 -9.5t17.5 -9.5
l7.5 15t8.5 14q6 9 13.5 10.5t13.5 -1.5t10 -9.5t4 -15.5q0 -3 -4 -13t-4 -14q11 2 21.5 2.5t21.5 -4.5t7.5 -10.5t-11.5 -7.5q-9 -2 -19 -2.5t-19 -8.5q25 -24 31 -53q6 -24 0 -23.5t-19 8.5q-7 8 -14.5 15.5t-15.5 16.5z" />
    <glyph glyph-name="plus" unicode="+" horiz-adv-x="415" 
d="M145 28q2 25 5.5 48.5t8.5 46.5q-14 0 -27 0.5t-27 0.5q-10 0 -21 1t-20 3.5t-15 8t-6 14.5q0 16 17 19q27 3 55 4.5t57 0.5q4 15 7.5 30t6.5 31q2 10 5 20.5t7.5 18.5t11 13t15.5 3q15 -3 15 -20q-2 -25 -6 -50t-10 -51q50 -6 97 -23q14 -5 13.5 -13t-17.5 -8
q-27 -5 -53.5 -6t-52.5 0q-9 -27 -20.5 -52t-25.5 -48q-8 -13 -16 -11t-4 19z" />
    <glyph glyph-name="hyphen" unicode="-" horiz-adv-x="415" 
d="M317 126q-54 -8 -106 -5t-106 3q-10 0 -21 1t-20 3.5t-15 8t-6 14.5q0 16 17 19q64 8 133 4t128 -27q14 -5 13.5 -13t-17.5 -8z" />
    <glyph glyph-name="less" unicode="&#x3c;" horiz-adv-x="379" 
d="M95 209q25 -27 48 -50.5t44 -47.5t40.5 -50t36.5 -57q4 -12 0 -15.5t-11 -2.5t-14.5 4.5t-11.5 5.5q-51 40 -99.5 81t-102.5 76q-18 11 -20 30.5t10 33.5q57 59 114.5 104.5t126.5 75.5q10 4 22 4t21.5 -3.5t14 -10t0.5 -15.5q-49 -39 -106 -81t-111 -80z" />
    <glyph glyph-name="equal" unicode="=" horiz-adv-x="427" 
d="M333 162q-54 -8 -106 -5t-106 3q-10 0 -21 1t-20 3.5t-15 8t-6 14.5q0 16 17 19q64 8 133 4t128 -27q14 -5 13.5 -13t-17.5 -8zM315 79q-54 -8 -106 -5t-106 3q-10 0 -21 1t-20 3.5t-15 8t-6 14.5q0 16 17 19q64 8 133 4t128 -27q14 -5 13.5 -13t-17.5 -8z" />
    <glyph glyph-name="colon" unicode=":" horiz-adv-x="256" 
d="M107 34q-43 3 -43 34q1 19 14.5 33t32.5 14q15 0 25 -11t9 -25q-2 -20 -11 -33t-27 -12zM129 181q-43 3 -43 34q1 19 14.5 33t32.5 14q15 0 25 -11t9 -25q-2 -20 -11 -33t-27 -12z" />
    <glyph glyph-name="semicolon" unicode=";" horiz-adv-x="254" 
d="M129 181q-43 3 -43 34q1 19 14.5 33t32.5 14q15 0 25 -11t9 -25q-2 -20 -11 -33t-27 -12zM68 -39q3 11 6.5 22t6.5 22t-4 16q-14 11 -16 27t4.5 29.5t19.5 21.5t30 3q14 -5 23.5 -19.5t1.5 -45.5q-5 -25 -18.5 -44t-30.5 -36q-14 -14 -20.5 -12t-2.5 16z" />
    <glyph glyph-name="greater" unicode="&#x3e;" horiz-adv-x="366" 
d="M211 209q0 1 -1 2q-48 38 -98.5 80t-93.5 81q-3 9 2.5 15.5t15.5 10t22 3.5t22 -4q64 -30 114.5 -75.5t98.5 -104.5q10 -14 5 -33.5t-25 -30.5q-59 -35 -114.5 -76t-112.5 -81q-4 -2 -12.5 -5.5t-15.5 -4.5t-10.5 2.5t2.5 15.5q22 31 45.5 57t48 50t51.5 47.5t56 50.5z
" />
    <glyph glyph-name="underscore" unicode="_" horiz-adv-x="541" 
d="M426 -53q-79 -9 -156 -5.5t-155 3.5q-15 0 -31 1t-29.5 4t-22 8.5t-8.5 14.5q0 17 25 20q47 4 96.5 5.5t99 -1t97 -9.5t90.5 -19q21 -5 20.5 -13.5t-26.5 -8.5z" />
    <glyph glyph-name="asciicircum" unicode="^" horiz-adv-x="310" 
d="M218 594q-11 8 -20.5 27.5t-25.5 38.5q-20 -20 -36.5 -41t-36.5 -38q-9 -8 -18 -6t-15 9t-7.5 17t5.5 18q15 17 29 34.5t29 34.5q16 20 39 21t40 -25q14 -20 23.5 -43t13.5 -45q3 -8 2 -10.5t-4.5 -1.5t-8 4t-9.5 6z" />
    <glyph glyph-name="asciitilde" unicode="~" horiz-adv-x="359" 
d="M302 186q-20 -64 -82 -76q-19 -4 -32.5 2t-24.5 16.5t-20 22.5t-18 20.5t-18.5 10t-22.5 -8.5q-14 -10 -26 -21l-24 -22q-6 -6 -15 -2q-10 8 -4.5 21t17 26.5t24.5 24t19 14.5q16 10 32.5 10t32.5 -11q15 -12 25.5 -24t20.5 -20.5t22 -10t29 9.5l26 16t25 16q10 6 13 0.5
t1 -14.5z" />
    <glyph glyph-name="braceright" unicode="}" horiz-adv-x="338" 
d="M167 306q-18 17 -25 42t-7 54t5 61.5t10 64.5q4 28 1.5 53.5t-25.5 36.5q-5 4 -10.5 7t-10.5 7q-6 2 -3 9t11 11q34 19 57.5 20.5t38 -12.5t18.5 -40.5t-1 -62.5q-3 -28 -10.5 -62t-8 -63.5t11.5 -49.5t47 -20q11 0 23 2t17 -5q4 -6 -1.5 -18t-16.5 -23.5t-24 -21
t-22 -11.5q-15 -2 -38 -13t-34 -31q-11 -18 -17 -40t-10 -45t-7.5 -45.5t-7.5 -42.5q-8 -34 -22 -69t-42 -71q-12 -16 -26.5 -26.5t-29.5 -15t-28 -2.5t-22 11q-8 11 7 22q27 15 44.5 36.5t28.5 47t17 55.5t11 62q5 25 11.5 50.5t17 49.5t28 46.5t44.5 41.5z" />
    <glyph glyph-name="bracketright" unicode="]" horiz-adv-x="298" 
d="M280 701q-6 -32 -14.5 -83.5t-20 -114.5t-26.5 -133t-33.5 -139.5t-41 -134t-49.5 -115.5q2 -2 4 -2.5t4 -2.5q5 -4 4 -14t-6 -20.5t-13.5 -18.5t-19.5 -8q-10 0 -34.5 -2.5t-50 -3t-43.5 3.5t-15 18q5 13 20 22.5t33.5 15.5t37 9.5t31.5 5.5q21 85 43 176.5t44 184.5
t42.5 183.5t37.5 174.5q-12 0 -23.5 -1t-20.5 0t-16 5.5t-11 15.5q-9 20 26 25q33 7 62.5 7t63.5 5q12 1 16.5 -3t3.5 -11.5t-7.5 -17t-15.5 -17.5q-3 -2 -5.5 -4t-6.5 -6z" />
    <glyph glyph-name="bracketleft" unicode="[" horiz-adv-x="285" 
d="M203 701q-2 4 -3.5 6t-3.5 4q-5 8 -6.5 17.5t0.5 17t9 11.5t18 3q32 -5 61.5 -5t58.5 -7q17 -2 19.5 -9t-5.5 -16q-10 -11 -19 -15.5t-19 -5.5t-20.5 0t-22.5 1q-25 -84 -50 -174.5t-49.5 -183.5t-48 -184.5t-45.5 -176.5q12 -2 29 -5.5t32.5 -9.5t26 -15.5t8.5 -22.5
q-3 -14 -23.5 -18t-46 -3.5t-49 3t-33.5 2.5q-11 0 -15.5 8t-4.5 18.5t4.5 20.5t11.5 14q2 2 4.5 2.5t5.5 2.5q-2 51 8 115.5t26 134t36.5 139.5t40.5 133t37.5 114.5t27.5 83.5z" />
    <glyph glyph-name="braceleft" unicode="{" horiz-adv-x="259" 
d="M122 306q19 -19 26.5 -41.5t8 -46.5t-4.5 -49.5t-10 -50.5q-9 -32 -16 -62t-7 -55.5t8.5 -47t29.5 -36.5q12 -10 -2 -22q-26 -19 -54.5 -9t-38.5 42q-12 36 -11 71t8 69q4 20 10.5 42.5t12 45.5t9 45t0.5 40q-3 20 -21 31t-32 13q-9 2 -17.5 11.5t-14.5 21t-7 23.5t6 18
q8 7 19.5 5t22.5 -2q35 0 55.5 20t32.5 49.5t19.5 63.5t15.5 62q10 36 26 62.5t36 40.5t43 12.5t49 -20.5q7 -4 7 -11t-7 -9q-7 -4 -14 -7t-14 -7q-28 -11 -41 -36.5t-21 -53.5q-9 -32 -18 -64.5t-21.5 -61.5t-30 -54t-42.5 -42z" />
    <glyph glyph-name="Euro" unicode="&#x20ac;" horiz-adv-x="409" 
d="M81 292q-18 -2 -32.5 -3t-28.5 -1q-10 0 -15.5 5t-6.5 12t2.5 12.5t12.5 7.5q17 2 37.5 2.5t37.5 1.5q6 1 9.5 2t6.5 7q16 31 42.5 68t59.5 69t71 53.5t77 21.5q19 0 33 -8t19 -25q1 -4 -0.5 -10t-5 -10.5t-8 -6t-8.5 3.5l-3 3q-4 7 -9 8.5t-12 -0.5q-35 -8 -63 -27.5
t-51 -44.5t-42.5 -52.5t-35.5 -51.5q22 -1 41.5 -3.5t38.5 -4.5q11 -2 10 -7.5t-11 -6.5q-19 -3 -40 -3.5t-45 -5.5q-8 -2 -12 -6q-6 -7 -12 -25t-8 -29q25 -3 49 -4.5t48 -6.5q4 -1 13.5 -3t15.5 -4t5.5 -4.5t-15.5 -3.5q-32 -3 -63.5 -6t-63.5 -5q-8 -50 0 -81.5
t30.5 -46.5t58 -15t83.5 13q21 6 38 13q19 9 22 6t-1.5 -10t-13.5 -15.5t-13 -11.5q-42 -32 -82 -45t-88 -3q-36 6 -58 27.5t-32.5 50.5t-12 60t3.5 57q-9 2 -18.5 1.5t-17.5 -0.5q-7 0 -10.5 4t-4 9.5t2.5 10t9 6.5q11 3 23.5 3h23.5q5 14 9.5 28t9.5 30z" />
    <glyph glyph-name="cent" unicode="&#xa2;" horiz-adv-x="286" 
d="M172 370q11 0 24 -0.5t24 -4t18.5 -11t7.5 -22.5q0 -12 -7 -22.5t-18 -5.5q-5 1 -15.5 2t-21 -0.5t-19 -5t-9.5 -10.5q-3 -12 -7.5 -27.5l-9 -31t-8.5 -30.5t-5 -25q7 -3 19.5 1t24.5 10t22 11.5t13 6.5q5 2 7.5 -1t1.5 -7q-5 -15 -15.5 -30t-25 -27t-31 -19.5
t-31.5 -7.5q-9 -2 -12 -10q-3 -7 -5 -13t-5 -14q-10 -20 -17 -18.5t-7 21.5q0 8 1.5 16t2.5 16q-16 0 -28.5 7.5t-21.5 19.5t-13.5 27t-3.5 29q3 27 13.5 50t27.5 43t37.5 35.5t39.5 26.5q5 2 5.5 8t1.5 11q1 6 3 16.5t5 20.5t7 17.5t10 8.5q11 -1 15 -10.5t4 -17.5
q2 -8 1.5 -16.5t-0.5 -16.5zM111 293q-9 -5 -19.5 -22t-17.5 -36t-7.5 -36t11.5 -22q2 8 6.5 24t10 34t10 34t6.5 24z" />
    <glyph glyph-name="sterling" unicode="&#xa3;" horiz-adv-x="372" 
d="M41 218q-6 2 -13 2t-13 2q-7 3 -10 10.5t-3 16t4 16t10 9.5h6.5h11h10.5h6q9 33 17 63.5t18.5 58.5t25 53.5t34.5 48.5q11 11 21.5 20t23.5 15q23 12 51.5 9.5t52 -17.5t37 -42.5t7.5 -66.5q-1 -6 -6 -8t-11 -0.5t-12 5.5t-9 9q-4 5 -5.5 10t-3.5 10q-7 15 -18.5 22.5
t-24.5 7.5t-26.5 -7t-24.5 -19q-26 -31 -44 -77t-26 -88q4 0 19.5 -1.5t33.5 -3.5t36 -5.5t28 -7.5t8.5 -9t-21.5 -11q-29 -8 -58 -12.5t-57 -12.5q-6 -31 -8 -61.5t-4 -62.5q14 6 39 8.5t54 0t58.5 -9.5t53.5 -19t37.5 -29t11.5 -40q0 -3 -4 -5t-10 0q-24 6 -54 12t-62.5 9
t-66 0.5t-64.5 -13.5q-6 -2 -11.5 -5.5t-11.5 -6.5q-9 -3 -17 -0.5t-14 8.5t-8 14.5t1 16.5q2 5 2 9.5t-1 9.5q-6 21 -6.5 41.5t1.5 41.5t5 41t4 40z" />
    <glyph glyph-name="currency" unicode="&#xa4;" horiz-adv-x="313" 
d="M69 150q-18 15 -23.5 35.5t-3 42t11.5 41.5t20 34q-10 12 -22 27t-22 32q-2 2 -2.5 5t-1.5 5q1 14 11.5 17t18.5 -7q14 -14 23 -26.5t19 -23.5q10 4 19 7.5t17 6.5q0 10 1 12q7 7 17.5 10t22 2.5t21.5 -3t18 -6.5q3 0 4 -2q1 0 2 -1q4 6 6.5 12.5t7.5 11.5q3 5 8 8
q9 6 17.5 2t10.5 -15q2 -12 0 -24t-10 -22q-8 -9 -3 -20q11 -26 6.5 -49.5t-18.5 -46.5l-15 -21q14 -9 21 -22.5t12 -28.5q3 -14 -8 -22q-5 -3 -11 -2.5t-11 7.5q-7 10 -14.5 19.5t-15.5 20.5q-23 -19 -49 -28.5t-57 -3.5q-6 -10 -11.5 -19.5t-10.5 -18.5q-4 -8 -6 -11
q-12 -15 -26 -5q-12 7 -8 23q10 25 27 43l3 1.5t4 2.5zM174 312q-4 -2 -6.5 -5t-6.5 -5q-42 -26 -52 -74q-3 -16 4 -25q4 -5 9 -3.5t10 3.5q22 8 36.5 23.5t26.5 35.5q9 18 -5 34z" />
    <glyph glyph-name="yen" unicode="&#xa5;" horiz-adv-x="328" 
d="M139 217q-12 -2 -22.5 -2t-20.5 -1q-14 -2 -18 7q-4 11 -0.5 20t11.5 11q12 4 28 3.5t28 -0.5q8 0 9.5 1t3.5 8q4 10 8 21q-7 6 -23 21t-35.5 34.5t-39.5 42.5t-35.5 46.5t-22.5 45.5t-1 40q2 4 8 10t13.5 8.5t15 0.5t13.5 -12q32 -60 65 -110t62 -85q26 38 44 80.5
t40 82.5q5 10 13.5 12.5t16.5 -0.5t13.5 -10t4.5 -17q-1 -15 -7 -33t-14 -36t-16.5 -35t-14.5 -30q-10 -23 -21.5 -44t-22.5 -44q0 -1 -0.5 -2t-0.5 -3q13 -5 25.5 -10t25.5 -10q8 -3 10.5 -9t-8.5 -6q-14 0 -28 -1t-28 -1q-11 0 -12 -1.5t-4 -10.5q-2 -4 -2 -5
q20 -3 39 -5.5t37 -10.5q13 -4 9 -9t-11 -7q-24 -3 -47 -7.5t-46 -8.5q-11 -35 -21 -70.5t-30 -62.5q-10 -13 -18 1q-5 10 -7 27t-1.5 35.5t2.5 37.5t5 33q-9 0 -16.5 -1t-14.5 3q-5 2 -7.5 8t-2 12.5t5 11.5t15.5 5h10.5t12.5 0.5t10.5 2t5.5 4.5q2 5 4 10.5t5 13.5z" />
    <glyph glyph-name="circumflex" unicode="&#x2c6;" horiz-adv-x="304" 
d="M218 594q-11 8 -20.5 27.5t-25.5 38.5q-20 -20 -36.5 -41t-36.5 -38q-9 -8 -18 -6t-15 9t-7.5 17t5.5 18q15 17 29 34.5t29 34.5q16 20 39 21t40 -25q14 -20 23.5 -43t13.5 -45q3 -8 2 -10.5t-4.5 -1.5t-8 4t-9.5 6z" />
    <glyph glyph-name="dieresis" unicode="&#xa8;" horiz-adv-x="393" 
d="M136 606q-43 3 -43 34q1 19 14.5 33t32.5 14q15 0 25 -11t9 -25q-2 -20 -11 -33t-27 -12zM256 606q-43 3 -43 34q1 19 14.5 33t32.5 14q15 0 25 -11t9 -25q-2 -20 -11 -33t-27 -12z" />
    <glyph glyph-name="acute" unicode="&#xb4;" horiz-adv-x="312" 
d="M134 624q-7 -4 -17 -10t-17 -8.5t-8 1.5t11 22q11 13 22 25.5t22 23.5q25 26 55 49q8 7 16 2t8 -14q0 -11 -10.5 -24.5t-25.5 -26.5t-30.5 -23.5t-25.5 -16.5z" />
    <glyph glyph-name="tilde" unicode="&#x2dc;" horiz-adv-x="350" 
d="M295 661q-16 -55 -66 -65q-23 -5 -37 8t-25.5 27.5t-22 23t-25.5 -4.5q-11 -8 -21 -18t-20 -19q-5 -5 -12 -2q-8 7 -3.5 18t13.5 22.5t19.5 21t15.5 12.5q13 8 26.5 8.5t26.5 -9.5q12 -10 20.5 -20.5t17 -17.5t18 -8.5t23.5 7.5q10 8 20.5 14.5t20.5 13.5q8 5 10.5 0.5
t0.5 -12.5z" />
    <glyph glyph-name="cedilla" unicode="&#xb8;" horiz-adv-x="299" 
d="M90 -108q29 3 57 13.5t39 37.5q-17 1 -31.5 1.5t-28.5 -1.5q-11 0 -17.5 8t-4.5 18q3 11 6 23t7 24q1 5 3.5 9t5.5 7q5 5 9 4t4 -7q2 -7 1.5 -13.5t-0.5 -13.5q0 -5 -0.5 -11t-0.5 -13h28t29.5 -3.5t22 -12t7.5 -25.5q-2 -20 -12.5 -36t-26.5 -28q-52 -41 -107 -4
q-12 7 -14.5 11.5t0.5 7t9.5 3.5t14.5 1z" />
    <glyph glyph-name="grave" unicode="`" horiz-adv-x="287" 
d="M163 624q-10 6 -25.5 16.5t-30.5 23.5t-25.5 26.5t-10.5 24.5q0 9 8 14t16 -2q30 -23 55 -49q11 -11 22 -23.5t22 -25.5q12 -18 11 -22t-8 -1.5t-17 8.5t-17 10z" />
    <glyph glyph-name="ring" unicode="&#x2da;" horiz-adv-x="328" 
d="M168 701h3q14 4 25 0.5t18.5 -11.5t10.5 -19.5t1 -22.5q-5 -25 -25.5 -42t-42.5 -24q-14 -5 -29 0.5t-24 16.5q-12 14 -14 28.5t2 28t12.5 26.5t17.5 24q1 3 4 4q25 20 41 -9zM133 621q12 3 23 8t17.5 12t6.5 16t-9 19q-3 3 -6.5 5t-8.5 7q-8 -18 -17 -32.5t-6 -34.5z
" />
    <glyph glyph-name="Agrave" unicode="&#xc0;" horiz-adv-x="707" 
d="M608 340q23 -3 45 -10t28 -31q4 -16 -12 -27q-18 -9 -36.5 -12t-38.5 -6q-1 0 -3 -2t-2 -4q-23 -76 -37 -158.5t-31 -160.5q-2 -5 -5 -10t-8 -5q-7 0 -10 4t-5 9q-19 88 -19 176q2 36 6 71t12 69v3q-5 2 -26 2.5t-46 0t-47.5 -1t-31.5 -0.5q-6 0 -23 -10
q-41 -28 -76.5 -61.5t-71.5 -64.5t-76 -55.5t-89 -34.5q-14 -2 -26 10q-5 5 0.5 12.5t13.5 13.5q60 43 116 91.5t110 97.5q2 2 4 3.5t7 5.5q-44 6 -84.5 16.5t-82.5 18.5q-14 5 -28 9t-27 11q-7 8 0.5 9.5t12.5 1.5q15 2 28.5 3.5t28.5 3.5q64 1 117.5 4t106.5 3q5 0 8.5 2
t7.5 4q45 42 83.5 86t74 90t68.5 93.5t67 95.5q16 23 44 16q8 -3 15 -12.5t7 -20.5q-8 -90 -29.5 -173.5t-38.5 -167.5q0 -2 -0.5 -4.5t-0.5 -3.5zM541 467q-12 -14 -29 -31l-35 -35t-34.5 -35.5t-27.5 -30.5h1q17 0 45 1.5t45 1.5q1 0 2 1l2 2q11 32 17 63.5t14 62.5z
M666 804q-10 6 -25.5 16.5t-30.5 23.5t-25.5 26.5t-10.5 24.5q0 9 8 14t16 -2q30 -23 55 -49q11 -11 22 -23.5t22 -25.5q12 -18 11 -22t-8 -1.5t-17 8.5t-17 10z" />
    <glyph glyph-name="agrave" unicode="&#xe0;" 
d="M119 61q-9 -7 -20 -15.5t-24 -15t-27.5 -10t-30.5 -0.5q-12 2 -22 8.5t-19 15.5t-11 26t-1 27q5 26 14 55t22 57q22 46 56 82t82 46q16 4 33.5 1.5t30.5 -11.5t20 -22.5t3 -29.5q-2 -6 -4.5 -12t-6 -10t-6.5 -4.5t-6 5.5q-1 3 -2.5 8.5t-4.5 11t-8.5 10t-14.5 4.5
q-19 0 -43 -23.5t-46 -55t-38 -63t-20 -47.5q-6 -26 1 -27.5t22 11t34 34.5t36 43.5t29.5 38t13.5 17.5q13 10 26 9t22.5 -9.5t13 -21t-2.5 -25.5q-7 -16 -18.5 -38t-14.5 -39q-3 -26 6 -34t33 1q19 8 40 28.5t41.5 43.5t38.5 44t30 31q3 3 7.5 6.5t7.5 1.5q5 -2 5.5 -5.5
t0.5 -7.5q-13 -32 -31 -63t-40.5 -57.5t-50 -47t-59.5 -32.5q-20 -7 -36 -4.5t-29 11.5t-21 23t-11 30zM198 624q-10 6 -25.5 16.5t-30.5 23.5t-25.5 26.5t-10.5 24.5q0 9 8 14t16 -2q30 -23 55 -49q11 -11 22 -23.5t22 -25.5q12 -18 11 -22t-8 -1.5t-17 8.5t-17 10z" />
    <glyph glyph-name="aacute" unicode="&#xe1;" 
d="M119 61q-9 -7 -20 -15.5t-24 -15t-27.5 -10t-30.5 -0.5q-12 2 -22 8.5t-19 15.5t-11 26t-1 27q5 26 14 55t22 57q22 46 56 82t82 46q16 4 33.5 1.5t30.5 -11.5t20 -22.5t3 -29.5q-2 -6 -4.5 -12t-6 -10t-6.5 -4.5t-6 5.5q-1 3 -2.5 8.5t-4.5 11t-8.5 10t-14.5 4.5
q-19 0 -43 -23.5t-46 -55t-38 -63t-20 -47.5q-6 -26 1 -27.5t22 11t34 34.5t36 43.5t29.5 38t13.5 17.5q13 10 26 9t22.5 -9.5t13 -21t-2.5 -25.5q-7 -16 -18.5 -38t-14.5 -39q-3 -26 6 -34t33 1q19 8 40 28.5t41.5 43.5t38.5 44t30 31q3 3 7.5 6.5t7.5 1.5q5 -2 5.5 -5.5
t0.5 -7.5q-13 -32 -31 -63t-40.5 -57.5t-50 -47t-59.5 -32.5q-20 -7 -36 -4.5t-29 11.5t-21 23t-11 30zM169 624q-7 -4 -17 -10t-17 -8.5t-8 1.5t11 22q11 13 22 25.5t22 23.5q25 26 55 49q8 7 16 2t8 -14q0 -11 -10.5 -24.5t-25.5 -26.5t-30.5 -23.5t-25.5 -16.5z" />
    <glyph glyph-name="Aacute" unicode="&#xc1;" horiz-adv-x="707" 
d="M608 340q23 -3 45 -10t28 -31q4 -16 -12 -27q-18 -9 -36.5 -12t-38.5 -6q-1 0 -3 -2t-2 -4q-23 -76 -37 -158.5t-31 -160.5q-2 -5 -5 -10t-8 -5q-7 0 -10 4t-5 9q-19 88 -19 176q2 36 6 71t12 69v3q-5 2 -26 2.5t-46 0t-47.5 -1t-31.5 -0.5q-6 0 -23 -10
q-41 -28 -76.5 -61.5t-71.5 -64.5t-76 -55.5t-89 -34.5q-14 -2 -26 10q-5 5 0.5 12.5t13.5 13.5q60 43 116 91.5t110 97.5q2 2 4 3.5t7 5.5q-44 6 -84.5 16.5t-82.5 18.5q-14 5 -28 9t-27 11q-7 8 0.5 9.5t12.5 1.5q15 2 28.5 3.5t28.5 3.5q64 1 117.5 4t106.5 3q5 0 8.5 2
t7.5 4q45 42 83.5 86t74 90t68.5 93.5t67 95.5q16 23 44 16q8 -3 15 -12.5t7 -20.5q-8 -90 -29.5 -173.5t-38.5 -167.5q0 -2 -0.5 -4.5t-0.5 -3.5zM541 467q-12 -14 -29 -31l-35 -35t-34.5 -35.5t-27.5 -30.5h1q17 0 45 1.5t45 1.5q1 0 2 1l2 2q11 32 17 63.5t14 62.5z
M666 803q-7 -4 -17 -10t-17 -8.5t-8 1.5t11 22q11 13 22 25.5t22 23.5q25 26 55 49q8 7 16 2t8 -14q0 -11 -10.5 -24.5t-25.5 -26.5t-30.5 -23.5t-25.5 -16.5z" />
    <glyph glyph-name="Acircumflex" unicode="&#xc2;" horiz-adv-x="707" 
d="M608 340q23 -3 45 -10t28 -31q4 -16 -12 -27q-18 -9 -36.5 -12t-38.5 -6q-1 0 -3 -2t-2 -4q-23 -76 -37 -158.5t-31 -160.5q-2 -5 -5 -10t-8 -5q-7 0 -10 4t-5 9q-19 88 -19 176q2 36 6 71t12 69v3q-5 2 -26 2.5t-46 0t-47.5 -1t-31.5 -0.5q-6 0 -23 -10
q-41 -28 -76.5 -61.5t-71.5 -64.5t-76 -55.5t-89 -34.5q-14 -2 -26 10q-5 5 0.5 12.5t13.5 13.5q60 43 116 91.5t110 97.5q2 2 4 3.5t7 5.5q-44 6 -84.5 16.5t-82.5 18.5q-14 5 -28 9t-27 11q-7 8 0.5 9.5t12.5 1.5q15 2 28.5 3.5t28.5 3.5q64 1 117.5 4t106.5 3q5 0 8.5 2
t7.5 4q45 42 83.5 86t74 90t68.5 93.5t67 95.5q16 23 44 16q8 -3 15 -12.5t7 -20.5q-8 -90 -29.5 -173.5t-38.5 -167.5q0 -2 -0.5 -4.5t-0.5 -3.5zM541 467q-12 -14 -29 -31l-35 -35t-34.5 -35.5t-27.5 -30.5h1q17 0 45 1.5t45 1.5q1 0 2 1l2 2q11 32 17 63.5t14 62.5z
M742 801q-11 8 -20.5 27.5t-25.5 38.5q-20 -20 -36.5 -41t-36.5 -38q-9 -8 -18 -6t-15 9t-7.5 17t5.5 18q15 17 29 34.5t29 34.5q16 20 39 21t40 -25q14 -20 23.5 -43t13.5 -45q3 -8 2 -10.5t-4.5 -1.5t-8 4t-9.5 6z" />
    <glyph glyph-name="acircumflex" unicode="&#xe2;" 
d="M119 61q-9 -7 -20 -15.5t-24 -15t-27.5 -10t-30.5 -0.5q-12 2 -22 8.5t-19 15.5t-11 26t-1 27q5 26 14 55t22 57q22 46 56 82t82 46q16 4 33.5 1.5t30.5 -11.5t20 -22.5t3 -29.5q-2 -6 -4.5 -12t-6 -10t-6.5 -4.5t-6 5.5q-1 3 -2.5 8.5t-4.5 11t-8.5 10t-14.5 4.5
q-19 0 -43 -23.5t-46 -55t-38 -63t-20 -47.5q-6 -26 1 -27.5t22 11t34 34.5t36 43.5t29.5 38t13.5 17.5q13 10 26 9t22.5 -9.5t13 -21t-2.5 -25.5q-7 -16 -18.5 -38t-14.5 -39q-3 -26 6 -34t33 1q19 8 40 28.5t41.5 43.5t38.5 44t30 31q3 3 7.5 6.5t7.5 1.5q5 -2 5.5 -5.5
t0.5 -7.5q-13 -32 -31 -63t-40.5 -57.5t-50 -47t-59.5 -32.5q-20 -7 -36 -4.5t-29 11.5t-21 23t-11 30zM256 594q-11 8 -20.5 27.5t-25.5 38.5q-20 -20 -36.5 -41t-36.5 -38q-9 -8 -18 -6t-15 9t-7.5 17t5.5 18q15 17 29 34.5t29 34.5q16 20 39 21t40 -25q14 -20 23.5 -43
t13.5 -45q3 -8 2 -10.5t-4.5 -1.5t-8 4t-9.5 6z" />
    <glyph glyph-name="atilde" unicode="&#xe3;" 
d="M119 61q-9 -7 -20 -15.5t-24 -15t-27.5 -10t-30.5 -0.5q-12 2 -22 8.5t-19 15.5t-11 26t-1 27q5 26 14 55t22 57q22 46 56 82t82 46q16 4 33.5 1.5t30.5 -11.5t20 -22.5t3 -29.5q-2 -6 -4.5 -12t-6 -10t-6.5 -4.5t-6 5.5q-1 3 -2.5 8.5t-4.5 11t-8.5 10t-14.5 4.5
q-19 0 -43 -23.5t-46 -55t-38 -63t-20 -47.5q-6 -26 1 -27.5t22 11t34 34.5t36 43.5t29.5 38t13.5 17.5q13 10 26 9t22.5 -9.5t13 -21t-2.5 -25.5q-7 -16 -18.5 -38t-14.5 -39q-3 -26 6 -34t33 1q19 8 40 28.5t41.5 43.5t38.5 44t30 31q3 3 7.5 6.5t7.5 1.5q5 -2 5.5 -5.5
t0.5 -7.5q-13 -32 -31 -63t-40.5 -57.5t-50 -47t-59.5 -32.5q-20 -7 -36 -4.5t-29 11.5t-21 23t-11 30zM307 661q-16 -55 -66 -65q-23 -5 -37 8t-25.5 27.5t-22 23t-25.5 -4.5q-11 -8 -21 -18t-20 -19q-5 -5 -12 -2q-8 7 -3.5 18t13.5 22.5t19.5 21t15.5 12.5q13 8 26.5 8.5
t26.5 -9.5q12 -10 20.5 -20.5t17 -17.5t18 -8.5t23.5 7.5q10 8 20.5 14.5t20.5 13.5q8 5 10.5 0.5t0.5 -12.5z" />
    <glyph glyph-name="Atilde" unicode="&#xc3;" horiz-adv-x="707" 
d="M608 340q23 -3 45 -10t28 -31q4 -16 -12 -27q-18 -9 -36.5 -12t-38.5 -6q-1 0 -3 -2t-2 -4q-23 -76 -37 -158.5t-31 -160.5q-2 -5 -5 -10t-8 -5q-7 0 -10 4t-5 9q-19 88 -19 176q2 36 6 71t12 69v3q-5 2 -26 2.5t-46 0t-47.5 -1t-31.5 -0.5q-6 0 -23 -10
q-41 -28 -76.5 -61.5t-71.5 -64.5t-76 -55.5t-89 -34.5q-14 -2 -26 10q-5 5 0.5 12.5t13.5 13.5q60 43 116 91.5t110 97.5q2 2 4 3.5t7 5.5q-44 6 -84.5 16.5t-82.5 18.5q-14 5 -28 9t-27 11q-7 8 0.5 9.5t12.5 1.5q15 2 28.5 3.5t28.5 3.5q64 1 117.5 4t106.5 3q5 0 8.5 2
t7.5 4q45 42 83.5 86t74 90t68.5 93.5t67 95.5q16 23 44 16q8 -3 15 -12.5t7 -20.5q-8 -90 -29.5 -173.5t-38.5 -167.5q0 -2 -0.5 -4.5t-0.5 -3.5zM541 467q-12 -14 -29 -31l-35 -35t-34.5 -35.5t-27.5 -30.5h1q17 0 45 1.5t45 1.5q1 0 2 1l2 2q11 32 17 63.5t14 62.5z
M806 847q-16 -55 -66 -65q-23 -5 -37 8t-25.5 27.5t-22 23t-25.5 -4.5q-11 -8 -21 -18t-20 -19q-5 -5 -12 -2q-8 7 -3.5 18t13.5 22.5t19.5 21t15.5 12.5q13 8 26.5 8.5t26.5 -9.5q12 -10 20.5 -20.5t17 -17.5t18 -8.5t23.5 7.5q10 8 20.5 14.5t20.5 13.5q8 5 10.5 0.5
t0.5 -12.5z" />
    <glyph glyph-name="Adieresis" unicode="&#xc4;" horiz-adv-x="707" 
d="M608 340q23 -3 45 -10t28 -31q4 -16 -12 -27q-18 -9 -36.5 -12t-38.5 -6q-1 0 -3 -2t-2 -4q-23 -76 -37 -158.5t-31 -160.5q-2 -5 -5 -10t-8 -5q-7 0 -10 4t-5 9q-19 88 -19 176q2 36 6 71t12 69v3q-5 2 -26 2.5t-46 0t-47.5 -1t-31.5 -0.5q-6 0 -23 -10
q-41 -28 -76.5 -61.5t-71.5 -64.5t-76 -55.5t-89 -34.5q-14 -2 -26 10q-5 5 0.5 12.5t13.5 13.5q60 43 116 91.5t110 97.5q2 2 4 3.5t7 5.5q-44 6 -84.5 16.5t-82.5 18.5q-14 5 -28 9t-27 11q-7 8 0.5 9.5t12.5 1.5q15 2 28.5 3.5t28.5 3.5q64 1 117.5 4t106.5 3q5 0 8.5 2
t7.5 4q45 42 83.5 86t74 90t68.5 93.5t67 95.5q16 23 44 16q8 -3 15 -12.5t7 -20.5q-8 -90 -29.5 -173.5t-38.5 -167.5q0 -2 -0.5 -4.5t-0.5 -3.5zM541 467q-12 -14 -29 -31l-35 -35t-34.5 -35.5t-27.5 -30.5h1q17 0 45 1.5t45 1.5q1 0 2 1l2 2q11 32 17 63.5t14 62.5z
M609 781q-43 3 -43 34q1 19 14.5 33t32.5 14q15 0 25 -11t9 -25q-2 -20 -11 -33t-27 -12zM729 781q-43 3 -43 34q1 19 14.5 33t32.5 14q15 0 25 -11t9 -25q-2 -20 -11 -33t-27 -12z" />
    <glyph glyph-name="adieresis" unicode="&#xe4;" 
d="M119 61q-9 -7 -20 -15.5t-24 -15t-27.5 -10t-30.5 -0.5q-12 2 -22 8.5t-19 15.5t-11 26t-1 27q5 26 14 55t22 57q22 46 56 82t82 46q16 4 33.5 1.5t30.5 -11.5t20 -22.5t3 -29.5q-2 -6 -4.5 -12t-6 -10t-6.5 -4.5t-6 5.5q-1 3 -2.5 8.5t-4.5 11t-8.5 10t-14.5 4.5
q-19 0 -43 -23.5t-46 -55t-38 -63t-20 -47.5q-6 -26 1 -27.5t22 11t34 34.5t36 43.5t29.5 38t13.5 17.5q13 10 26 9t22.5 -9.5t13 -21t-2.5 -25.5q-7 -16 -18.5 -38t-14.5 -39q-3 -26 6 -34t33 1q19 8 40 28.5t41.5 43.5t38.5 44t30 31q3 3 7.5 6.5t7.5 1.5q5 -2 5.5 -5.5
t0.5 -7.5q-13 -32 -31 -63t-40.5 -57.5t-50 -47t-59.5 -32.5q-20 -7 -36 -4.5t-29 11.5t-21 23t-11 30zM126 606q-43 3 -43 34q1 19 14.5 33t32.5 14q15 0 25 -11t9 -25q-2 -20 -11 -33t-27 -12zM246 606q-43 3 -43 34q1 19 14.5 33t32.5 14q15 0 25 -11t9 -25
q-2 -20 -11 -33t-27 -12z" />
    <glyph glyph-name="aring" unicode="&#xe5;" 
d="M119 61q-9 -7 -20 -15.5t-24 -15t-27.5 -10t-30.5 -0.5q-12 2 -22 8.5t-19 15.5t-11 26t-1 27q5 26 14 55t22 57q22 46 56 82t82 46q16 4 33.5 1.5t30.5 -11.5t20 -22.5t3 -29.5q-2 -6 -4.5 -12t-6 -10t-6.5 -4.5t-6 5.5q-1 3 -2.5 8.5t-4.5 11t-8.5 10t-14.5 4.5
q-19 0 -43 -23.5t-46 -55t-38 -63t-20 -47.5q-6 -26 1 -27.5t22 11t34 34.5t36 43.5t29.5 38t13.5 17.5q13 10 26 9t22.5 -9.5t13 -21t-2.5 -25.5q-7 -16 -18.5 -38t-14.5 -39q-3 -26 6 -34t33 1q19 8 40 28.5t41.5 43.5t38.5 44t30 31q3 3 7.5 6.5t7.5 1.5q5 -2 5.5 -5.5
t0.5 -7.5q-13 -32 -31 -63t-40.5 -57.5t-50 -47t-59.5 -32.5q-20 -7 -36 -4.5t-29 11.5t-21 23t-11 30zM199 701h3q14 4 25 0.5t18.5 -11.5t10.5 -19.5t1 -22.5q-5 -25 -25.5 -42t-42.5 -24q-14 -5 -29 0.5t-24 16.5q-12 14 -14 28.5t2 28t12.5 26.5t17.5 24q1 3 4 4
q25 20 41 -9zM164 621q12 3 23 8t17.5 12t6.5 16t-9 19q-3 3 -6.5 5t-8.5 7q-8 -18 -17 -32.5t-6 -34.5z" />
    <glyph glyph-name="Aring" unicode="&#xc5;" horiz-adv-x="707" 
d="M608 340q23 -3 45 -10t28 -31q4 -16 -12 -27q-18 -9 -36.5 -12t-38.5 -6q-1 0 -3 -2t-2 -4q-23 -76 -37 -158.5t-31 -160.5q-2 -5 -5 -10t-8 -5q-7 0 -10 4t-5 9q-19 88 -19 176q2 36 6 71t12 69v3q-5 2 -26 2.5t-46 0t-47.5 -1t-31.5 -0.5q-6 0 -23 -10
q-41 -28 -76.5 -61.5t-71.5 -64.5t-76 -55.5t-89 -34.5q-14 -2 -26 10q-5 5 0.5 12.5t13.5 13.5q60 43 116 91.5t110 97.5q2 2 4 3.5t7 5.5q-44 6 -84.5 16.5t-82.5 18.5q-14 5 -28 9t-27 11q-7 8 0.5 9.5t12.5 1.5q15 2 28.5 3.5t28.5 3.5q64 1 117.5 4t106.5 3q5 0 8.5 2
t7.5 4q45 42 83.5 86t74 90t68.5 93.5t67 95.5q16 23 44 16q8 -3 15 -12.5t7 -20.5q-8 -90 -29.5 -173.5t-38.5 -167.5q0 -2 -0.5 -4.5t-0.5 -3.5zM541 467q-12 -14 -29 -31l-35 -35t-34.5 -35.5t-27.5 -30.5h1q17 0 45 1.5t45 1.5q1 0 2 1l2 2q11 32 17 63.5t14 62.5z
M696 902h3q14 4 25 0.5t18.5 -11.5t10.5 -19.5t1 -22.5q-5 -25 -25.5 -42t-42.5 -24q-14 -5 -29 0.5t-24 16.5q-12 14 -14 28.5t2 28t12.5 26.5t17.5 24q1 3 4 4q25 20 41 -9zM661 822q12 3 23 8t17.5 12t6.5 16t-9 19q-3 3 -6.5 5t-8.5 7q-8 -18 -17 -32.5t-6 -34.5z" />
    <glyph glyph-name="Ccedilla" unicode="&#xc7;" horiz-adv-x="611" 
d="M117 -157q29 3 57 13.5t39 37.5q-17 1 -31.5 1.5t-28.5 -1.5q-11 0 -17.5 8t-4.5 18t4.5 20t5.5 20q-31 4 -54 18t-39.5 35t-27.5 46.5t-17 54.5q-2 9 -3.5 20.5t-1.5 22.5q0 52 10.5 96.5t25.5 86.5q6 19 16 37q29 61 74.5 117.5t101 103t117.5 81.5t125 53q17 6 33 0
q5 -2 10 -2t11 5q15 9 31.5 1t18.5 -28q3 -28 -7 -55q-7 -24 -14.5 -45t-15.5 -42.5t-15 -46.5t-12 -57q-1 -5 -3.5 -11.5t-5.5 -8.5q-5 -9 -13.5 -10.5t-15.5 6.5q-2 3 -4.5 6t-4.5 7q-10 23 -12.5 52t1 58.5t14 55t26.5 42.5q-2 0 -7 -3t-11 -6.5t-11 -6.5t-6 -3
q-14 -8 -27.5 -15t-25.5 -15q-58 -37 -108.5 -79t-92.5 -91q-28 -32 -52 -68.5t-41.5 -76t-27 -80.5t-8.5 -82q1 -30 7 -56.5t20 -40.5q22 -21 52.5 -19.5t66 18t74.5 45.5t76.5 63.5t72 72t62.5 71.5q7 6 13.5 17t14.5 18q8 5 13.5 -3t5.5 -16q-2 -43 -18.5 -78.5
t-39.5 -65.5q-28 -36 -66 -71.5t-81 -64.5t-89 -47t-89 -18v-5q0 -5 -0.5 -11t-0.5 -13h28t29.5 -3.5t22 -12t7.5 -25.5q-2 -20 -12.5 -36t-26.5 -28q-52 -41 -107 -4q-12 7 -14.5 11.5t0.5 7t9.5 3.5t14.5 1z" />
    <glyph glyph-name="ccedilla" unicode="&#xe7;" horiz-adv-x="286" 
d="M30 -71q22 2 44.5 10t30.5 29q-13 1 -24.5 1.5t-22.5 -1.5q-9 0 -14 6.5t-3 14.5l6 26q-19 2 -35 11.5t-26 27.5q-17 31 -14 71.5t20.5 78t46.5 64t64 28.5q11 2 22.5 -6.5t14.5 -19.5q3 -9 1 -20t-5.5 -24.5t-7.5 -29.5t-7 -33q-2 -6 -5.5 -6.5t-6.5 4.5
q-11 17 -13.5 32.5t-5.5 29.5q-6 0 -15.5 -11.5t-18.5 -28.5t-15 -36.5t-6 -34.5q0 -20 6 -30t15 -12t21 1t24 9q53 25 102 53.5t94 64.5q11 5 13.5 -0.5t-1.5 -13.5q-6 -12 -15 -22t-20 -19q-23 -21 -38.5 -34.5t-26 -21.5t-17.5 -13t-13 -9q-23 -14 -45.5 -27t-42.5 -19
q-6 -2 -11.5 -3t-10.5 -2q0 -4 -0.5 -8.5t-0.5 -9.5q10 0 22 -0.5t22.5 -3t17.5 -9t6 -19.5q-4 -31 -31 -50q-40 -32 -83 -3q-18 11 -11 14.5t19 3.5z" />
    <glyph glyph-name="egrave" unicode="&#xe8;" horiz-adv-x="266" 
d="M-27 89q-2 38 8 79t30 75.5t50.5 56.5t71.5 23q21 -5 32.5 -21t6.5 -39q-4 -22 -11.5 -37.5t-25.5 -32.5q-9 -8 -25 -21t-31 -27t-26 -28.5t-11 -24.5q-3 -26 8 -33.5t28.5 -6t35.5 9.5t29 14q13 9 29 22.5t32 28.5t31 29t25 23q8 8 14.5 15t15.5 12q8 2 12.5 1t-1.5 -15
q-8 -17 -19.5 -32t-24.5 -30q-18 -20 -38.5 -42t-43 -40.5t-47 -32t-50.5 -17.5q-46 -3 -75.5 19t-29.5 72zM133 277q-27 -10 -42.5 -26t-22.5 -47q22 16 39.5 32.5t25.5 40.5zM148 624q-10 6 -25.5 16.5t-30.5 23.5t-25.5 26.5t-10.5 24.5q0 9 8 14t16 -2q30 -23 55 -49
q11 -11 22 -23.5t22 -25.5q12 -18 11 -22t-8 -1.5t-17 8.5t-17 10z" />
    <glyph glyph-name="Egrave" unicode="&#xc8;" horiz-adv-x="624" 
d="M93 -4q-14 5 -26 12.5t-21 18.5q-14 12 -21 26.5t-14 28.5q-6 17 -7 34t1 35q3 20 10 38t16 35q24 40 59.5 71.5t74.5 53.5q2 2 3 2.5t3 2.5q-6 5 -10.5 9t-9.5 9q0 2 -1.5 3.5l-3.5 3.5q-11 18 -11.5 37.5t6.5 39.5q12 35 36.5 69t57 65.5t70 58.5t75 47.5t73 33.5
t63.5 15q32 3 54 -11q14 -7 26 -16.5t10 -26.5q-8 -51 -11 -99.5t-3 -98.5q-2 -6 -2 -11t-7 -7q-15 -5 -29 9q-20 19 -29 40.5t-11 44t2 45.5t11 46q-2 5 -20 2q-23 -4 -51.5 -17t-60 -31.5t-62 -41t-57 -46t-46 -47t-27.5 -42.5q-6 -14 -1.5 -24t26.5 -10q21 0 42 4.5
t46.5 13.5t58 23t76.5 34q15 4 16.5 -6t-2.5 -23.5t-11 -26t-10 -15.5q-16 -13 -37 -23.5t-43.5 -20.5t-44 -20.5t-38.5 -22.5t-41 -29t-49.5 -37t-49 -43t-39.5 -46.5t-20.5 -47t7.5 -45.5q7 -13 24.5 -17t40.5 -1.5t50.5 10t55.5 18.5q75 29 139.5 62.5t121.5 74.5
q10 7 18 15q2 3 5 -2t5 -13.5t3.5 -19t1.5 -20.5q-3 -34 -28 -60t-61 -46q-42 -24 -88 -43.5t-93.5 -31.5t-96 -13.5t-94.5 11.5zM431 808q-10 6 -25.5 16.5t-30.5 23.5t-25.5 26.5t-10.5 24.5q0 9 8 14t16 -2q30 -23 55 -49q11 -11 22 -23.5t22 -25.5q12 -18 11 -22
t-8 -1.5t-17 8.5t-17 10z" />
    <glyph glyph-name="Eacute" unicode="&#xc9;" horiz-adv-x="624" 
d="M93 -4q-14 5 -26 12.5t-21 18.5q-14 12 -21 26.5t-14 28.5q-6 17 -7 34t1 35q3 20 10 38t16 35q24 40 59.5 71.5t74.5 53.5q2 2 3 2.5t3 2.5q-6 5 -10.5 9t-9.5 9q0 2 -1.5 3.5l-3.5 3.5q-11 18 -11.5 37.5t6.5 39.5q12 35 36.5 69t57 65.5t70 58.5t75 47.5t73 33.5
t63.5 15q32 3 54 -11q14 -7 26 -16.5t10 -26.5q-8 -51 -11 -99.5t-3 -98.5q-2 -6 -2 -11t-7 -7q-15 -5 -29 9q-20 19 -29 40.5t-11 44t2 45.5t11 46q-2 5 -20 2q-23 -4 -51.5 -17t-60 -31.5t-62 -41t-57 -46t-46 -47t-27.5 -42.5q-6 -14 -1.5 -24t26.5 -10q21 0 42 4.5
t46.5 13.5t58 23t76.5 34q15 4 16.5 -6t-2.5 -23.5t-11 -26t-10 -15.5q-16 -13 -37 -23.5t-43.5 -20.5t-44 -20.5t-38.5 -22.5t-41 -29t-49.5 -37t-49 -43t-39.5 -46.5t-20.5 -47t7.5 -45.5q7 -13 24.5 -17t40.5 -1.5t50.5 10t55.5 18.5q75 29 139.5 62.5t121.5 74.5
q10 7 18 15q2 3 5 -2t5 -13.5t3.5 -19t1.5 -20.5q-3 -34 -28 -60t-61 -46q-42 -24 -88 -43.5t-93.5 -31.5t-96 -13.5t-94.5 11.5zM425 804q-7 -4 -17 -10t-17 -8.5t-8 1.5t11 22q11 13 22 25.5t22 23.5q25 26 55 49q8 7 16 2t8 -14q0 -11 -10.5 -24.5t-25.5 -26.5
t-30.5 -23.5t-25.5 -16.5z" />
    <glyph glyph-name="eacute" unicode="&#xe9;" horiz-adv-x="266" 
d="M-27 89q-2 38 8 79t30 75.5t50.5 56.5t71.5 23q21 -5 32.5 -21t6.5 -39q-4 -22 -11.5 -37.5t-25.5 -32.5q-9 -8 -25 -21t-31 -27t-26 -28.5t-11 -24.5q-3 -26 8 -33.5t28.5 -6t35.5 9.5t29 14q13 9 29 22.5t32 28.5t31 29t25 23q8 8 14.5 15t15.5 12q8 2 12.5 1t-1.5 -15
q-8 -17 -19.5 -32t-24.5 -30q-18 -20 -38.5 -42t-43 -40.5t-47 -32t-50.5 -17.5q-46 -3 -75.5 19t-29.5 72zM133 277q-27 -10 -42.5 -26t-22.5 -47q22 16 39.5 32.5t25.5 40.5zM119 624q-7 -4 -17 -10t-17 -8.5t-8 1.5t11 22q11 13 22 25.5t22 23.5q25 26 55 49q8 7 16 2
t8 -14q0 -11 -10.5 -24.5t-25.5 -26.5t-30.5 -23.5t-25.5 -16.5z" />
    <glyph glyph-name="ecircumflex" unicode="&#xea;" horiz-adv-x="266" 
d="M-27 89q-2 38 8 79t30 75.5t50.5 56.5t71.5 23q21 -5 32.5 -21t6.5 -39q-4 -22 -11.5 -37.5t-25.5 -32.5q-9 -8 -25 -21t-31 -27t-26 -28.5t-11 -24.5q-3 -26 8 -33.5t28.5 -6t35.5 9.5t29 14q13 9 29 22.5t32 28.5t31 29t25 23q8 8 14.5 15t15.5 12q8 2 12.5 1t-1.5 -15
q-8 -17 -19.5 -32t-24.5 -30q-18 -20 -38.5 -42t-43 -40.5t-47 -32t-50.5 -17.5q-46 -3 -75.5 19t-29.5 72zM133 277q-27 -10 -42.5 -26t-22.5 -47q22 16 39.5 32.5t25.5 40.5zM206 594q-11 8 -20.5 27.5t-25.5 38.5q-20 -20 -36.5 -41t-36.5 -38q-9 -8 -18 -6t-15 9
t-7.5 17t5.5 18q15 17 29 34.5t29 34.5q16 20 39 21t40 -25q14 -20 23.5 -43t13.5 -45q3 -8 2 -10.5t-4.5 -1.5t-8 4t-9.5 6z" />
    <glyph glyph-name="Ecircumflex" unicode="&#xca;" horiz-adv-x="624" 
d="M93 -4q-14 5 -26 12.5t-21 18.5q-14 12 -21 26.5t-14 28.5q-6 17 -7 34t1 35q3 20 10 38t16 35q24 40 59.5 71.5t74.5 53.5q2 2 3 2.5t3 2.5q-6 5 -10.5 9t-9.5 9q0 2 -1.5 3.5l-3.5 3.5q-11 18 -11.5 37.5t6.5 39.5q12 35 36.5 69t57 65.5t70 58.5t75 47.5t73 33.5
t63.5 15q32 3 54 -11q14 -7 26 -16.5t10 -26.5q-8 -51 -11 -99.5t-3 -98.5q-2 -6 -2 -11t-7 -7q-15 -5 -29 9q-20 19 -29 40.5t-11 44t2 45.5t11 46q-2 5 -20 2q-23 -4 -51.5 -17t-60 -31.5t-62 -41t-57 -46t-46 -47t-27.5 -42.5q-6 -14 -1.5 -24t26.5 -10q21 0 42 4.5
t46.5 13.5t58 23t76.5 34q15 4 16.5 -6t-2.5 -23.5t-11 -26t-10 -15.5q-16 -13 -37 -23.5t-43.5 -20.5t-44 -20.5t-38.5 -22.5t-41 -29t-49.5 -37t-49 -43t-39.5 -46.5t-20.5 -47t7.5 -45.5q7 -13 24.5 -17t40.5 -1.5t50.5 10t55.5 18.5q75 29 139.5 62.5t121.5 74.5
q10 7 18 15q2 3 5 -2t5 -13.5t3.5 -19t1.5 -20.5q-3 -34 -28 -60t-61 -46q-42 -24 -88 -43.5t-93.5 -31.5t-96 -13.5t-94.5 11.5zM506 800q-11 8 -20.5 27.5t-25.5 38.5q-20 -20 -36.5 -41t-36.5 -38q-9 -8 -18 -6t-15 9t-7.5 17t5.5 18q15 17 29 34.5t29 34.5q16 20 39 21
t40 -25q14 -20 23.5 -43t13.5 -45q3 -8 2 -10.5t-4.5 -1.5t-8 4t-9.5 6z" />
    <glyph glyph-name="Edieresis" unicode="&#xcb;" horiz-adv-x="624" 
d="M93 -4q-14 5 -26 12.5t-21 18.5q-14 12 -21 26.5t-14 28.5q-6 17 -7 34t1 35q3 20 10 38t16 35q24 40 59.5 71.5t74.5 53.5q2 2 3 2.5t3 2.5q-6 5 -10.5 9t-9.5 9q0 2 -1.5 3.5l-3.5 3.5q-11 18 -11.5 37.5t6.5 39.5q12 35 36.5 69t57 65.5t70 58.5t75 47.5t73 33.5
t63.5 15q32 3 54 -11q14 -7 26 -16.5t10 -26.5q-8 -51 -11 -99.5t-3 -98.5q-2 -6 -2 -11t-7 -7q-15 -5 -29 9q-20 19 -29 40.5t-11 44t2 45.5t11 46q-2 5 -20 2q-23 -4 -51.5 -17t-60 -31.5t-62 -41t-57 -46t-46 -47t-27.5 -42.5q-6 -14 -1.5 -24t26.5 -10q21 0 42 4.5
t46.5 13.5t58 23t76.5 34q15 4 16.5 -6t-2.5 -23.5t-11 -26t-10 -15.5q-16 -13 -37 -23.5t-43.5 -20.5t-44 -20.5t-38.5 -22.5t-41 -29t-49.5 -37t-49 -43t-39.5 -46.5t-20.5 -47t7.5 -45.5q7 -13 24.5 -17t40.5 -1.5t50.5 10t55.5 18.5q75 29 139.5 62.5t121.5 74.5
q10 7 18 15q2 3 5 -2t5 -13.5t3.5 -19t1.5 -20.5q-3 -34 -28 -60t-61 -46q-42 -24 -88 -43.5t-93.5 -31.5t-96 -13.5t-94.5 11.5zM402 783q-43 3 -43 34q1 19 14.5 33t32.5 14q15 0 25 -11t9 -25q-2 -20 -11 -33t-27 -12zM522 783q-43 3 -43 34q1 19 14.5 33t32.5 14
q15 0 25 -11t9 -25q-2 -20 -11 -33t-27 -12z" />
    <glyph glyph-name="edieresis" unicode="&#xeb;" horiz-adv-x="266" 
d="M-27 89q-2 38 8 79t30 75.5t50.5 56.5t71.5 23q21 -5 32.5 -21t6.5 -39q-4 -22 -11.5 -37.5t-25.5 -32.5q-9 -8 -25 -21t-31 -27t-26 -28.5t-11 -24.5q-3 -26 8 -33.5t28.5 -6t35.5 9.5t29 14q13 9 29 22.5t32 28.5t31 29t25 23q8 8 14.5 15t15.5 12q8 2 12.5 1t-1.5 -15
q-8 -17 -19.5 -32t-24.5 -30q-18 -20 -38.5 -42t-43 -40.5t-47 -32t-50.5 -17.5q-46 -3 -75.5 19t-29.5 72zM133 277q-27 -10 -42.5 -26t-22.5 -47q22 16 39.5 32.5t25.5 40.5zM75 606q-43 3 -43 34q1 19 14.5 33t32.5 14q15 0 25 -11t9 -25q-2 -20 -11 -33t-27 -12z
M195 606q-43 3 -43 34q1 19 14.5 33t32.5 14q15 0 25 -11t9 -25q-2 -20 -11 -33t-27 -12z" />
    <glyph glyph-name="igrave" unicode="&#xec;" horiz-adv-x="215" 
d="M226 211l12 12h1v-2q2 -23 -4 -34.5t-6 -12.5q-10 -15 -27 -38.5t-35.5 -48t-35.5 -45t-27 -29.5q-12 -14 -26 -26q-5 -4 -13.5 -7t-17.5 -4.5t-17.5 -0.5t-13.5 5q-17 11 -26.5 26.5t-9.5 33.5q-3 55 9.5 112.5t29.5 104.5q5 14 14 29q9 9 21 5t21.5 -16.5t14 -30.5
t-1.5 -36q-5 -17 -9 -32.5t-9 -32.5q-2 -8 -6.5 -23t-9.5 -31.5t-9 -31.5t-5 -23q-2 -15 8 -8t27 24q41 42 78 81.5t73 79.5zM122 624q-10 6 -25.5 16.5t-30.5 23.5t-25.5 26.5t-10.5 24.5q0 9 8 14t16 -2q30 -23 55 -49q11 -11 22 -23.5t22 -25.5q12 -18 11 -22t-8 -1.5
t-17 8.5t-17 10z" />
    <glyph glyph-name="Igrave" unicode="&#xcc;" horiz-adv-x="467" 
d="M301 625q-48 -16 -87 -29.5t-80 -33.5q-17 -9 -26 3q-8 20 -0.5 40t24.5 34q37 28 97 49t124.5 32t126 10.5t101.5 -15.5q15 -5 20.5 -20t0.5 -30q-2 -8 -9.5 -15t-16.5 -11t-19 -4t-18 6q-5 4 -13 5t-15 2q-24 1 -57.5 0t-62.5 -6q-14 -38 -27.5 -74.5t-27.5 -72.5
q-22 -56 -41.5 -112t-34 -112.5t-23 -113.5t-8.5 -116q29 1 57 1t54 -6q48 -12 89 -45q6 -6 10 -16t-7 -13q-5 -1 -11 -1h-11q-89 6 -172.5 5t-168.5 -23q-8 -2 -14.5 -4.5t-14.5 -5.5q-19 -8 -29 3.5t-7 28.5q2 16 12 23.5t21 12.5q32 14 63 19.5t62 13.5q-16 62 -11 125.5
t22.5 126t41.5 123.5t46 118q12 29 22 52t18 46zM367 799q-10 6 -25.5 16.5t-30.5 23.5t-25.5 26.5t-10.5 24.5q0 9 8 14t16 -2q30 -23 55 -49q11 -11 22 -23.5t22 -25.5q12 -18 11 -22t-8 -1.5t-17 8.5t-17 10z" />
    <glyph glyph-name="Iacute" unicode="&#xcd;" horiz-adv-x="467" 
d="M301 625q-48 -16 -87 -29.5t-80 -33.5q-17 -9 -26 3q-8 20 -0.5 40t24.5 34q37 28 97 49t124.5 32t126 10.5t101.5 -15.5q15 -5 20.5 -20t0.5 -30q-2 -8 -9.5 -15t-16.5 -11t-19 -4t-18 6q-5 4 -13 5t-15 2q-24 1 -57.5 0t-62.5 -6q-14 -38 -27.5 -74.5t-27.5 -72.5
q-22 -56 -41.5 -112t-34 -112.5t-23 -113.5t-8.5 -116q29 1 57 1t54 -6q48 -12 89 -45q6 -6 10 -16t-7 -13q-5 -1 -11 -1h-11q-89 6 -172.5 5t-168.5 -23q-8 -2 -14.5 -4.5t-14.5 -5.5q-19 -8 -29 3.5t-7 28.5q2 16 12 23.5t21 12.5q32 14 63 19.5t62 13.5q-16 62 -11 125.5
t22.5 126t41.5 123.5t46 118q12 29 22 52t18 46zM379 796q-7 -4 -17 -10t-17 -8.5t-8 1.5t11 22q11 13 22 25.5t22 23.5q25 26 55 49q8 7 16 2t8 -14q0 -11 -10.5 -24.5t-25.5 -26.5t-30.5 -23.5t-25.5 -16.5z" />
    <glyph glyph-name="iacute" unicode="&#xed;" horiz-adv-x="215" 
d="M226 211l12 12h1v-2q2 -23 -4 -34.5t-6 -12.5q-10 -15 -27 -38.5t-35.5 -48t-35.5 -45t-27 -29.5q-12 -14 -26 -26q-5 -4 -13.5 -7t-17.5 -4.5t-17.5 -0.5t-13.5 5q-17 11 -26.5 26.5t-9.5 33.5q-3 55 9.5 112.5t29.5 104.5q5 14 14 29q9 9 21 5t21.5 -16.5t14 -30.5
t-1.5 -36q-5 -17 -9 -32.5t-9 -32.5q-2 -8 -6.5 -23t-9.5 -31.5t-9 -31.5t-5 -23q-2 -15 8 -8t27 24q41 42 78 81.5t73 79.5zM93 624q-7 -4 -17 -10t-17 -8.5t-8 1.5t11 22q11 13 22 25.5t22 23.5q25 26 55 49q8 7 16 2t8 -14q0 -11 -10.5 -24.5t-25.5 -26.5t-30.5 -23.5
t-25.5 -16.5z" />
    <glyph glyph-name="icircumflex" unicode="&#xee;" horiz-adv-x="215" 
d="M226 211l12 12h1v-2q2 -23 -4 -34.5t-6 -12.5q-10 -15 -27 -38.5t-35.5 -48t-35.5 -45t-27 -29.5q-12 -14 -26 -26q-5 -4 -13.5 -7t-17.5 -4.5t-17.5 -0.5t-13.5 5q-17 11 -26.5 26.5t-9.5 33.5q-3 55 9.5 112.5t29.5 104.5q5 14 14 29q9 9 21 5t21.5 -16.5t14 -30.5
t-1.5 -36q-5 -17 -9 -32.5t-9 -32.5q-2 -8 -6.5 -23t-9.5 -31.5t-9 -31.5t-5 -23q-2 -15 8 -8t27 24q41 42 78 81.5t73 79.5zM181 594q-11 8 -20.5 27.5t-25.5 38.5q-20 -20 -36.5 -41t-36.5 -38q-9 -8 -18 -6t-15 9t-7.5 17t5.5 18q15 17 29 34.5t29 34.5q16 20 39 21
t40 -25q14 -20 23.5 -43t13.5 -45q3 -8 2 -10.5t-4.5 -1.5t-8 4t-9.5 6z" />
    <glyph glyph-name="Icircumflex" unicode="&#xce;" horiz-adv-x="467" 
d="M301 625q-48 -16 -87 -29.5t-80 -33.5q-17 -9 -26 3q-8 20 -0.5 40t24.5 34q37 28 97 49t124.5 32t126 10.5t101.5 -15.5q15 -5 20.5 -20t0.5 -30q-2 -8 -9.5 -15t-16.5 -11t-19 -4t-18 6q-5 4 -13 5t-15 2q-24 1 -57.5 0t-62.5 -6q-14 -38 -27.5 -74.5t-27.5 -72.5
q-22 -56 -41.5 -112t-34 -112.5t-23 -113.5t-8.5 -116q29 1 57 1t54 -6q48 -12 89 -45q6 -6 10 -16t-7 -13q-5 -1 -11 -1h-11q-89 6 -172.5 5t-168.5 -23q-8 -2 -14.5 -4.5t-14.5 -5.5q-19 -8 -29 3.5t-7 28.5q2 16 12 23.5t21 12.5q32 14 63 19.5t62 13.5q-16 62 -11 125.5
t22.5 126t41.5 123.5t46 118q12 29 22 52t18 46zM454 796q-11 8 -20.5 27.5t-25.5 38.5q-20 -20 -36.5 -41t-36.5 -38q-9 -8 -18 -6t-15 9t-7.5 17t5.5 18q15 17 29 34.5t29 34.5q16 20 39 21t40 -25q14 -20 23.5 -43t13.5 -45q3 -8 2 -10.5t-4.5 -1.5t-8 4t-9.5 6z" />
    <glyph glyph-name="Idieresis" unicode="&#xcf;" horiz-adv-x="467" 
d="M301 625q-48 -16 -87 -29.5t-80 -33.5q-17 -9 -26 3q-8 20 -0.5 40t24.5 34q37 28 97 49t124.5 32t126 10.5t101.5 -15.5q15 -5 20.5 -20t0.5 -30q-2 -8 -9.5 -15t-16.5 -11t-19 -4t-18 6q-5 4 -13 5t-15 2q-24 1 -57.5 0t-62.5 -6q-14 -38 -27.5 -74.5t-27.5 -72.5
q-22 -56 -41.5 -112t-34 -112.5t-23 -113.5t-8.5 -116q29 1 57 1t54 -6q48 -12 89 -45q6 -6 10 -16t-7 -13q-5 -1 -11 -1h-11q-89 6 -172.5 5t-168.5 -23q-8 -2 -14.5 -4.5t-14.5 -5.5q-19 -8 -29 3.5t-7 28.5q2 16 12 23.5t21 12.5q32 14 63 19.5t62 13.5q-16 62 -11 125.5
t22.5 126t41.5 123.5t46 118q12 29 22 52t18 46zM333 781q-43 3 -43 34q1 19 14.5 33t32.5 14q15 0 25 -11t9 -25q-2 -20 -11 -33t-27 -12zM453 781q-43 3 -43 34q1 19 14.5 33t32.5 14q15 0 25 -11t9 -25q-2 -20 -11 -33t-27 -12z" />
    <glyph glyph-name="idieresis" unicode="&#xef;" horiz-adv-x="215" 
d="M226 211l12 12h1v-2q2 -23 -4 -34.5t-6 -12.5q-10 -15 -27 -38.5t-35.5 -48t-35.5 -45t-27 -29.5q-12 -14 -26 -26q-5 -4 -13.5 -7t-17.5 -4.5t-17.5 -0.5t-13.5 5q-17 11 -26.5 26.5t-9.5 33.5q-3 55 9.5 112.5t29.5 104.5q5 14 14 29q9 9 21 5t21.5 -16.5t14 -30.5
t-1.5 -36q-5 -17 -9 -32.5t-9 -32.5q-2 -8 -6.5 -23t-9.5 -31.5t-9 -31.5t-5 -23q-2 -15 8 -8t27 24q41 42 78 81.5t73 79.5zM50 606q-43 3 -43 34q1 19 14.5 33t32.5 14q15 0 25 -11t9 -25q-2 -20 -11 -33t-27 -12zM170 606q-43 3 -43 34q1 19 14.5 33t32.5 14q15 0 25 -11
t9 -25q-2 -20 -11 -33t-27 -12z" />
    <glyph glyph-name="ntilde" unicode="&#xf1;" horiz-adv-x="342" 
d="M7 32q-4 -8 -6 -10q-16 -11 -22 6q-2 8 -3 15t-1 15q-1 22 0 44q3 25 12 54.5t21.5 58.5t26 54.5t25.5 41.5q6 9 16.5 10t20.5 -5t16 -17t3 -25q-1 -1 -4 -6t-6 -11t-6 -11.5t-4 -6.5q11 8 22 18t22.5 19t23.5 15.5t26 6.5q17 0 30 -9.5t21.5 -23t10.5 -29t-2 -29.5
q-9 -27 -25 -52.5t-32.5 -50.5t-30.5 -50.5t-20 -52.5q-6 -21 -0.5 -26t14.5 -2t18.5 10t13.5 10q41 32 77 70.5t71 73.5q30 30 37.5 32.5t2 -10t-18 -33.5t-22.5 -37q-12 -20 -33 -48.5t-46.5 -55t-52.5 -45t-50 -18.5q-17 0 -30 7.5t-22 18.5t-13.5 25t-4.5 28
q0 50 20.5 98t43.5 88q11 21 6 29t-29 -3q-20 -9 -37 -32.5t-31.5 -51t-26.5 -54.5t-22 -43zM295 661q-16 -55 -66 -65q-23 -5 -37 8t-25.5 27.5t-22 23t-25.5 -4.5q-11 -8 -21 -18t-20 -19q-5 -5 -12 -2q-8 7 -3.5 18t13.5 22.5t19.5 21t15.5 12.5q13 8 26.5 8.5t26.5 -9.5
q12 -10 20.5 -20.5t17 -17.5t18 -8.5t23.5 7.5q10 8 20.5 14.5t20.5 13.5q8 5 10.5 0.5t0.5 -12.5z" />
    <glyph glyph-name="Ntilde" unicode="&#xd1;" horiz-adv-x="643" 
d="M624 591q-84 -48 -161 -111t-146 -133t-129 -144t-110 -144q-10 -14 -15.5 -27.5t-12.5 -25.5q-6 -11 -14.5 -7t-16.5 16.5t-13.5 29.5t-5.5 32q4 92 17.5 169.5t33.5 150t45 144t51 152.5q5 16 15 19t21.5 -2t23.5 -16.5t21 -25.5t13.5 -28t2.5 -24q-10 -39 -27 -79
t-39 -92.5t-47 -124t-52 -172.5q51 58 113 132t135.5 147t158.5 138t182 106q15 7 28 -1.5t24 -19.5q16 -14 14.5 -33.5t-8.5 -33.5q-41 -68 -76.5 -148t-64 -164t-49.5 -167t-32 -156q-2 -16 -3 -28.5t-1 -31.5q0 -13 -9 -13q-6 0 -12 7.5t-10 17.5q-17 45 -18.5 101.5
t7 117.5t26.5 125t40.5 126t48.5 118.5t51 102.5zM630 842q-16 -55 -66 -65q-23 -5 -37 8t-25.5 27.5t-22 23t-25.5 -4.5q-11 -8 -21 -18t-20 -19q-5 -5 -12 -2q-8 7 -3.5 18t13.5 22.5t19.5 21t15.5 12.5q13 8 26.5 8.5t26.5 -9.5q12 -10 20.5 -20.5t17 -17.5t18 -8.5
t23.5 7.5q10 8 20.5 14.5t20.5 13.5q8 5 10.5 0.5t0.5 -12.5z" />
    <glyph glyph-name="Ograve" unicode="&#xd2;" horiz-adv-x="560" 
d="M445 284q32 -3 52.5 -2t50.5 4q22 3 22 -3.5t-9.5 -15.5t-22.5 -17.5t-17 -9.5q-17 -8 -30 -13.5t-26 -9t-26 -4.5t-29 -1q-18 -32 -45 -72.5t-60.5 -76t-73 -59.5t-81.5 -24q-48 1 -77.5 22t-45.5 52t-21 66t-5 64q0 42 4 82t12 80q5 26 11 52t12 53q7 27 25 32t35 -2.5
t28 -23.5t4 -31q-11 -26 -22 -69.5t-18.5 -92.5t-10.5 -96.5t3 -80.5q4 -23 14.5 -41.5t25.5 -16.5q18 -2 46.5 19.5t57.5 52.5t54 66t36 60q-39 15 -70 45t-53 69t-33.5 83.5t-10 89t16.5 85t46 71.5q41 40 86.5 50t90.5 -7q38 -14 59 -43t29.5 -67t7.5 -81.5t-8 -87
t-16.5 -82.5t-17.5 -68zM336 677q-38 -14 -60.5 -43t-32 -65.5t-7 -77.5t16.5 -78.5t38 -68.5t57 -48q16 30 29 67.5t20 77.5t8 79t-5.5 71.5t-22 55t-41.5 30.5zM362 801q-10 6 -25.5 16.5t-30.5 23.5t-25.5 26.5t-10.5 24.5q0 9 8 14t16 -2q30 -23 55 -49q11 -11 22 -23.5
t22 -25.5q12 -18 11 -22t-8 -1.5t-17 8.5t-17 10z" />
    <glyph glyph-name="ograve" unicode="&#xf2;" horiz-adv-x="297" 
d="M210 197q12 1 26 6t26 8q14 4 29.5 9.5t29.5 8.5q10 0 8 -5.5t-9.5 -13t-17 -14.5t-14.5 -10q-24 -11 -47.5 -17t-44.5 -17q-9 -16 -25 -42.5t-35.5 -51.5t-41 -43t-41.5 -18q-28 0 -48 16q-15 10 -22.5 31t-9 45.5t1.5 48t7 38.5q1 7 3 9.5t4 3.5t4.5 2t4.5 4q3 11 6 23
t9 22q17 30 43.5 55.5t61.5 29.5q22 4 40.5 -2t32.5 -23q12 -13 17 -28.5t6 -30t-1 -26.5zM153 187q2 0 4 2t2 4q8 19 7.5 42t-14.5 37q-7 8 -18 9t-21 -4q-20 -12 -32 -28t-23 -33q0 -5 2 -7q10 -9 9 -20q0 -5 11.5 -6t26 -0.5t28 2.5t18.5 2zM64 33q10 2 22.5 14.5
t24 28.5t20 32.5t11.5 27.5q-20 -2 -43 -2t-43 4q-3 -9 -4 -23.5t0 -30t4 -29.5t8 -22zM163 624q-10 6 -25.5 16.5t-30.5 23.5t-25.5 26.5t-10.5 24.5q0 9 8 14t16 -2q30 -23 55 -49q11 -11 22 -23.5t22 -25.5q12 -18 11 -22t-8 -1.5t-17 8.5t-17 10z" />
    <glyph glyph-name="oacute" unicode="&#xf3;" horiz-adv-x="297" 
d="M210 197q12 1 26 6t26 8q14 4 29.5 9.5t29.5 8.5q10 0 8 -5.5t-9.5 -13t-17 -14.5t-14.5 -10q-24 -11 -47.5 -17t-44.5 -17q-9 -16 -25 -42.5t-35.5 -51.5t-41 -43t-41.5 -18q-28 0 -48 16q-15 10 -22.5 31t-9 45.5t1.5 48t7 38.5q1 7 3 9.5t4 3.5t4.5 2t4.5 4q3 11 6 23
t9 22q17 30 43.5 55.5t61.5 29.5q22 4 40.5 -2t32.5 -23q12 -13 17 -28.5t6 -30t-1 -26.5zM153 187q2 0 4 2t2 4q8 19 7.5 42t-14.5 37q-7 8 -18 9t-21 -4q-20 -12 -32 -28t-23 -33q0 -5 2 -7q10 -9 9 -20q0 -5 11.5 -6t26 -0.5t28 2.5t18.5 2zM64 33q10 2 22.5 14.5
t24 28.5t20 32.5t11.5 27.5q-20 -2 -43 -2t-43 4q-3 -9 -4 -23.5t0 -30t4 -29.5t8 -22zM134 624q-7 -4 -17 -10t-17 -8.5t-8 1.5t11 22q11 13 22 25.5t22 23.5q25 26 55 49q8 7 16 2t8 -14q0 -11 -10.5 -24.5t-25.5 -26.5t-30.5 -23.5t-25.5 -16.5z" />
    <glyph glyph-name="Oacute" unicode="&#xd3;" horiz-adv-x="560" 
d="M445 284q32 -3 52.5 -2t50.5 4q22 3 22 -3.5t-9.5 -15.5t-22.5 -17.5t-17 -9.5q-17 -8 -30 -13.5t-26 -9t-26 -4.5t-29 -1q-18 -32 -45 -72.5t-60.5 -76t-73 -59.5t-81.5 -24q-48 1 -77.5 22t-45.5 52t-21 66t-5 64q0 42 4 82t12 80q5 26 11 52t12 53q7 27 25 32t35 -2.5
t28 -23.5t4 -31q-11 -26 -22 -69.5t-18.5 -92.5t-10.5 -96.5t3 -80.5q4 -23 14.5 -41.5t25.5 -16.5q18 -2 46.5 19.5t57.5 52.5t54 66t36 60q-39 15 -70 45t-53 69t-33.5 83.5t-10 89t16.5 85t46 71.5q41 40 86.5 50t90.5 -7q38 -14 59 -43t29.5 -67t7.5 -81.5t-8 -87
t-16.5 -82.5t-17.5 -68zM336 677q-38 -14 -60.5 -43t-32 -65.5t-7 -77.5t16.5 -78.5t38 -68.5t57 -48q16 30 29 67.5t20 77.5t8 79t-5.5 71.5t-22 55t-41.5 30.5zM320 801q-7 -4 -17 -10t-17 -8.5t-8 1.5t11 22q11 13 22 25.5t22 23.5q25 26 55 49q8 7 16 2t8 -14
q0 -11 -10.5 -24.5t-25.5 -26.5t-30.5 -23.5t-25.5 -16.5z" />
    <glyph glyph-name="Ocircumflex" unicode="&#xd4;" horiz-adv-x="560" 
d="M445 284q32 -3 52.5 -2t50.5 4q22 3 22 -3.5t-9.5 -15.5t-22.5 -17.5t-17 -9.5q-17 -8 -30 -13.5t-26 -9t-26 -4.5t-29 -1q-18 -32 -45 -72.5t-60.5 -76t-73 -59.5t-81.5 -24q-48 1 -77.5 22t-45.5 52t-21 66t-5 64q0 42 4 82t12 80q5 26 11 52t12 53q7 27 25 32t35 -2.5
t28 -23.5t4 -31q-11 -26 -22 -69.5t-18.5 -92.5t-10.5 -96.5t3 -80.5q4 -23 14.5 -41.5t25.5 -16.5q18 -2 46.5 19.5t57.5 52.5t54 66t36 60q-39 15 -70 45t-53 69t-33.5 83.5t-10 89t16.5 85t46 71.5q41 40 86.5 50t90.5 -7q38 -14 59 -43t29.5 -67t7.5 -81.5t-8 -87
t-16.5 -82.5t-17.5 -68zM336 677q-38 -14 -60.5 -43t-32 -65.5t-7 -77.5t16.5 -78.5t38 -68.5t57 -48q16 30 29 67.5t20 77.5t8 79t-5.5 71.5t-22 55t-41.5 30.5zM408 798q-11 8 -20.5 27.5t-25.5 38.5q-20 -20 -36.5 -41t-36.5 -38q-9 -8 -18 -6t-15 9t-7.5 17t5.5 18
q15 17 29 34.5t29 34.5q16 20 39 21t40 -25q14 -20 23.5 -43t13.5 -45q3 -8 2 -10.5t-4.5 -1.5t-8 4t-9.5 6z" />
    <glyph glyph-name="ocircumflex" unicode="&#xf4;" horiz-adv-x="297" 
d="M210 197q12 1 26 6t26 8q14 4 29.5 9.5t29.5 8.5q10 0 8 -5.5t-9.5 -13t-17 -14.5t-14.5 -10q-24 -11 -47.5 -17t-44.5 -17q-9 -16 -25 -42.5t-35.5 -51.5t-41 -43t-41.5 -18q-28 0 -48 16q-15 10 -22.5 31t-9 45.5t1.5 48t7 38.5q1 7 3 9.5t4 3.5t4.5 2t4.5 4q3 11 6 23
t9 22q17 30 43.5 55.5t61.5 29.5q22 4 40.5 -2t32.5 -23q12 -13 17 -28.5t6 -30t-1 -26.5zM153 187q2 0 4 2t2 4q8 19 7.5 42t-14.5 37q-7 8 -18 9t-21 -4q-20 -12 -32 -28t-23 -33q0 -5 2 -7q10 -9 9 -20q0 -5 11.5 -6t26 -0.5t28 2.5t18.5 2zM64 33q10 2 22.5 14.5
t24 28.5t20 32.5t11.5 27.5q-20 -2 -43 -2t-43 4q-3 -9 -4 -23.5t0 -30t4 -29.5t8 -22zM221 594q-11 8 -20.5 27.5t-25.5 38.5q-20 -20 -36.5 -41t-36.5 -38q-9 -8 -18 -6t-15 9t-7.5 17t5.5 18q15 17 29 34.5t29 34.5q16 20 39 21t40 -25q14 -20 23.5 -43t13.5 -45
q3 -8 2 -10.5t-4.5 -1.5t-8 4t-9.5 6z" />
    <glyph glyph-name="otilde" unicode="&#xf5;" horiz-adv-x="297" 
d="M210 197q12 1 26 6t26 8q14 4 29.5 9.5t29.5 8.5q10 0 8 -5.5t-9.5 -13t-17 -14.5t-14.5 -10q-24 -11 -47.5 -17t-44.5 -17q-9 -16 -25 -42.5t-35.5 -51.5t-41 -43t-41.5 -18q-28 0 -48 16q-15 10 -22.5 31t-9 45.5t1.5 48t7 38.5q1 7 3 9.5t4 3.5t4.5 2t4.5 4q3 11 6 23
t9 22q17 30 43.5 55.5t61.5 29.5q22 4 40.5 -2t32.5 -23q12 -13 17 -28.5t6 -30t-1 -26.5zM153 187q2 0 4 2t2 4q8 19 7.5 42t-14.5 37q-7 8 -18 9t-21 -4q-20 -12 -32 -28t-23 -33q0 -5 2 -7q10 -9 9 -20q0 -5 11.5 -6t26 -0.5t28 2.5t18.5 2zM64 33q10 2 22.5 14.5
t24 28.5t20 32.5t11.5 27.5q-20 -2 -43 -2t-43 4q-3 -9 -4 -23.5t0 -30t4 -29.5t8 -22zM273 661q-16 -55 -66 -65q-23 -5 -37 8t-25.5 27.5t-22 23t-25.5 -4.5q-11 -8 -21 -18t-20 -19q-5 -5 -12 -2q-8 7 -3.5 18t13.5 22.5t19.5 21t15.5 12.5q13 8 26.5 8.5t26.5 -9.5
q12 -10 20.5 -20.5t17 -17.5t18 -8.5t23.5 7.5q10 8 20.5 14.5t20.5 13.5q8 5 10.5 0.5t0.5 -12.5z" />
    <glyph glyph-name="Otilde" unicode="&#xd5;" horiz-adv-x="560" 
d="M445 284q32 -3 52.5 -2t50.5 4q22 3 22 -3.5t-9.5 -15.5t-22.5 -17.5t-17 -9.5q-17 -8 -30 -13.5t-26 -9t-26 -4.5t-29 -1q-18 -32 -45 -72.5t-60.5 -76t-73 -59.5t-81.5 -24q-48 1 -77.5 22t-45.5 52t-21 66t-5 64q0 42 4 82t12 80q5 26 11 52t12 53q7 27 25 32t35 -2.5
t28 -23.5t4 -31q-11 -26 -22 -69.5t-18.5 -92.5t-10.5 -96.5t3 -80.5q4 -23 14.5 -41.5t25.5 -16.5q18 -2 46.5 19.5t57.5 52.5t54 66t36 60q-39 15 -70 45t-53 69t-33.5 83.5t-10 89t16.5 85t46 71.5q41 40 86.5 50t90.5 -7q38 -14 59 -43t29.5 -67t7.5 -81.5t-8 -87
t-16.5 -82.5t-17.5 -68zM336 677q-38 -14 -60.5 -43t-32 -65.5t-7 -77.5t16.5 -78.5t38 -68.5t57 -48q16 30 29 67.5t20 77.5t8 79t-5.5 71.5t-22 55t-41.5 30.5zM461 847q-16 -55 -66 -65q-23 -5 -37 8t-25.5 27.5t-22 23t-25.5 -4.5q-11 -8 -21 -18t-20 -19q-5 -5 -12 -2
q-8 7 -3.5 18t13.5 22.5t19.5 21t15.5 12.5q13 8 26.5 8.5t26.5 -9.5q12 -10 20.5 -20.5t17 -17.5t18 -8.5t23.5 7.5q10 8 20.5 14.5t20.5 13.5q8 5 10.5 0.5t0.5 -12.5z" />
    <glyph glyph-name="Odieresis" unicode="&#xd6;" horiz-adv-x="560" 
d="M445 284q32 -3 52.5 -2t50.5 4q22 3 22 -3.5t-9.5 -15.5t-22.5 -17.5t-17 -9.5q-17 -8 -30 -13.5t-26 -9t-26 -4.5t-29 -1q-18 -32 -45 -72.5t-60.5 -76t-73 -59.5t-81.5 -24q-48 1 -77.5 22t-45.5 52t-21 66t-5 64q0 42 4 82t12 80q5 26 11 52t12 53q7 27 25 32t35 -2.5
t28 -23.5t4 -31q-11 -26 -22 -69.5t-18.5 -92.5t-10.5 -96.5t3 -80.5q4 -23 14.5 -41.5t25.5 -16.5q18 -2 46.5 19.5t57.5 52.5t54 66t36 60q-39 15 -70 45t-53 69t-33.5 83.5t-10 89t16.5 85t46 71.5q41 40 86.5 50t90.5 -7q38 -14 59 -43t29.5 -67t7.5 -81.5t-8 -87
t-16.5 -82.5t-17.5 -68zM336 677q-38 -14 -60.5 -43t-32 -65.5t-7 -77.5t16.5 -78.5t38 -68.5t57 -48q16 30 29 67.5t20 77.5t8 79t-5.5 71.5t-22 55t-41.5 30.5zM304 779q-43 3 -43 34q1 19 14.5 33t32.5 14q15 0 25 -11t9 -25q-2 -20 -11 -33t-27 -12zM424 779
q-43 3 -43 34q1 19 14.5 33t32.5 14q15 0 25 -11t9 -25q-2 -20 -11 -33t-27 -12z" />
    <glyph glyph-name="odieresis" unicode="&#xf6;" horiz-adv-x="297" 
d="M210 197q12 1 26 6t26 8q14 4 29.5 9.5t29.5 8.5q10 0 8 -5.5t-9.5 -13t-17 -14.5t-14.5 -10q-24 -11 -47.5 -17t-44.5 -17q-9 -16 -25 -42.5t-35.5 -51.5t-41 -43t-41.5 -18q-28 0 -48 16q-15 10 -22.5 31t-9 45.5t1.5 48t7 38.5q1 7 3 9.5t4 3.5t4.5 2t4.5 4q3 11 6 23
t9 22q17 30 43.5 55.5t61.5 29.5q22 4 40.5 -2t32.5 -23q12 -13 17 -28.5t6 -30t-1 -26.5zM153 187q2 0 4 2t2 4q8 19 7.5 42t-14.5 37q-7 8 -18 9t-21 -4q-20 -12 -32 -28t-23 -33q0 -5 2 -7q10 -9 9 -20q0 -5 11.5 -6t26 -0.5t28 2.5t18.5 2zM64 33q10 2 22.5 14.5
t24 28.5t20 32.5t11.5 27.5q-20 -2 -43 -2t-43 4q-3 -9 -4 -23.5t0 -30t4 -29.5t8 -22zM91 606q-43 3 -43 34q1 19 14.5 33t32.5 14q15 0 25 -11t9 -25q-2 -20 -11 -33t-27 -12zM211 606q-43 3 -43 34q1 19 14.5 33t32.5 14q15 0 25 -11t9 -25q-2 -20 -11 -33t-27 -12z" />
    <glyph glyph-name="Ugrave" unicode="&#xd9;" horiz-adv-x="558" 
d="M67 483q-6 -3 -16 2t-19.5 15t-15.5 22.5t-4 23.5q7 40 32.5 70.5t58 51.5t66 33.5t55.5 15.5q21 4 37 -1t26 -16.5t13 -27t-1 -31.5q-3 -24 -23.5 -70.5t-50 -105t-61.5 -122.5t-57.5 -121.5t-39.5 -102.5t-5 -66q4 -9 11 -5t16 8q40 17 84.5 64.5t89.5 111t89 136
t82.5 140t70 122.5t51.5 84q13 15 28 13t26 -14.5t15 -31t-5 -36.5q-21 -38 -41 -75.5t-35 -76.5q-22 -58 -41.5 -121.5t-33.5 -129t-20.5 -131t-1.5 -126.5q2 -35 -6.5 -43t-31.5 15q-21 21 -31.5 46.5t-13.5 54t0 59.5t9 64q11 61 26.5 120t31.5 120q-10 -18 -28 -55.5
t-42.5 -83.5t-54.5 -96t-64 -92t-70.5 -71.5t-74.5 -35.5q-22 -6 -41 8.5t-32.5 36.5t-20 47t-3.5 40q13 63 34 131t47.5 134.5t56.5 130t61 117.5q-24 -15 -42.5 -29.5t-34 -31t-29 -38t-26.5 -50.5zM423 801q-10 6 -25.5 16.5t-30.5 23.5t-25.5 26.5t-10.5 24.5q0 9 8 14
t16 -2q30 -23 55 -49q11 -11 22 -23.5t22 -25.5q12 -18 11 -22t-8 -1.5t-17 8.5t-17 10z" />
    <glyph glyph-name="ugrave" unicode="&#xf9;" horiz-adv-x="398" 
d="M438 196h1v-8q-10 -36 -31 -65q-8 -10 -19.5 -28.5t-20.5 -29.5q-21 -23 -39.5 -40.5t-44.5 -31.5q-12 -6 -26.5 -10.5t-29 -4.5t-27.5 5t-22 18q-16 20 -17.5 47.5t9.5 56.5l-6 -6l-9 -9l-9.5 -9.5t-6.5 -5.5q-15 -15 -30 -26t-31 -19q-13 -6 -22.5 -7t-17.5 3.5
t-15.5 13.5t-16.5 21q-13 18 -19.5 35.5t-2.5 37.5q2 7 3.5 14t4.5 13q6 17 14.5 39t17.5 44t17.5 41.5t14.5 31.5q7 18 21 18t25.5 -11t17.5 -29t-3 -35q-5 -12 -15 -34t-20.5 -45.5t-18.5 -44.5t-9 -31q0 -22 8.5 -23t23 11t32 33.5t35.5 45.5t33.5 46.5t26.5 36.5
q14 25 23.5 44.5t28.5 38.5q10 4 24 -1.5t25 -16.5t15.5 -24.5t-2.5 -23.5q-18 -23 -32.5 -39t-27.5 -41q-7 -16 -16 -35.5t-16.5 -40t-12 -40t-2.5 -34.5q0 -17 17 -14q24 4 53 25.5t57 49t52 54t38 39.5zM213 624q-10 6 -25.5 16.5t-30.5 23.5t-25.5 26.5t-10.5 24.5
q0 9 8 14t16 -2q30 -23 55 -49q11 -11 22 -23.5t22 -25.5q12 -18 11 -22t-8 -1.5t-17 8.5t-17 10z" />
    <glyph glyph-name="uacute" unicode="&#xfa;" horiz-adv-x="398" 
d="M438 196h1v-8q-10 -36 -31 -65q-8 -10 -19.5 -28.5t-20.5 -29.5q-21 -23 -39.5 -40.5t-44.5 -31.5q-12 -6 -26.5 -10.5t-29 -4.5t-27.5 5t-22 18q-16 20 -17.5 47.5t9.5 56.5l-6 -6l-9 -9l-9.5 -9.5t-6.5 -5.5q-15 -15 -30 -26t-31 -19q-13 -6 -22.5 -7t-17.5 3.5
t-15.5 13.5t-16.5 21q-13 18 -19.5 35.5t-2.5 37.5q2 7 3.5 14t4.5 13q6 17 14.5 39t17.5 44t17.5 41.5t14.5 31.5q7 18 21 18t25.5 -11t17.5 -29t-3 -35q-5 -12 -15 -34t-20.5 -45.5t-18.5 -44.5t-9 -31q0 -22 8.5 -23t23 11t32 33.5t35.5 45.5t33.5 46.5t26.5 36.5
q14 25 23.5 44.5t28.5 38.5q10 4 24 -1.5t25 -16.5t15.5 -24.5t-2.5 -23.5q-18 -23 -32.5 -39t-27.5 -41q-7 -16 -16 -35.5t-16.5 -40t-12 -40t-2.5 -34.5q0 -17 17 -14q24 4 53 25.5t57 49t52 54t38 39.5zM184 624q-7 -4 -17 -10t-17 -8.5t-8 1.5t11 22q11 13 22 25.5
t22 23.5q25 26 55 49q8 7 16 2t8 -14q0 -11 -10.5 -24.5t-25.5 -26.5t-30.5 -23.5t-25.5 -16.5z" />
    <glyph glyph-name="Uacute" unicode="&#xda;" horiz-adv-x="558" 
d="M67 483q-6 -3 -16 2t-19.5 15t-15.5 22.5t-4 23.5q7 40 32.5 70.5t58 51.5t66 33.5t55.5 15.5q21 4 37 -1t26 -16.5t13 -27t-1 -31.5q-3 -24 -23.5 -70.5t-50 -105t-61.5 -122.5t-57.5 -121.5t-39.5 -102.5t-5 -66q4 -9 11 -5t16 8q40 17 84.5 64.5t89.5 111t89 136
t82.5 140t70 122.5t51.5 84q13 15 28 13t26 -14.5t15 -31t-5 -36.5q-21 -38 -41 -75.5t-35 -76.5q-22 -58 -41.5 -121.5t-33.5 -129t-20.5 -131t-1.5 -126.5q2 -35 -6.5 -43t-31.5 15q-21 21 -31.5 46.5t-13.5 54t0 59.5t9 64q11 61 26.5 120t31.5 120q-10 -18 -28 -55.5
t-42.5 -83.5t-54.5 -96t-64 -92t-70.5 -71.5t-74.5 -35.5q-22 -6 -41 8.5t-32.5 36.5t-20 47t-3.5 40q13 63 34 131t47.5 134.5t56.5 130t61 117.5q-24 -15 -42.5 -29.5t-34 -31t-29 -38t-26.5 -50.5zM424 803q-7 -4 -17 -10t-17 -8.5t-8 1.5t11 22q11 13 22 25.5t22 23.5
q25 26 55 49q8 7 16 2t8 -14q0 -11 -10.5 -24.5t-25.5 -26.5t-30.5 -23.5t-25.5 -16.5z" />
    <glyph glyph-name="Ucircumflex" unicode="&#xdb;" horiz-adv-x="558" 
d="M67 483q-6 -3 -16 2t-19.5 15t-15.5 22.5t-4 23.5q7 40 32.5 70.5t58 51.5t66 33.5t55.5 15.5q21 4 37 -1t26 -16.5t13 -27t-1 -31.5q-3 -24 -23.5 -70.5t-50 -105t-61.5 -122.5t-57.5 -121.5t-39.5 -102.5t-5 -66q4 -9 11 -5t16 8q40 17 84.5 64.5t89.5 111t89 136
t82.5 140t70 122.5t51.5 84q13 15 28 13t26 -14.5t15 -31t-5 -36.5q-21 -38 -41 -75.5t-35 -76.5q-22 -58 -41.5 -121.5t-33.5 -129t-20.5 -131t-1.5 -126.5q2 -35 -6.5 -43t-31.5 15q-21 21 -31.5 46.5t-13.5 54t0 59.5t9 64q11 61 26.5 120t31.5 120q-10 -18 -28 -55.5
t-42.5 -83.5t-54.5 -96t-64 -92t-70.5 -71.5t-74.5 -35.5q-22 -6 -41 8.5t-32.5 36.5t-20 47t-3.5 40q13 63 34 131t47.5 134.5t56.5 130t61 117.5q-24 -15 -42.5 -29.5t-34 -31t-29 -38t-26.5 -50.5zM505 794q-11 8 -20.5 27.5t-25.5 38.5q-20 -20 -36.5 -41t-36.5 -38
q-9 -8 -18 -6t-15 9t-7.5 17t5.5 18q15 17 29 34.5t29 34.5q16 20 39 21t40 -25q14 -20 23.5 -43t13.5 -45q3 -8 2 -10.5t-4.5 -1.5t-8 4t-9.5 6z" />
    <glyph glyph-name="ucircumflex" unicode="&#xfb;" horiz-adv-x="398" 
d="M438 196h1v-8q-10 -36 -31 -65q-8 -10 -19.5 -28.5t-20.5 -29.5q-21 -23 -39.5 -40.5t-44.5 -31.5q-12 -6 -26.5 -10.5t-29 -4.5t-27.5 5t-22 18q-16 20 -17.5 47.5t9.5 56.5l-6 -6l-9 -9l-9.5 -9.5t-6.5 -5.5q-15 -15 -30 -26t-31 -19q-13 -6 -22.5 -7t-17.5 3.5
t-15.5 13.5t-16.5 21q-13 18 -19.5 35.5t-2.5 37.5q2 7 3.5 14t4.5 13q6 17 14.5 39t17.5 44t17.5 41.5t14.5 31.5q7 18 21 18t25.5 -11t17.5 -29t-3 -35q-5 -12 -15 -34t-20.5 -45.5t-18.5 -44.5t-9 -31q0 -22 8.5 -23t23 11t32 33.5t35.5 45.5t33.5 46.5t26.5 36.5
q14 25 23.5 44.5t28.5 38.5q10 4 24 -1.5t25 -16.5t15.5 -24.5t-2.5 -23.5q-18 -23 -32.5 -39t-27.5 -41q-7 -16 -16 -35.5t-16.5 -40t-12 -40t-2.5 -34.5q0 -17 17 -14q24 4 53 25.5t57 49t52 54t38 39.5zM272 594q-11 8 -20.5 27.5t-25.5 38.5q-20 -20 -36.5 -41
t-36.5 -38q-9 -8 -18 -6t-15 9t-7.5 17t5.5 18q15 17 29 34.5t29 34.5q16 20 39 21t40 -25q14 -20 23.5 -43t13.5 -45q3 -8 2 -10.5t-4.5 -1.5t-8 4t-9.5 6z" />
    <glyph glyph-name="udieresis" unicode="&#xfc;" horiz-adv-x="398" 
d="M438 196h1v-8q-10 -36 -31 -65q-8 -10 -19.5 -28.5t-20.5 -29.5q-21 -23 -39.5 -40.5t-44.5 -31.5q-12 -6 -26.5 -10.5t-29 -4.5t-27.5 5t-22 18q-16 20 -17.5 47.5t9.5 56.5l-6 -6l-9 -9l-9.5 -9.5t-6.5 -5.5q-15 -15 -30 -26t-31 -19q-13 -6 -22.5 -7t-17.5 3.5
t-15.5 13.5t-16.5 21q-13 18 -19.5 35.5t-2.5 37.5q2 7 3.5 14t4.5 13q6 17 14.5 39t17.5 44t17.5 41.5t14.5 31.5q7 18 21 18t25.5 -11t17.5 -29t-3 -35q-5 -12 -15 -34t-20.5 -45.5t-18.5 -44.5t-9 -31q0 -22 8.5 -23t23 11t32 33.5t35.5 45.5t33.5 46.5t26.5 36.5
q14 25 23.5 44.5t28.5 38.5q10 4 24 -1.5t25 -16.5t15.5 -24.5t-2.5 -23.5q-18 -23 -32.5 -39t-27.5 -41q-7 -16 -16 -35.5t-16.5 -40t-12 -40t-2.5 -34.5q0 -17 17 -14q24 4 53 25.5t57 49t52 54t38 39.5zM141 606q-43 3 -43 34q1 19 14.5 33t32.5 14q15 0 25 -11t9 -25
q-2 -20 -11 -33t-27 -12zM261 606q-43 3 -43 34q1 19 14.5 33t32.5 14q15 0 25 -11t9 -25q-2 -20 -11 -33t-27 -12z" />
    <glyph glyph-name="Udieresis" unicode="&#xdc;" horiz-adv-x="558" 
d="M67 483q-6 -3 -16 2t-19.5 15t-15.5 22.5t-4 23.5q7 40 32.5 70.5t58 51.5t66 33.5t55.5 15.5q21 4 37 -1t26 -16.5t13 -27t-1 -31.5q-3 -24 -23.5 -70.5t-50 -105t-61.5 -122.5t-57.5 -121.5t-39.5 -102.5t-5 -66q4 -9 11 -5t16 8q40 17 84.5 64.5t89.5 111t89 136
t82.5 140t70 122.5t51.5 84q13 15 28 13t26 -14.5t15 -31t-5 -36.5q-21 -38 -41 -75.5t-35 -76.5q-22 -58 -41.5 -121.5t-33.5 -129t-20.5 -131t-1.5 -126.5q2 -35 -6.5 -43t-31.5 15q-21 21 -31.5 46.5t-13.5 54t0 59.5t9 64q11 61 26.5 120t31.5 120q-10 -18 -28 -55.5
t-42.5 -83.5t-54.5 -96t-64 -92t-70.5 -71.5t-74.5 -35.5q-22 -6 -41 8.5t-32.5 36.5t-20 47t-3.5 40q13 63 34 131t47.5 134.5t56.5 130t61 117.5q-24 -15 -42.5 -29.5t-34 -31t-29 -38t-26.5 -50.5zM381 778q-43 3 -43 34q1 19 14.5 33t32.5 14q15 0 25 -11t9 -25
q-2 -20 -11 -33t-27 -12zM501 778q-43 3 -43 34q1 19 14.5 33t32.5 14q15 0 25 -11t9 -25q-2 -20 -11 -33t-27 -12z" />
    <glyph glyph-name="Yacute" unicode="&#xdd;" horiz-adv-x="519" 
d="M154 171q-21 -20 -35.5 -57t-18.5 -72.5t4 -60t34 -20.5q17 1 43.5 27t57 68.5t62.5 97t60 113t48.5 117.5t28.5 109q-20 -33 -44 -72t-54 -73t-66 -56.5t-79 -23.5q-31 1 -53 13.5t-38 32.5q-18 23 -12.5 66t23 91t40 94.5t38.5 77.5q-25 -9 -46 -26.5t-39 -37.5
t-32.5 -39t-24.5 -31q-5 -8 -10.5 -7.5t-10 6.5t-7 16.5t-0.5 24.5q7 43 34.5 78.5t65.5 58.5t81.5 32t82.5 -1q3 0 6 -1.5t5 -3.5q9 -7 9.5 -12.5t-6.5 -13.5q-5 -6 -6 -12q-9 -19 -25 -52t-32.5 -72t-32 -80.5t-23.5 -77.5t-6.5 -61.5t18.5 -32.5q12 -2 34 19.5t49 55.5
t55.5 77.5t54 86.5t44.5 81t27 62q4 10 9 18.5t13 8.5q9 0 22.5 -7t25.5 -17t20 -19.5t7 -15.5q-2 -44 -9.5 -85.5t-18.5 -84t-24.5 -87t-28.5 -92.5q-18 -47 -42.5 -104.5t-57.5 -112t-74.5 -99t-92.5 -65.5q-20 -9 -41 -8.5t-41.5 6.5t-38 17t-29.5 23q-28 30 -32 71.5
t9.5 79.5t41 66t61.5 32q18 0 24 -3.5t5.5 -8.5t-5 -11.5t-7.5 -10.5zM411 803q-7 -4 -17 -10t-17 -8.5t-8 1.5t11 22q11 13 22 25.5t22 23.5q25 26 55 49q8 7 16 2t8 -14q0 -11 -10.5 -24.5t-25.5 -26.5t-30.5 -23.5t-25.5 -16.5z" />
    <glyph glyph-name="yacute" unicode="&#xfd;" horiz-adv-x="359" 
d="M69 27q-26 -5 -48.5 8t-27.5 39q-4 22 -4 50t3 56.5t8.5 55.5t11.5 48q5 9 15.5 9t22 -4.5t20 -11.5t10.5 -14q3 -13 -5.5 -41.5t-18.5 -59.5t-16 -57.5t2 -33.5q7 -7 18.5 3.5t24.5 31t27 48t27.5 54.5t24.5 50t18 35q2 4 9.5 3.5t15.5 -4.5t15 -10.5t9 -14.5
q9 -35 6 -75.5t-11 -76.5q37 29 72.5 52t76.5 41q4 3 15.5 4.5t19.5 0.5t8.5 -6.5t-18.5 -17.5q-46 -29 -93 -66t-88 -70q-7 -5 -9 -16q-8 -56 -28 -124t-48.5 -137t-64 -131.5t-74.5 -107.5q-25 -29 -53 -40.5t-51.5 -5.5t-39 29.5t-16.5 64.5q13 62 42 120.5t69.5 115
t89.5 113t103 114.5q7 5 13 23.5t10 39.5t5.5 39.5t-0.5 22.5q-10 -18 -22 -42.5t-25 -47t-26 -39t-25 -17.5zM-118 -456q11 -4 32 21.5t47 68t53 95t49.5 102t37.5 89.5t16 57q-26 -28 -57 -67.5t-61 -83t-56.5 -88.5t-44 -84t-23 -68.5t6.5 -41.5zM165 624q-7 -4 -17 -10
t-17 -8.5t-8 1.5t11 22q11 13 22 25.5t22 23.5q25 26 55 49q8 7 16 2t8 -14q0 -11 -10.5 -24.5t-25.5 -26.5t-30.5 -23.5t-25.5 -16.5z" />
    <glyph glyph-name="ydieresis" unicode="&#xff;" horiz-adv-x="359" 
d="M69 27q-26 -5 -48.5 8t-27.5 39q-4 22 -4 50t3 56.5t8.5 55.5t11.5 48q5 9 15.5 9t22 -4.5t20 -11.5t10.5 -14q3 -13 -5.5 -41.5t-18.5 -59.5t-16 -57.5t2 -33.5q7 -7 18.5 3.5t24.5 31t27 48t27.5 54.5t24.5 50t18 35q2 4 9.5 3.5t15.5 -4.5t15 -10.5t9 -14.5
q9 -35 6 -75.5t-11 -76.5q37 29 72.5 52t76.5 41q4 3 15.5 4.5t19.5 0.5t8.5 -6.5t-18.5 -17.5q-46 -29 -93 -66t-88 -70q-7 -5 -9 -16q-8 -56 -28 -124t-48.5 -137t-64 -131.5t-74.5 -107.5q-25 -29 -53 -40.5t-51.5 -5.5t-39 29.5t-16.5 64.5q13 62 42 120.5t69.5 115
t89.5 113t103 114.5q7 5 13 23.5t10 39.5t5.5 39.5t-0.5 22.5q-10 -18 -22 -42.5t-25 -47t-26 -39t-25 -17.5zM-118 -456q11 -4 32 21.5t47 68t53 95t49.5 102t37.5 89.5t16 57q-26 -28 -57 -67.5t-61 -83t-56.5 -88.5t-44 -84t-23 -68.5t6.5 -41.5zM122 606q-43 3 -43 34
q1 19 14.5 33t32.5 14q15 0 25 -11t9 -25q-2 -20 -11 -33t-27 -12zM242 606q-43 3 -43 34q1 19 14.5 33t32.5 14q15 0 25 -11t9 -25q-2 -20 -11 -33t-27 -12z" />
    <glyph glyph-name="germandbls" unicode="&#xdf;" horiz-adv-x="407" 
d="M369 133q-8 -27 -25 -49t-40 -38t-49 -26.5t-51 -14.5q-16 -3 -31.5 -4t-31.5 2q-19 4 -37 11t-33 21q-6 4 -9.5 14t5.5 12q15 4 40 6t53 6t56 11.5t51 22t37.5 38t15.5 58.5q-1 20 -10.5 32t-25.5 17t-36 4.5t-42 -4.5q-8 -2 -15 -1.5t-15 1.5q-22 1 -27.5 19.5
t9.5 32.5q3 3 16.5 16t31 31t36.5 39t33 41t21 36t1 25q-3 4 -10 4q-33 0 -63.5 -22t-55.5 -53.5t-43 -65.5t-25 -59q-49 -136 -49 -260q-2 -11 -3 -18.5t-11 -9.5q-17 -3 -28 8.5t-17.5 29t-8.5 35.5t-2 29q1 52 15 109.5t38.5 111.5t58.5 99.5t75 75.5q14 8 29.5 15.5
t32 12t32.5 4.5t32 -6q23 -9 37 -29.5t14 -43.5t-8.5 -45.5t-20.5 -42.5t-26.5 -38t-26.5 -32q67 -4 95 -51t11 -117z" />
    <glyph glyph-name="Ydieresis" unicode="&#x178;" horiz-adv-x="519" 
d="M154 171q-21 -20 -35.5 -57t-18.5 -72.5t4 -60t34 -20.5q17 1 43.5 27t57 68.5t62.5 97t60 113t48.5 117.5t28.5 109q-20 -33 -44 -72t-54 -73t-66 -56.5t-79 -23.5q-31 1 -53 13.5t-38 32.5q-18 23 -12.5 66t23 91t40 94.5t38.5 77.5q-25 -9 -46 -26.5t-39 -37.5
t-32.5 -39t-24.5 -31q-5 -8 -10.5 -7.5t-10 6.5t-7 16.5t-0.5 24.5q7 43 34.5 78.5t65.5 58.5t81.5 32t82.5 -1q3 0 6 -1.5t5 -3.5q9 -7 9.5 -12.5t-6.5 -13.5q-5 -6 -6 -12q-9 -19 -25 -52t-32.5 -72t-32 -80.5t-23.5 -77.5t-6.5 -61.5t18.5 -32.5q12 -2 34 19.5t49 55.5
t55.5 77.5t54 86.5t44.5 81t27 62q4 10 9 18.5t13 8.5q9 0 22.5 -7t25.5 -17t20 -19.5t7 -15.5q-2 -44 -9.5 -85.5t-18.5 -84t-24.5 -87t-28.5 -92.5q-18 -47 -42.5 -104.5t-57.5 -112t-74.5 -99t-92.5 -65.5q-20 -9 -41 -8.5t-41.5 6.5t-38 17t-29.5 23q-28 30 -32 71.5
t9.5 79.5t41 66t61.5 32q18 0 24 -3.5t5.5 -8.5t-5 -11.5t-7.5 -10.5zM337 780q-43 3 -43 34q1 19 14.5 33t32.5 14q15 0 25 -11t9 -25q-2 -20 -11 -33t-27 -12zM457 780q-43 3 -43 34q1 19 14.5 33t32.5 14q15 0 25 -11t9 -25q-2 -20 -11 -33t-27 -12z" />
    <glyph glyph-name="AE" unicode="&#xc6;" horiz-adv-x="1055" 
d="M524 -4q-14 5 -26 12.5t-21 18.5q-14 12 -21 26.5t-14 28.5q-6 17 -7 34t1 35q3 20 10 38t16 35q4 6 7.5 12t8.5 12q-13 1 -33 1t-40.5 -0.5t-38 -1t-24.5 -0.5q-6 0 -23 -10q-41 -28 -76.5 -61.5t-71.5 -64.5t-76 -55.5t-89 -34.5q-14 -2 -26 10q-5 5 0.5 12.5
t13.5 13.5q60 43 116 91.5t110 97.5q2 2 4 3.5t7 5.5q-44 6 -84.5 16.5t-82.5 18.5q-14 5 -28 9t-27 11q-7 8 0.5 9.5t12.5 1.5q15 2 28.5 3.5t28.5 3.5q64 1 117.5 4t106.5 3q5 0 8.5 2t7.5 4q59 63 113 122.5t102 125.5q22 32 40 60.5t38 56.5q16 23 44 16q8 -3 15 -12.5
t7 -20.5q-3 -31 -5.5 -53.5t-6.5 -44.5q32 31 69.5 58t75 47.5t73 33.5t63.5 15q32 3 54 -11q14 -7 26 -16.5t10 -26.5q-8 -51 -11 -99.5t-3 -98.5q-2 -6 -2 -11t-7 -7q-15 -5 -29 9q-20 19 -29 40.5t-11 44t2 45.5t11 46q-2 5 -20 2q-23 -4 -51.5 -17t-60 -31.5t-62 -41
t-57 -46t-46 -47t-27.5 -42.5q-6 -14 -1.5 -24t26.5 -10q21 0 42 4.5t46.5 13.5t58 23t76.5 34q15 4 16.5 -6t-2.5 -23.5t-11 -26t-10 -15.5q-16 -13 -37 -23.5t-43.5 -20.5t-44 -20.5t-38.5 -22.5t-41 -29t-49.5 -37t-49 -43t-39.5 -46.5t-20.5 -47t7.5 -45.5
q7 -13 24.5 -17t40.5 -1.5t50.5 10t55.5 18.5q75 29 139.5 62.5t121.5 74.5q10 7 18 15q2 3 5 -2t5 -13.5t3.5 -19t1.5 -20.5q-3 -34 -28 -60t-61 -46q-42 -24 -88 -43.5t-93.5 -31.5t-96 -13.5t-94.5 11.5zM542 467q-12 -14 -29 -31l-35 -35t-34.5 -35.5t-27.5 -30.5h1
q17 0 45 1.5t45 1.5q1 0 2 1l2 2q11 32 17 63.5t14 62.5z" />
    <glyph glyph-name="OE" unicode="&#x152;" horiz-adv-x="911" 
d="M380 -4q-14 5 -26 12.5t-21 18.5q-11 9 -17.5 19t-11.5 21q-35 -37 -74.5 -62t-82.5 -25q-48 1 -77.5 22t-45.5 52t-21 66t-5 64q0 42 4 82t12 80l23 105q7 27 25 32t35 -2.5t28 -23.5t4 -31q-11 -26 -22 -69.5t-18.5 -92.5t-10.5 -96.5t3 -80.5q4 -23 14.5 -41.5
t25.5 -16.5q18 -2 46.5 19.5t57.5 52.5t54 66t36 60q-39 15 -70 45t-53 69t-33.5 83.5t-10 89t16.5 85t46 71.5q41 40 86.5 50t90.5 -7q50 -18 71.5 -63t23.5 -101q32 39 73.5 73.5t85.5 60.5t86 42.5t75 19.5q32 3 54 -11q14 -7 26 -16.5t10 -26.5q-8 -51 -11 -99.5
t-3 -98.5q-2 -6 -2 -11t-7 -7q-15 -5 -29 9q-20 19 -29 40.5t-11 44t2 45.5t11 46q-2 5 -20 2q-23 -4 -51.5 -17t-60 -31.5t-62 -41t-57 -46t-46 -47t-27.5 -42.5q-6 -14 -1.5 -24t26.5 -10q21 0 42 4.5t46.5 13.5t58 23t76.5 34q15 4 16.5 -6t-2.5 -23.5t-11 -26t-10 -15.5
q-16 -13 -37 -23.5t-43.5 -20.5t-44 -20.5t-38.5 -22.5t-41 -29t-49.5 -37t-49 -43t-39.5 -46.5t-20.5 -47t7.5 -45.5q7 -13 24.5 -17t40.5 -1.5t50.5 10t55.5 18.5q75 29 139.5 62.5t121.5 74.5q10 7 18 15q2 3 5 -2t5 -13.5t3.5 -19t1.5 -20.5q-3 -34 -28 -60t-61 -46
q-42 -24 -88 -43.5t-93.5 -31.5t-96 -13.5t-94.5 11.5zM333 677q-38 -14 -60.5 -43t-32 -65.5t-7 -77.5t16.5 -78.5t38 -68.5t57 -48q16 30 29 67.5t20 77.5t8 79t-5.5 71.5t-22 55t-41.5 30.5z" />
    <glyph glyph-name="Oslash" unicode="&#xd8;" horiz-adv-x="560" 
d="M20 -38q5 19 9.5 36.5t9.5 34.5q-23 33 -30.5 75t-7.5 76q0 42 4 82t12 80l23 105q7 27 25 32t35 -2.5t28 -23.5t4 -31q-9 -21 -18.5 -55.5t-17 -74t-12 -81t-4.5 -76.5q23 54 48.5 110t54.5 113q-18 38 -26 80t-5 83t18 78.5t44 66.5q41 40 86.5 50t90.5 -7q0 -1 2 -1
l8 11q7 9 15 17.5t19 14.5t17.5 5t9.5 -5.5t3.5 -10.5t-0.5 -12l-3.5 -10.5t-3.5 -9.5l-16 -32q31 -34 39 -86t3.5 -108.5t-17 -110.5t-22.5 -91q32 -3 52.5 -2t50.5 4q22 3 22 -3.5t-9.5 -15.5t-22.5 -17.5t-17 -9.5q-17 -8 -30 -13.5t-26 -9t-26 -4.5t-29 -1
q-18 -32 -45 -72.5t-60.5 -76t-73 -59.5t-81.5 -24q-41 1 -69 17q-8 -13 -17 -24.5t-18 -22.5q-14 -18 -24 -14t-2 26zM124 29q18 -2 46.5 19.5t57.5 52.5t54 66t36 60q-23 8 -42.5 22t-36.5 32q-35 -66 -68.5 -127.5t-65.5 -116.5q9 -9 19 -8zM348 296q16 30 29 68t20 78.5
t8 79.5t-6 72l-119 -235q14 -20 30.5 -36t37.5 -27zM336 677q-31 -11 -51.5 -33t-32.5 -50t-15 -60.5t2 -65.5q29 53 59.5 102.5t60.5 94.5q-11 8 -23 12z" />
    <glyph glyph-name="oslash" unicode="&#xf8;" horiz-adv-x="297" 
d="M22 -8l3 9q-12 5 -20 12q-15 10 -22.5 31t-9 45.5t1.5 48t7 38.5q1 7 3 9.5t4 3.5t4.5 2t4.5 4q3 11 6 23t9 22q17 30 43.5 55.5t61.5 29.5q34 5 56 -10l3 4q3 4 6.5 8t7.5 7q10 5 12 -0.5t1 -10.5q-3 -5 -3 -8l-8 -17q11 -13 15.5 -28.5t5.5 -29.5t-1 -26t-3 -17
q12 1 26 6t26 8q14 4 29.5 9.5t29.5 8.5q10 0 8 -5.5t-9.5 -13t-17 -14.5t-14.5 -10q-24 -11 -47.5 -17t-44.5 -17q-9 -16 -25 -42.5t-35.5 -51.5t-41 -43t-41.5 -18q-3 0 -6.5 0.5t-6.5 0.5l-7 -11q-5 -8 -9.5 -6.5t-1.5 11.5zM113 277q-20 -12 -32 -28t-23 -33q0 -5 2 -7
q10 -9 9 -20q0 -5 8.5 -6.5t19.5 -0.5q12 24 25 47.5t26 45.5q-7 5 -17 6t-18 -4zM64 33q10 2 22.5 14.5t24 28.5t20 32.5t11.5 27.5l-28 -2l-51 -99q0 -2 1 -2zM56 138q-4 -10 -5 -25.5t1 -32.5l23 55zM153 187q2 0 4 2t2 4q10 23 7 49l-27 -57q5 0 8.5 1t5.5 1z" />
    <glyph glyph-name="ae" unicode="&#xe6;" horiz-adv-x="424" 
d="M291 323q21 -5 32.5 -21t6.5 -39q-4 -22 -11.5 -37.5t-25.5 -32.5q-9 -8 -25 -21t-31 -27t-26 -28.5t-11 -24.5q-3 -26 8 -33.5t28.5 -6t35.5 9.5t29 14q13 9 29 22.5t32 28.5t31 29t25 23q8 8 14.5 15t15.5 12q8 2 12.5 1t-1.5 -15q-8 -17 -19.5 -32t-24.5 -30
q-18 -20 -38.5 -42t-43 -40.5t-47 -32t-50.5 -17.5h-15.5t-15.5 1q-30 2 -55 18t-31 44q-9 -7 -20 -15.5t-24 -15t-27.5 -10t-30.5 -0.5q-12 2 -22 8.5t-19 15.5t-11 26t-1 27q5 26 14 55t22 57q22 46 56 82t82 46q13 3 26 2t25 -5.5t21 -13t13 -18.5q30 20 68 21zM193 276
q-7 12 -21 12q-19 0 -43 -23.5t-46 -55t-38 -63t-20 -47.5q-5 -22 -0.5 -26.5t15 3t25.5 23t30.5 34t30 37t23.5 30.5q15 44 44 76zM291 277q-27 -10 -42.5 -26t-22.5 -47q22 16 39.5 32.5t25.5 40.5z" />
    <glyph glyph-name="oe" unicode="&#x153;" horiz-adv-x="442" 
d="M309 323q21 -5 32.5 -21t6.5 -39q-4 -22 -11.5 -37.5t-25.5 -32.5q-9 -8 -25 -21t-31 -27t-26 -28.5t-11 -24.5q-3 -26 8 -33.5t28.5 -6t35.5 9.5t29 14q13 9 29 22.5t32 28.5t31 29t25 23q8 8 14.5 15t15.5 12q8 2 12.5 1t-1.5 -15q-8 -17 -19.5 -32t-24.5 -30
q-18 -20 -38.5 -42t-43 -40.5t-47 -32t-50.5 -17.5q-42 -2 -70.5 15.5t-33.5 57.5q-21 -29 -45 -51.5t-47 -22.5q-28 0 -48 16q-15 10 -22.5 31t-9 45.5t1.5 48t7 38.5q1 7 3 9.5t4 3.5t4.5 2t4.5 4q3 11 6 23t9 22q17 30 43.5 55.5t61.5 29.5q22 4 40.5 -2t32.5 -23
q9 -11 15 -24q19 21 43.5 33.5t54.5 13.5zM158 187q2 0 4 2t2 4q0 1 1 2l2 7q6 18 4.5 37.5t-14.5 32.5q-7 8 -18 9t-21 -4q-20 -12 -32 -28t-23 -33q0 -5 2 -7q10 -9 9 -20q0 -5 11.5 -6t26 -0.5t28 2.5t18.5 2zM69 33q10 2 22.5 14.5t24 28.5t20 32.5t11.5 27.5
q-20 -2 -43 -2t-43 4q-3 -9 -4 -23.5t0 -30t4 -29.5t8 -22zM309 277q-27 -10 -42.5 -26t-22.5 -47q22 16 39.5 32.5t25.5 40.5z" />
    <glyph glyph-name="zero" unicode="0" horiz-adv-x="421" 
d="M93 369q-11 29 -1 57.5t30.5 53.5t46.5 44t49 30q17 8 34.5 13.5t35.5 5.5q37 0 60.5 -22t36.5 -52.5t16.5 -63.5t0.5 -55q-9 -53 -28 -108t-49 -104t-70 -89t-89 -64q-48 -21 -87 -12.5t-62 53.5q-15 41 -15.5 84.5t10 85t31.5 78.5t50 65zM123 319q-9 -12 -25.5 -41.5
t-30.5 -66t-19.5 -76t8.5 -72.5q4 -7 12 -10t17 -2q29 2 59 24.5t58.5 57t53.5 77t43.5 86t29.5 83.5t11 69q0 31 -6 53t-20 20q-23 -2 -48 -13.5t-47 -28.5t-39 -38.5t-23 -42.5q-4 -16 -3.5 -31.5t3.5 -31.5q6 -24 5 -31.5t-7 -6t-15 8.5t-17 13z" />
    <glyph glyph-name="one" unicode="1" horiz-adv-x="249" 
d="M141 482q-26 -11 -49.5 -22.5t-49.5 -16.5q-11 -2 -20 2.5t-13.5 11t-4 14t8.5 12.5q44 22 88 42.5t90 37.5q15 14 31 4q14 -12 10 -32q-5 -13 -9 -25.5t-9 -25.5q-17 -46 -34.5 -90.5t-33.5 -89.5q-29 -76 -50 -150t-41 -146q-2 -12 -8 -22q-2 -5 -6 -4.5t-6 5.5
t-3.5 11.5t-3.5 12.5q-7 46 -5 93t15 90q26 84 50.5 153t52.5 135z" />
    <glyph glyph-name="two" unicode="2" horiz-adv-x="418" 
d="M90 94q28 4 65 5.5t72.5 -5t64.5 -22.5t43 -46q4 -8 3 -10t-9 -4h-7q-69 15 -130 15t-120 -8q-14 -2 -25 -6t-22 -10q-15 -8 -27.5 -0.5t-14.5 24.5q0 8 1.5 15t6.5 12q6 5 9 12t5 15q19 43 45 80t56 70t62 64t62 61q32 31 64.5 64t46.5 62q5 17 -5 23t-28 7
q-45 1 -90.5 -11.5t-74.5 -41.5q-12 -7 -16 1.5t-2 22.5t10 29.5t20 23.5q33 25 71 31t71.5 -0.5t58 -22.5t31.5 -35q7 -16 7 -32q-1 -36 -20 -66.5t-42 -53.5q-31 -33 -63.5 -64t-64 -63t-61 -65.5t-53.5 -70.5z" />
    <glyph glyph-name="three" unicode="3" horiz-adv-x="402" 
d="M370 271q11 -34 5 -66.5t-23.5 -62t-44 -54.5t-56.5 -44.5t-61.5 -31.5t-58.5 -16q-83 1 -114.5 43t-3.5 104q18 28 49.5 45.5t60.5 25.5q5 1 16.5 3t20.5 1.5t11 -3.5t-11 -10q-12 -7 -28.5 -18.5t-32 -26t-29 -31t-20.5 -34.5q-5 -12 -3 -22t16 -18q20 -10 55 0t72 33
t69 55t46 66q12 40 4.5 65t-27 38.5t-48 16t-58.5 -1.5q-8 0 -12 -1q-13 -1 -18 9.5t3 20.5q11 14 23.5 25.5t26.5 22.5q10 7 36 20.5t51.5 28t41.5 28.5t7 23q-24 8 -53 6.5t-57.5 -9.5t-56 -20.5t-48.5 -24.5q-15 -7 -18 1t1.5 22t15 29.5t23.5 24.5q59 28 107 29t93 -19
q18 -10 29.5 -29.5t5.5 -43.5q-3 -18 -16 -33t-30 -27t-34.5 -22.5t-30.5 -19.5q16 -9 32.5 -18.5t30.5 -20.5t25 -25t16 -33z" />
    <glyph glyph-name="four" unicode="4" horiz-adv-x="421" 
d="M293 345q-30 -11 -66 -31.5t-72 -46t-69 -52.5t-56 -50q-2 -4 -6.5 -7t-9.5 -2q-10 3 -12 17q-2 17 -1.5 34t2.5 34q12 47 30.5 91t40.5 85t47 80t49 77q9 11 19.5 9t18.5 -11t12.5 -21.5t3.5 -22.5q-2 -15 -11 -28.5t-17 -29.5q-8 -14 -24.5 -43.5t-33.5 -62
t-30.5 -60.5t-15.5 -40q25 16 51.5 34.5t53.5 35t53.5 29t51.5 17.5q3 2 9 18.5t13 37t14.5 40t12.5 27.5q7 14 19.5 12.5t22.5 -13t14.5 -29t-5.5 -34.5q-22 -56 -39.5 -110.5t-34 -107.5t-33 -104t-37.5 -100q-2 -4 -5 -8.5t-6.5 -7.5t-7 -3t-6.5 6q-2 5 -3 11t-1 11
q-2 49 3 88t14 75t21 73t26 83z" />
    <glyph glyph-name="five" unicode="5" horiz-adv-x="408" 
d="M140 535q-4 7 -7.5 17t10.5 8q79 0 136 2t105 19q9 3 12 -2t1 -13.5t-8.5 -18.5t-16.5 -17q-51 -30 -94.5 -36.5t-96.5 14.5v-4q-6 -18 -12 -37.5t-12 -39.5q39 0 69.5 -4.5t54.5 -15t42 -28.5t32 -46q8 -17 12 -34q9 -49 -14.5 -99t-64.5 -92t-90.5 -72t-91.5 -38
q-12 -1 -27 2q-34 5 -57 30.5t-21 59.5q2 50 29 82.5t64 56.5q6 3 18 7.5t22 7t14 0.5t-5 -11q-13 -14 -30 -33.5t-32 -40.5t-25 -42t-10 -39q1 -12 9 -16t18 -3.5t20.5 3.5t16.5 5q30 17 67 43t69 57.5t52.5 66.5t16.5 70q-5 19 -26.5 31t-50 17.5t-58.5 4t-50 -9.5
q-11 -4 -19.5 -1t-14 10.5t-7 17t1.5 18.5q13 39 25.5 73.5t23.5 69.5z" />
    <glyph glyph-name="six" unicode="6" horiz-adv-x="304" 
d="M139 351q1 0 1 -0.5t1 -0.5h1q28 11 52.5 9t41 -14t25 -33.5t5.5 -48.5q-4 -37 -15 -76.5t-29.5 -75.5t-44 -65t-56.5 -45q-25 -7 -46.5 2t-38 26.5t-26.5 39.5t-10 42q-3 34 8 81.5t31.5 100t47.5 104.5t57 94t60 69t55 30q9 0 15.5 -7t9.5 -16.5t2 -19t-7 -14.5
q-50 -38 -81.5 -84.5t-58.5 -97.5zM100 263q-6 -16 -16 -43.5t-18 -57t-11.5 -56t3.5 -39.5q1 -5 5.5 -6.5t9.5 -1.5t10 1t7 3q18 10 35 34t31.5 53.5t26 60.5t17.5 55q8 31 -1 40t-26.5 4.5t-37.5 -18.5t-35 -29z" />
    <glyph glyph-name="seven" unicode="7" horiz-adv-x="302" 
d="M167 296q18 -5 36 -6.5t35 -6.5q7 -2 0.5 -10.5t-10.5 -8.5q-17 -2 -31.5 -1.5t-31.5 -0.5q-17 0 -22 -16q-24 -60 -43 -117.5t-36 -116.5q-4 -9 -11 -9q-8 0 -12 9q-9 28 -9 59q3 56 18 101.5t30 87.5q-11 2 -23 1.5t-23 -1.5q-8 1 -13 6.5t-6.5 12t2 12.5t11.5 8
q17 5 34.5 3t33.5 -2l4 2q21 49 47 96.5t56 95.5q-22 -6 -49 -13.5t-54.5 -9t-52 5t-40.5 29.5q-8 11 -9 22.5t12 11.5q36 -6 68.5 -4.5t62.5 8t58.5 18t57.5 24.5q16 6 27 -0.5t16 -18.5t3.5 -26t-8.5 -24q-41 -51 -71.5 -105.5t-55.5 -111.5q-1 -2 -1 -4z" />
    <glyph glyph-name="eight" unicode="8" horiz-adv-x="370" 
d="M296 526q-25 -5 -50.5 -13t-48 -20.5t-41 -29.5t-30.5 -41q-6 -14 -3 -26.5t10.5 -23t18.5 -20t20 -17.5q21 -20 43.5 -40t39.5 -42.5t25.5 -48.5t-0.5 -56q-9 -25 -26.5 -51.5t-40.5 -48.5t-49 -36t-51 -13q-31 3 -53 14.5t-36 29t-20.5 39.5t-5.5 45q8 59 24.5 109
t54.5 88q-17 37 -16.5 71t14 63.5t37.5 53.5t55 42q10 6 31 14t43.5 14t43 8t30.5 -4q26 -12 35 -37t3 -51q-17 -57 -37 -100.5t-44 -85.5q-12 -17 -16.5 -15.5t-4.5 11t2 22.5t3 19q4 24 12 53.5t15.5 55.5t12 45.5t0.5 22.5zM118 275q-26 -42 -44 -91t-16 -97
q2 -46 43 -35q17 5 34 16t31.5 25.5t26 31t17.5 32.5q3 18 -6.5 35t-24.5 32.5t-32 28.5t-29 22z" />
    <glyph glyph-name="nine" unicode="9" horiz-adv-x="275" 
d="M244 569q6 2 8 3q12 2 21.5 -4t9.5 -19q0 -8 -1 -16.5t-3 -16.5q-25 -62 -53 -123.5t-54.5 -123t-50.5 -124t-40 -127.5q-2 -5 -3 -8.5t-3 -7.5q-3 -5 -8.5 -5.5t-8.5 5.5q-10 29 -10.5 61t4.5 61q8 48 24 95t39 88q-9 -6 -18 -8t-20 -3q-38 -3 -57.5 21t-17.5 57
q2 39 18.5 76t43 66.5t61.5 48.5t75 24q13 1 24.5 -3.5t19.5 -16.5zM82 363q56 40 89 83.5t56 97.5q-35 -8 -67 -27.5t-54 -47.5q-30 -38 -39 -84q-4 -14 -1.5 -22t16.5 0z" />
    <glyph glyph-name="a" unicode="a" 
d="M119 61q-9 -7 -20 -15.5t-24 -15t-27.5 -10t-30.5 -0.5q-12 2 -22 8.5t-19 15.5t-11 26t-1 27q5 26 14 55t22 57q22 46 56 82t82 46q16 4 33.5 1.5t30.5 -11.5t20 -22.5t3 -29.5q-2 -6 -4.5 -12t-6 -10t-6.5 -4.5t-6 5.5q-1 3 -2.5 8.5t-4.5 11t-8.5 10t-14.5 4.5
q-19 0 -43 -23.5t-46 -55t-38 -63t-20 -47.5q-6 -26 1 -27.5t22 11t34 34.5t36 43.5t29.5 38t13.5 17.5q13 10 26 9t22.5 -9.5t13 -21t-2.5 -25.5q-7 -16 -18.5 -38t-14.5 -39q-3 -26 6 -34t33 1q19 8 40 28.5t41.5 43.5t38.5 44t30 31q3 3 7.5 6.5t7.5 1.5q5 -2 5.5 -5.5
t0.5 -7.5q-13 -32 -31 -63t-40.5 -57.5t-50 -47t-59.5 -32.5q-20 -7 -36 -4.5t-29 11.5t-21 23t-11 30z" />
    <glyph glyph-name="c" unicode="c" horiz-adv-x="286" 
d="M297 198q11 5 13.5 -0.5t-1.5 -13.5q-6 -12 -15 -22t-20 -19q-23 -21 -38.5 -34.5t-26 -21.5t-17.5 -13t-13 -9q-23 -14 -45.5 -27t-42.5 -19q-31 -9 -60.5 -0.5t-44.5 35.5q-17 31 -14 71.5t20.5 78t46.5 64t64 28.5q11 2 22.5 -6.5t14.5 -19.5q3 -9 1 -20t-5.5 -24.5
t-7.5 -29.5t-7 -33q-2 -6 -5.5 -6.5t-6.5 4.5q-11 17 -13.5 32.5t-5.5 29.5q-6 0 -15.5 -11.5t-18.5 -28.5t-15 -36.5t-6 -34.5q0 -20 6 -30t15 -12t21 1t24 9q53 25 102 53.5t94 64.5z" />
    </font>
</defs>
</svg>
